<?xml version="1.0" encoding="UTF-8" standalone="no"?>
<!DOCTYPE svg PUBLIC "-//W3C//DTD SVG 1.1//EN"
 "http://www.w3.org/Graphics/SVG/1.1/DTD/svg11.dtd">
<!-- Generated by graphviz version 6.0.1 (20220911.1526)
 -->
<!-- Title: D Pages: 1 -->
<svg width="153pt" height="275pt"
 viewBox="0.00 0.00 153.00 275.00" xmlns="http://www.w3.org/2000/svg" xmlns:xlink="http://www.w3.org/1999/xlink">
<g id="graph0" class="graph" transform="scale(1 1) rotate(0) translate(4 271)">
<title>D</title>
<polygon fill="white" stroke="none" points="-4,4 -4,-271 149,-271 149,4 -4,4"/>
<!-- &#45;main&#45;29033&#45;138268197167750 -->
<g id="node1" class="node">
<title>&#45;main&#45;29033&#45;138268197167750</title>
<polygon fill="#ff83fa" stroke="none" points="8.5,-238 8.5,-263 137.5,-263 137.5,-238 8.5,-238"/>
<polygon fill="none" stroke="black" points="8.5,-238 8.5,-263 137.5,-263 137.5,-238 8.5,-238"/>
<text text-anchor="start" x="56.5" y="-247.8" font-family="Times,serif" font-weight="bold" font-size="14.00">async</text>
<polygon fill="none" stroke="black" points="8.5,-213 8.5,-238 99.5,-238 99.5,-213 8.5,-213"/>
<text text-anchor="start" x="62.5" y="-221.8" font-family="Times,serif" font-size="14.00">stack:</text>
<polygon fill="none" stroke="black" points="99.5,-213 99.5,-238 137.5,-238 137.5,-213 99.5,-213"/>
<text text-anchor="start" x="104.5" y="-221.8" font-family="Times,serif" font-size="14.00">0</text>
<polygon fill="none" stroke="black" points="8.5,-188 8.5,-213 99.5,-213 99.5,-188 8.5,-188"/>
<text text-anchor="start" x="13.5" y="-196.8" font-family="Times,serif" font-size="14.00">isInterruptible:</text>
<polygon fill="none" stroke="black" points="99.5,-188 99.5,-213 137.5,-213 137.5,-188 99.5,-188"/>
<text text-anchor="start" x="104.5" y="-196.8" font-family="Times,serif" font-size="14.00">✅</text>
<polygon fill="none" stroke="black" points="8.5,-163 8.5,-188 99.5,-188 99.5,-163 8.5,-163"/>
<text text-anchor="start" x="30.5" y="-171.8" font-family="Times,serif" font-size="14.00">interrupted:</text>
<polygon fill="none" stroke="black" points="99.5,-163 99.5,-188 137.5,-188 137.5,-163 99.5,-163"/>
<text text-anchor="start" x="104.5" y="-171.8" font-family="Times,serif" font-size="14.00">❌</text>
<polygon fill="none" stroke="black" points="8.5,-138 8.5,-163 99.5,-163 99.5,-138 8.5,-138"/>
<text text-anchor="start" x="16.5" y="-146.8" font-family="Times,serif" font-size="14.00">isInterrupting:</text>
<polygon fill="none" stroke="black" points="99.5,-138 99.5,-163 137.5,-163 137.5,-138 99.5,-138"/>
<text text-anchor="start" x="104.5" y="-146.8" font-family="Times,serif" font-size="14.00">❌</text>
<polygon fill="none" stroke="black" points="8.5,-113 8.5,-138 99.5,-138 99.5,-113 8.5,-113"/>
<text text-anchor="start" x="86.5" y="-121.8" font-family="Times,serif" font-size="14.00">t:</text>
<polygon fill="none" stroke="black" points="99.5,-113 99.5,-138 137.5,-138 137.5,-113 99.5,-113"/>
<text text-anchor="start" x="104.5" y="-121.8" font-family="Times,serif" font-size="14.00">0 ms</text>
</g>
<!-- &#45;main&#45;29033&#45;138269202080458 -->
<g id="node2" class="node">
<title>&#45;main&#45;29033&#45;138269202080458</title>
<polygon fill="pink" stroke="none" points="24.5,-29 24.5,-54 120.5,-54 120.5,-29 24.5,-29"/>
<polygon fill="none" stroke="black" points="24.5,-29 24.5,-54 120.5,-54 120.5,-29 24.5,-29"/>
<text text-anchor="start" x="64" y="-38.8" font-family="Times,serif" font-weight="bold" font-size="14.00">IO</text>
<polygon fill="none" stroke="black" points="24.5,-4 24.5,-29 62.5,-29 62.5,-4 24.5,-4"/>
<text text-anchor="start" x="29.5" y="-12.8" font-family="Times,serif" font-size="14.00">took:</text>
<polygon fill="none" stroke="black" points="62.5,-4 62.5,-29 120.5,-29 120.5,-4 62.5,-4"/>
<text text-anchor="start" x="67.5" y="-12.8" font-family="Times,serif" font-size="14.00">1005 ms</text>
</g>
<!-- &#45;main&#45;29033&#45;138268197167750&#45;&gt;&#45;main&#45;29033&#45;138269202080458 -->
<g id="edge1" class="edge">
<title>&#45;main&#45;29033&#45;138268197167750&#45;&gt;&#45;main&#45;29033&#45;138269202080458</title>
<path fill="none" stroke="black" d="M72.5,-108.96C72.5,-94.91 72.5,-80.85 72.5,-68.56"/>
<polygon fill="black" stroke="black" points="76,-68.26 72.5,-58.26 69,-68.26 76,-68.26"/>
<text text-anchor="middle" x="76" y="-79.8" font-family="Times,serif" font-size="14.00">λ</text>
</g>
</g>
</svg>
