<?xml version="1.0" encoding="UTF-8" standalone="no"?>
<!DOCTYPE svg PUBLIC "-//W3C//DTD SVG 1.1//EN"
 "http://www.w3.org/Graphics/SVG/1.1/DTD/svg11.dtd">
<!-- Generated by graphviz version 6.0.1 (20220911.1526)
 -->
<!-- Title: D Pages: 1 -->
<svg width="358pt" height="520pt"
 viewBox="0.00 0.00 358.00 520.00" xmlns="http://www.w3.org/2000/svg" xmlns:xlink="http://www.w3.org/1999/xlink">
<g id="graph0" class="graph" transform="scale(1 1) rotate(0) translate(4 516)">
<title>D</title>
<polygon fill="white" stroke="none" points="-4,4 -4,-516 354,-516 354,4 -4,4"/>
<!-- &#45;main&#45;16614&#45;138267987749208 -->
<g id="node1" class="node">
<title>&#45;main&#45;16614&#45;138267987749208</title>
<polygon fill="#7fff00" stroke="none" points="91.5,-482.5 91.5,-507.5 236.5,-507.5 236.5,-482.5 91.5,-482.5"/>
<polygon fill="none" stroke="black" points="91.5,-482.5 91.5,-507.5 236.5,-507.5 236.5,-482.5 91.5,-482.5"/>
<text text-anchor="start" x="135" y="-492.3" font-family="Times,serif" font-weight="bold" font-size="14.00">onSuccess</text>
<polygon fill="none" stroke="black" points="91.5,-457.5 91.5,-482.5 182.5,-482.5 182.5,-457.5 91.5,-457.5"/>
<text text-anchor="start" x="146.5" y="-466.3" font-family="Times,serif" font-size="14.00">label:</text>
<polygon fill="none" stroke="black" points="182.5,-457.5 182.5,-482.5 236.5,-482.5 236.5,-457.5 182.5,-457.5"/>
<text text-anchor="start" x="187.5" y="-466.3" font-family="Times,serif" font-size="14.00">flatMap</text>
<polygon fill="none" stroke="black" points="91.5,-432.5 91.5,-457.5 182.5,-457.5 182.5,-432.5 91.5,-432.5"/>
<text text-anchor="start" x="145.5" y="-441.3" font-family="Times,serif" font-size="14.00">stack:</text>
<polygon fill="none" stroke="black" points="182.5,-432.5 182.5,-457.5 236.5,-457.5 236.5,-432.5 182.5,-432.5"/>
<text text-anchor="start" x="187.5" y="-441.3" font-family="Times,serif" font-size="14.00">0</text>
<polygon fill="none" stroke="black" points="91.5,-407.5 91.5,-432.5 182.5,-432.5 182.5,-407.5 91.5,-407.5"/>
<text text-anchor="start" x="96.5" y="-416.3" font-family="Times,serif" font-size="14.00">isInterruptible:</text>
<polygon fill="none" stroke="black" points="182.5,-407.5 182.5,-432.5 236.5,-432.5 236.5,-407.5 182.5,-407.5"/>
<text text-anchor="start" x="187.5" y="-416.3" font-family="Times,serif" font-size="14.00">✅</text>
<polygon fill="none" stroke="black" points="91.5,-382.5 91.5,-407.5 182.5,-407.5 182.5,-382.5 91.5,-382.5"/>
<text text-anchor="start" x="113.5" y="-391.3" font-family="Times,serif" font-size="14.00">interrupted:</text>
<polygon fill="none" stroke="black" points="182.5,-382.5 182.5,-407.5 236.5,-407.5 236.5,-382.5 182.5,-382.5"/>
<text text-anchor="start" x="187.5" y="-391.3" font-family="Times,serif" font-size="14.00">❌</text>
<polygon fill="none" stroke="black" points="91.5,-357.5 91.5,-382.5 182.5,-382.5 182.5,-357.5 91.5,-357.5"/>
<text text-anchor="start" x="99.5" y="-366.3" font-family="Times,serif" font-size="14.00">isInterrupting:</text>
<polygon fill="none" stroke="black" points="182.5,-357.5 182.5,-382.5 236.5,-382.5 236.5,-357.5 182.5,-357.5"/>
<text text-anchor="start" x="187.5" y="-366.3" font-family="Times,serif" font-size="14.00">❌</text>
<polygon fill="none" stroke="black" points="91.5,-332.5 91.5,-357.5 182.5,-357.5 182.5,-332.5 91.5,-332.5"/>
<text text-anchor="start" x="169.5" y="-341.3" font-family="Times,serif" font-size="14.00">t:</text>
<polygon fill="none" stroke="black" points="182.5,-332.5 182.5,-357.5 236.5,-357.5 236.5,-332.5 182.5,-332.5"/>
<text text-anchor="start" x="187.5" y="-341.3" font-family="Times,serif" font-size="14.00">0 ms</text>
</g>
<!-- &#45;main&#45;16614&#45;138267987798250 -->
<g id="node2" class="node">
<title>&#45;main&#45;16614&#45;138267987798250</title>
<polygon fill="#7fff00" stroke="none" points="8.5,-236.5 8.5,-261.5 137.5,-261.5 137.5,-236.5 8.5,-236.5"/>
<polygon fill="none" stroke="black" points="8.5,-236.5 8.5,-261.5 137.5,-261.5 137.5,-236.5 8.5,-236.5"/>
<text text-anchor="start" x="60" y="-246.3" font-family="Times,serif" font-weight="bold" font-size="14.00">sync</text>
<polygon fill="none" stroke="black" points="8.5,-211.5 8.5,-236.5 99.5,-236.5 99.5,-211.5 8.5,-211.5"/>
<text text-anchor="start" x="62.5" y="-220.3" font-family="Times,serif" font-size="14.00">stack:</text>
<polygon fill="none" stroke="black" points="99.5,-211.5 99.5,-236.5 137.5,-236.5 137.5,-211.5 99.5,-211.5"/>
<text text-anchor="start" x="104.5" y="-220.3" font-family="Times,serif" font-size="14.00">1</text>
<polygon fill="none" stroke="black" points="8.5,-186.5 8.5,-211.5 99.5,-211.5 99.5,-186.5 8.5,-186.5"/>
<text text-anchor="start" x="13.5" y="-195.3" font-family="Times,serif" font-size="14.00">isInterruptible:</text>
<polygon fill="none" stroke="black" points="99.5,-186.5 99.5,-211.5 137.5,-211.5 137.5,-186.5 99.5,-186.5"/>
<text text-anchor="start" x="104.5" y="-195.3" font-family="Times,serif" font-size="14.00">✅</text>
<polygon fill="none" stroke="black" points="8.5,-161.5 8.5,-186.5 99.5,-186.5 99.5,-161.5 8.5,-161.5"/>
<text text-anchor="start" x="30.5" y="-170.3" font-family="Times,serif" font-size="14.00">interrupted:</text>
<polygon fill="none" stroke="black" points="99.5,-161.5 99.5,-186.5 137.5,-186.5 137.5,-161.5 99.5,-161.5"/>
<text text-anchor="start" x="104.5" y="-170.3" font-family="Times,serif" font-size="14.00">❌</text>
<polygon fill="none" stroke="black" points="8.5,-136.5 8.5,-161.5 99.5,-161.5 99.5,-136.5 8.5,-136.5"/>
<text text-anchor="start" x="16.5" y="-145.3" font-family="Times,serif" font-size="14.00">isInterrupting:</text>
<polygon fill="none" stroke="black" points="99.5,-136.5 99.5,-161.5 137.5,-161.5 137.5,-136.5 99.5,-136.5"/>
<text text-anchor="start" x="104.5" y="-145.3" font-family="Times,serif" font-size="14.00">❌</text>
<polygon fill="none" stroke="black" points="8.5,-111.5 8.5,-136.5 99.5,-136.5 99.5,-111.5 8.5,-111.5"/>
<text text-anchor="start" x="86.5" y="-120.3" font-family="Times,serif" font-size="14.00">t:</text>
<polygon fill="none" stroke="black" points="99.5,-111.5 99.5,-136.5 137.5,-136.5 137.5,-111.5 99.5,-111.5"/>
<text text-anchor="start" x="104.5" y="-120.3" font-family="Times,serif" font-size="14.00">0 ms</text>
</g>
<!-- &#45;main&#45;16614&#45;138267987749208&#45;&gt;&#45;main&#45;16614&#45;138267987798250 -->
<g id="edge1" class="edge">
<title>&#45;main&#45;16614&#45;138267987749208&#45;&gt;&#45;main&#45;16614&#45;138267987798250</title>
<path fill="none" stroke="black" d="M127.93,-328.81C121.03,-311.22 113.81,-292.82 106.95,-275.33"/>
<polygon fill="black" stroke="black" points="110.09,-273.75 103.18,-265.71 103.57,-276.3 110.09,-273.75"/>
</g>
<!-- &#45;main&#45;16614&#45;138267987851375 -->
<g id="node4" class="node">
<title>&#45;main&#45;16614&#45;138267987851375</title>
<polygon fill="#7fff00" stroke="none" points="171.5,-248.5 171.5,-273.5 342.5,-273.5 342.5,-248.5 171.5,-248.5"/>
<polygon fill="none" stroke="black" points="171.5,-248.5 171.5,-273.5 342.5,-273.5 342.5,-248.5 171.5,-248.5"/>
<text text-anchor="start" x="243" y="-258.3" font-family="Times,serif" font-weight="bold" font-size="14.00">done</text>
<polygon fill="none" stroke="black" points="171.5,-223.5 171.5,-248.5 262.5,-248.5 262.5,-223.5 171.5,-223.5"/>
<text text-anchor="start" x="226.5" y="-232.3" font-family="Times,serif" font-size="14.00">label:</text>
<polygon fill="none" stroke="black" points="262.5,-223.5 262.5,-248.5 342.5,-248.5 342.5,-223.5 262.5,-223.5"/>
<text text-anchor="start" x="267.5" y="-232.3" font-family="Times,serif" font-size="14.00">succeedNow</text>
<polygon fill="none" stroke="black" points="171.5,-198.5 171.5,-223.5 262.5,-223.5 262.5,-198.5 171.5,-198.5"/>
<text text-anchor="start" x="225.5" y="-207.3" font-family="Times,serif" font-size="14.00">stack:</text>
<polygon fill="none" stroke="black" points="262.5,-198.5 262.5,-223.5 342.5,-223.5 342.5,-198.5 262.5,-198.5"/>
<text text-anchor="start" x="267.5" y="-207.3" font-family="Times,serif" font-size="14.00">0</text>
<polygon fill="none" stroke="black" points="171.5,-173.5 171.5,-198.5 262.5,-198.5 262.5,-173.5 171.5,-173.5"/>
<text text-anchor="start" x="176.5" y="-182.3" font-family="Times,serif" font-size="14.00">isInterruptible:</text>
<polygon fill="none" stroke="black" points="262.5,-173.5 262.5,-198.5 342.5,-198.5 342.5,-173.5 262.5,-173.5"/>
<text text-anchor="start" x="267.5" y="-182.3" font-family="Times,serif" font-size="14.00">✅</text>
<polygon fill="none" stroke="black" points="171.5,-148.5 171.5,-173.5 262.5,-173.5 262.5,-148.5 171.5,-148.5"/>
<text text-anchor="start" x="193.5" y="-157.3" font-family="Times,serif" font-size="14.00">interrupted:</text>
<polygon fill="none" stroke="black" points="262.5,-148.5 262.5,-173.5 342.5,-173.5 342.5,-148.5 262.5,-148.5"/>
<text text-anchor="start" x="267.5" y="-157.3" font-family="Times,serif" font-size="14.00">❌</text>
<polygon fill="none" stroke="black" points="171.5,-123.5 171.5,-148.5 262.5,-148.5 262.5,-123.5 171.5,-123.5"/>
<text text-anchor="start" x="179.5" y="-132.3" font-family="Times,serif" font-size="14.00">isInterrupting:</text>
<polygon fill="none" stroke="black" points="262.5,-123.5 262.5,-148.5 342.5,-148.5 342.5,-123.5 262.5,-123.5"/>
<text text-anchor="start" x="267.5" y="-132.3" font-family="Times,serif" font-size="14.00">❌</text>
<polygon fill="none" stroke="black" points="171.5,-98.5 171.5,-123.5 262.5,-123.5 262.5,-98.5 171.5,-98.5"/>
<text text-anchor="start" x="249.5" y="-107.3" font-family="Times,serif" font-size="14.00">t:</text>
<polygon fill="none" stroke="black" points="262.5,-98.5 262.5,-123.5 342.5,-123.5 342.5,-98.5 262.5,-98.5"/>
<text text-anchor="start" x="267.5" y="-107.3" font-family="Times,serif" font-size="14.00">0 ms</text>
</g>
<!-- &#45;main&#45;16614&#45;138267987749208&#45;&gt;&#45;main&#45;16614&#45;138267987851375 -->
<g id="edge3" class="edge">
<title>&#45;main&#45;16614&#45;138267987749208&#45;&gt;&#45;main&#45;16614&#45;138267987851375</title>
<path fill="none" stroke="black" d="M199.86,-328.81C205.28,-315.28 210.89,-301.27 216.39,-287.56"/>
<polygon fill="black" stroke="black" points="219.7,-288.72 220.17,-278.13 213.2,-286.11 219.7,-288.72"/>
<text text-anchor="middle" x="217" y="-299.8" font-family="Times,serif" font-size="14.00">λ</text>
</g>
<!-- &#45;main&#45;16614&#45;138267987828916 -->
<g id="node3" class="node">
<title>&#45;main&#45;16614&#45;138267987828916</title>
<polygon fill="pink" stroke="none" points="34.5,-29 34.5,-54 110.5,-54 110.5,-29 34.5,-29"/>
<polygon fill="none" stroke="black" points="34.5,-29 34.5,-54 110.5,-54 110.5,-29 34.5,-29"/>
<text text-anchor="start" x="64" y="-38.8" font-family="Times,serif" font-weight="bold" font-size="14.00">IO</text>
<polygon fill="none" stroke="black" points="34.5,-4 34.5,-29 72.5,-29 72.5,-4 34.5,-4"/>
<text text-anchor="start" x="39.5" y="-12.8" font-family="Times,serif" font-size="14.00">took:</text>
<polygon fill="none" stroke="black" points="72.5,-4 72.5,-29 110.5,-29 110.5,-4 72.5,-4"/>
<text text-anchor="start" x="77.5" y="-12.8" font-family="Times,serif" font-size="14.00">0 ms</text>
</g>
<!-- &#45;main&#45;16614&#45;138267987798250&#45;&gt;&#45;main&#45;16614&#45;138267987828916 -->
<g id="edge2" class="edge">
<title>&#45;main&#45;16614&#45;138267987798250&#45;&gt;&#45;main&#45;16614&#45;138267987828916</title>
<path fill="none" stroke="black" d="M72.5,-107.29C72.5,-93.86 72.5,-80.45 72.5,-68.65"/>
<polygon fill="black" stroke="black" points="76,-68.32 72.5,-58.32 69,-68.32 76,-68.32"/>
</g>
<!-- &#45;main&#45;16614&#45;138267987875416 -->
<g id="node5" class="node">
<title>&#45;main&#45;16614&#45;138267987875416</title>
<polygon fill="#7fff00" stroke="none" points="216.5,-16 216.5,-41 296.5,-41 296.5,-16 216.5,-16"/>
<polygon fill="none" stroke="black" points="216.5,-16 216.5,-41 296.5,-41 296.5,-16 216.5,-16"/>
<text text-anchor="start" x="221.5" y="-25.8" font-family="Times,serif" font-weight="bold" font-size="14.00">Exit.success</text>
</g>
<!-- &#45;main&#45;16614&#45;138267987851375&#45;&gt;&#45;main&#45;16614&#45;138267987875416 -->
<g id="edge4" class="edge">
<title>&#45;main&#45;16614&#45;138267987851375&#45;&gt;&#45;main&#45;16614&#45;138267987875416</title>
<path fill="none" stroke="black" d="M256.5,-94.6C256.5,-81.08 256.5,-68.11 256.5,-57.38"/>
<polygon fill="black" stroke="black" points="260,-57.09 256.5,-47.09 253,-57.09 260,-57.09"/>
</g>
</g>
</svg>
