<?xml version="1.0" encoding="UTF-8" standalone="no"?>
<!DOCTYPE svg PUBLIC "-//W3C//DTD SVG 1.1//EN"
 "http://www.w3.org/Graphics/SVG/1.1/DTD/svg11.dtd">
<!-- Generated by graphviz version 6.0.1 (20220911.1526)
 -->
<!-- Title: D Pages: 1 -->
<svg width="168pt" height="285pt"
 viewBox="0.00 0.00 168.00 285.00" xmlns="http://www.w3.org/2000/svg" xmlns:xlink="http://www.w3.org/1999/xlink">
<g id="graph0" class="graph" transform="scale(1 1) rotate(0) translate(4 281)">
<title>D</title>
<polygon fill="white" stroke="none" points="-4,4 -4,-281 164,-281 164,4 -4,4"/>
<!-- &#45;main&#45;73665&#45;138268090626583 -->
<g id="node1" class="node">
<title>&#45;main&#45;73665&#45;138268090626583</title>
<polygon fill="#ffff00" stroke="none" points="8,-247.5 8,-272.5 152,-272.5 152,-247.5 8,-247.5"/>
<polygon fill="none" stroke="black" points="8,-247.5 8,-272.5 152,-272.5 152,-247.5 8,-247.5"/>
<text text-anchor="start" x="67" y="-257.3" font-family="Times,serif" font-weight="bold" font-size="14.00">sync</text>
<polygon fill="none" stroke="black" points="8,-222.5 8,-247.5 99,-247.5 99,-222.5 8,-222.5"/>
<text text-anchor="start" x="63" y="-231.3" font-family="Times,serif" font-size="14.00">label:</text>
<polygon fill="none" stroke="black" points="99,-222.5 99,-247.5 152,-247.5 152,-222.5 99,-222.5"/>
<text text-anchor="start" x="104" y="-231.3" font-family="Times,serif" font-size="14.00">succeed</text>
<polygon fill="none" stroke="black" points="8,-197.5 8,-222.5 99,-222.5 99,-197.5 8,-197.5"/>
<text text-anchor="start" x="62" y="-206.3" font-family="Times,serif" font-size="14.00">stack:</text>
<polygon fill="none" stroke="black" points="99,-197.5 99,-222.5 152,-222.5 152,-197.5 99,-197.5"/>
<text text-anchor="start" x="104" y="-206.3" font-family="Times,serif" font-size="14.00">0</text>
<polygon fill="none" stroke="black" points="8,-172.5 8,-197.5 99,-197.5 99,-172.5 8,-172.5"/>
<text text-anchor="start" x="13" y="-181.3" font-family="Times,serif" font-size="14.00">isInterruptible:</text>
<polygon fill="none" stroke="black" points="99,-172.5 99,-197.5 152,-197.5 152,-172.5 99,-172.5"/>
<text text-anchor="start" x="104" y="-181.3" font-family="Times,serif" font-size="14.00">✅</text>
<polygon fill="none" stroke="black" points="8,-147.5 8,-172.5 99,-172.5 99,-147.5 8,-147.5"/>
<text text-anchor="start" x="30" y="-156.3" font-family="Times,serif" font-size="14.00">interrupted:</text>
<polygon fill="none" stroke="black" points="99,-147.5 99,-172.5 152,-172.5 152,-147.5 99,-147.5"/>
<text text-anchor="start" x="104" y="-156.3" font-family="Times,serif" font-size="14.00">❌</text>
<polygon fill="none" stroke="black" points="8,-122.5 8,-147.5 99,-147.5 99,-122.5 8,-122.5"/>
<text text-anchor="start" x="16" y="-131.3" font-family="Times,serif" font-size="14.00">isInterrupting:</text>
<polygon fill="none" stroke="black" points="99,-122.5 99,-147.5 152,-147.5 152,-122.5 99,-122.5"/>
<text text-anchor="start" x="104" y="-131.3" font-family="Times,serif" font-size="14.00">❌</text>
<polygon fill="none" stroke="black" points="8,-97.5 8,-122.5 99,-122.5 99,-97.5 8,-97.5"/>
<text text-anchor="start" x="86" y="-106.3" font-family="Times,serif" font-size="14.00">t:</text>
<polygon fill="none" stroke="black" points="99,-97.5 99,-122.5 152,-122.5 152,-97.5 99,-97.5"/>
<text text-anchor="start" x="104" y="-106.3" font-family="Times,serif" font-size="14.00">0 ms</text>
</g>
<!-- &#45;main&#45;73665&#45;138268090682916 -->
<g id="node2" class="node">
<title>&#45;main&#45;73665&#45;138268090682916</title>
<polygon fill="pink" stroke="none" points="42,-29 42,-54 118,-54 118,-29 42,-29"/>
<polygon fill="none" stroke="black" points="42,-29 42,-54 118,-54 118,-29 42,-29"/>
<text text-anchor="start" x="71.5" y="-38.8" font-family="Times,serif" font-weight="bold" font-size="14.00">IO</text>
<polygon fill="none" stroke="black" points="42,-4 42,-29 80,-29 80,-4 42,-4"/>
<text text-anchor="start" x="47" y="-12.8" font-family="Times,serif" font-size="14.00">took:</text>
<polygon fill="none" stroke="black" points="80,-4 80,-29 118,-29 118,-4 80,-4"/>
<text text-anchor="start" x="85" y="-12.8" font-family="Times,serif" font-size="14.00">0 ms</text>
</g>
<!-- &#45;main&#45;73665&#45;138268090626583&#45;&gt;&#45;main&#45;73665&#45;138268090682916 -->
<g id="edge1" class="edge">
<title>&#45;main&#45;73665&#45;138268090626583&#45;&gt;&#45;main&#45;73665&#45;138268090682916</title>
<path fill="none" stroke="black" d="M80,-93.73C80,-84.88 80,-76.28 80,-68.4"/>
<polygon fill="black" stroke="black" points="83.5,-68.15 80,-58.15 76.5,-68.15 83.5,-68.15"/>
</g>
</g>
</svg>
