<?xml version="1.0" encoding="UTF-8" standalone="no"?>
<!DOCTYPE svg PUBLIC "-//W3C//DTD SVG 1.1//EN"
 "http://www.w3.org/Graphics/SVG/1.1/DTD/svg11.dtd">
<!-- Generated by graphviz version 6.0.1 (20220911.1526)
 -->
<!-- Title: D Pages: 1 -->
<svg width="429pt" height="715pt"
 viewBox="0.00 0.00 429.00 715.00" xmlns="http://www.w3.org/2000/svg" xmlns:xlink="http://www.w3.org/1999/xlink">
<g id="graph0" class="graph" transform="scale(1 1) rotate(0) translate(4 711)">
<title>D</title>
<polygon fill="white" stroke="none" points="-4,4 -4,-711 425,-711 425,4 -4,4"/>
<!-- &#45;main&#45;8123&#45;138274005449166 -->
<g id="node1" class="node">
<title>&#45;main&#45;8123&#45;138274005449166</title>
<polygon fill="#98f5ff" stroke="none" points="8,-678 8,-703 140,-703 140,-678 8,-678"/>
<polygon fill="none" stroke="black" points="8,-678 8,-703 140,-703 140,-678 8,-678"/>
<text text-anchor="start" x="13" y="-687.8" font-family="Times,serif" font-weight="bold" font-size="14.00">provideEnvironment</text>
<polygon fill="none" stroke="black" points="8,-653 8,-678 100,-678 100,-653 8,-653"/>
<text text-anchor="start" x="63" y="-661.8" font-family="Times,serif" font-size="14.00">stack:</text>
<polygon fill="none" stroke="black" points="100,-653 100,-678 140,-678 140,-653 100,-653"/>
<text text-anchor="start" x="105" y="-661.8" font-family="Times,serif" font-size="14.00">0</text>
<polygon fill="none" stroke="black" points="8,-628 8,-653 100,-653 100,-628 8,-628"/>
<text text-anchor="start" x="14" y="-636.8" font-family="Times,serif" font-size="14.00">isInterruptible:</text>
<polygon fill="none" stroke="black" points="100,-628 100,-653 140,-653 140,-628 100,-628"/>
<text text-anchor="start" x="105" y="-636.8" font-family="Times,serif" font-size="14.00">✅</text>
<polygon fill="none" stroke="black" points="8,-603 8,-628 100,-628 100,-603 8,-603"/>
<text text-anchor="start" x="31" y="-611.8" font-family="Times,serif" font-size="14.00">interrupted:</text>
<polygon fill="none" stroke="black" points="100,-603 100,-628 140,-628 140,-603 100,-603"/>
<text text-anchor="start" x="105" y="-611.8" font-family="Times,serif" font-size="14.00">❌</text>
<polygon fill="none" stroke="black" points="8,-578 8,-603 100,-603 100,-578 8,-578"/>
<text text-anchor="start" x="17" y="-586.8" font-family="Times,serif" font-size="14.00">isInterrupting:</text>
<polygon fill="none" stroke="black" points="100,-578 100,-603 140,-603 140,-578 100,-578"/>
<text text-anchor="start" x="105" y="-586.8" font-family="Times,serif" font-size="14.00">❌</text>
<polygon fill="none" stroke="black" points="8,-553 8,-578 100,-578 100,-553 8,-553"/>
<text text-anchor="start" x="87" y="-561.8" font-family="Times,serif" font-size="14.00">t:</text>
<polygon fill="none" stroke="black" points="100,-553 100,-578 140,-578 140,-553 100,-553"/>
<text text-anchor="start" x="105" y="-561.8" font-family="Times,serif" font-size="14.00">0 ms</text>
</g>
<!-- &#45;main&#45;8123&#45;138274005539208 -->
<g id="node2" class="node">
<title>&#45;main&#45;8123&#45;138274005539208</title>
<polygon fill="#98f5ff" stroke="none" points="18,-407.5 18,-432.5 106,-432.5 106,-407.5 18,-407.5"/>
<polygon fill="none" stroke="black" points="18,-407.5 18,-432.5 106,-432.5 106,-407.5 18,-407.5"/>
<text text-anchor="start" x="23" y="-417.3" font-family="Times,serif" font-weight="bold" font-size="14.00">Environment</text>
</g>
<!-- &#45;main&#45;8123&#45;138274005449166&#45;&gt;&#45;main&#45;8123&#45;138274005539208 -->
<g id="edge1" class="edge">
<title>&#45;main&#45;8123&#45;138274005449166&#45;&gt;&#45;main&#45;8123&#45;138274005539208</title>
<path fill="none" stroke="black" d="M69.43,-548.72C67.38,-513.59 65.09,-474.4 63.6,-448.93"/>
<polygon fill="black" stroke="black" points="67.09,-448.68 63.02,-438.9 60.1,-449.08 67.09,-448.68"/>
</g>
<!-- &#45;main&#45;8123&#45;138274005531541 -->
<g id="node3" class="node">
<title>&#45;main&#45;8123&#45;138274005531541</title>
<polygon fill="#98f5ff" stroke="none" points="141,-482.5 141,-507.5 270,-507.5 270,-482.5 141,-482.5"/>
<polygon fill="none" stroke="black" points="141,-482.5 141,-507.5 270,-507.5 270,-482.5 141,-482.5"/>
<text text-anchor="start" x="176.5" y="-492.3" font-family="Times,serif" font-weight="bold" font-size="14.00">onSuccess</text>
<polygon fill="none" stroke="black" points="141,-457.5 141,-482.5 232,-482.5 232,-457.5 141,-457.5"/>
<text text-anchor="start" x="196" y="-466.3" font-family="Times,serif" font-size="14.00">label:</text>
<polygon fill="none" stroke="black" points="232,-457.5 232,-482.5 270,-482.5 270,-457.5 232,-457.5"/>
<text text-anchor="start" x="237" y="-466.3" font-family="Times,serif" font-size="14.00">do</text>
<polygon fill="none" stroke="black" points="141,-432.5 141,-457.5 232,-457.5 232,-432.5 141,-432.5"/>
<text text-anchor="start" x="195" y="-441.3" font-family="Times,serif" font-size="14.00">stack:</text>
<polygon fill="none" stroke="black" points="232,-432.5 232,-457.5 270,-457.5 270,-432.5 232,-432.5"/>
<text text-anchor="start" x="237" y="-441.3" font-family="Times,serif" font-size="14.00">0</text>
<polygon fill="none" stroke="black" points="141,-407.5 141,-432.5 232,-432.5 232,-407.5 141,-407.5"/>
<text text-anchor="start" x="146" y="-416.3" font-family="Times,serif" font-size="14.00">isInterruptible:</text>
<polygon fill="none" stroke="black" points="232,-407.5 232,-432.5 270,-432.5 270,-407.5 232,-407.5"/>
<text text-anchor="start" x="237" y="-416.3" font-family="Times,serif" font-size="14.00">✅</text>
<polygon fill="none" stroke="black" points="141,-382.5 141,-407.5 232,-407.5 232,-382.5 141,-382.5"/>
<text text-anchor="start" x="163" y="-391.3" font-family="Times,serif" font-size="14.00">interrupted:</text>
<polygon fill="none" stroke="black" points="232,-382.5 232,-407.5 270,-407.5 270,-382.5 232,-382.5"/>
<text text-anchor="start" x="237" y="-391.3" font-family="Times,serif" font-size="14.00">❌</text>
<polygon fill="none" stroke="black" points="141,-357.5 141,-382.5 232,-382.5 232,-357.5 141,-357.5"/>
<text text-anchor="start" x="149" y="-366.3" font-family="Times,serif" font-size="14.00">isInterrupting:</text>
<polygon fill="none" stroke="black" points="232,-357.5 232,-382.5 270,-382.5 270,-357.5 232,-357.5"/>
<text text-anchor="start" x="237" y="-366.3" font-family="Times,serif" font-size="14.00">❌</text>
<polygon fill="none" stroke="black" points="141,-332.5 141,-357.5 232,-357.5 232,-332.5 141,-332.5"/>
<text text-anchor="start" x="219" y="-341.3" font-family="Times,serif" font-size="14.00">t:</text>
<polygon fill="none" stroke="black" points="232,-332.5 232,-357.5 270,-357.5 270,-332.5 232,-332.5"/>
<text text-anchor="start" x="237" y="-341.3" font-family="Times,serif" font-size="14.00">0 ms</text>
</g>
<!-- &#45;main&#45;8123&#45;138274005449166&#45;&gt;&#45;main&#45;8123&#45;138274005531541 -->
<g id="edge2" class="edge">
<title>&#45;main&#45;8123&#45;138274005449166&#45;&gt;&#45;main&#45;8123&#45;138274005531541</title>
<path fill="none" stroke="black" d="M123.9,-548.72C129.71,-539.6 135.7,-530.21 141.66,-520.86"/>
<polygon fill="black" stroke="black" points="144.7,-522.6 147.13,-512.29 138.8,-518.84 144.7,-522.6"/>
</g>
<!-- &#45;main&#45;8123&#45;138274005578333 -->
<g id="node4" class="node">
<title>&#45;main&#45;8123&#45;138274005578333</title>
<polygon fill="#98f5ff" stroke="none" points="64,-248.5 64,-273.5 235,-273.5 235,-248.5 64,-248.5"/>
<polygon fill="none" stroke="black" points="64,-248.5 64,-273.5 235,-273.5 235,-248.5 64,-248.5"/>
<text text-anchor="start" x="89" y="-258.3" font-family="Times,serif" font-weight="bold" font-size="14.00">currentEnvironment</text>
<polygon fill="none" stroke="black" points="64,-223.5 64,-248.5 155,-248.5 155,-223.5 64,-223.5"/>
<text text-anchor="start" x="119" y="-232.3" font-family="Times,serif" font-size="14.00">label:</text>
<polygon fill="none" stroke="black" points="155,-223.5 155,-248.5 235,-248.5 235,-223.5 155,-223.5"/>
<text text-anchor="start" x="160" y="-232.3" font-family="Times,serif" font-size="14.00">environment</text>
<polygon fill="none" stroke="black" points="64,-198.5 64,-223.5 155,-223.5 155,-198.5 64,-198.5"/>
<text text-anchor="start" x="118" y="-207.3" font-family="Times,serif" font-size="14.00">stack:</text>
<polygon fill="none" stroke="black" points="155,-198.5 155,-223.5 235,-223.5 235,-198.5 155,-198.5"/>
<text text-anchor="start" x="160" y="-207.3" font-family="Times,serif" font-size="14.00">1</text>
<polygon fill="none" stroke="black" points="64,-173.5 64,-198.5 155,-198.5 155,-173.5 64,-173.5"/>
<text text-anchor="start" x="69" y="-182.3" font-family="Times,serif" font-size="14.00">isInterruptible:</text>
<polygon fill="none" stroke="black" points="155,-173.5 155,-198.5 235,-198.5 235,-173.5 155,-173.5"/>
<text text-anchor="start" x="160" y="-182.3" font-family="Times,serif" font-size="14.00">✅</text>
<polygon fill="none" stroke="black" points="64,-148.5 64,-173.5 155,-173.5 155,-148.5 64,-148.5"/>
<text text-anchor="start" x="86" y="-157.3" font-family="Times,serif" font-size="14.00">interrupted:</text>
<polygon fill="none" stroke="black" points="155,-148.5 155,-173.5 235,-173.5 235,-148.5 155,-148.5"/>
<text text-anchor="start" x="160" y="-157.3" font-family="Times,serif" font-size="14.00">❌</text>
<polygon fill="none" stroke="black" points="64,-123.5 64,-148.5 155,-148.5 155,-123.5 64,-123.5"/>
<text text-anchor="start" x="72" y="-132.3" font-family="Times,serif" font-size="14.00">isInterrupting:</text>
<polygon fill="none" stroke="black" points="155,-123.5 155,-148.5 235,-148.5 235,-123.5 155,-123.5"/>
<text text-anchor="start" x="160" y="-132.3" font-family="Times,serif" font-size="14.00">❌</text>
<polygon fill="none" stroke="black" points="64,-98.5 64,-123.5 155,-123.5 155,-98.5 64,-98.5"/>
<text text-anchor="start" x="142" y="-107.3" font-family="Times,serif" font-size="14.00">t:</text>
<polygon fill="none" stroke="black" points="155,-98.5 155,-123.5 235,-123.5 235,-98.5 155,-98.5"/>
<text text-anchor="start" x="160" y="-107.3" font-family="Times,serif" font-size="14.00">0 ms</text>
</g>
<!-- &#45;main&#45;8123&#45;138274005531541&#45;&gt;&#45;main&#45;8123&#45;138274005578333 -->
<g id="edge3" class="edge">
<title>&#45;main&#45;8123&#45;138274005531541&#45;&gt;&#45;main&#45;8123&#45;138274005578333</title>
<path fill="none" stroke="black" d="M183.11,-328.81C179.87,-315.41 176.53,-301.54 173.25,-287.96"/>
<polygon fill="black" stroke="black" points="176.63,-287.03 170.88,-278.13 169.82,-288.67 176.63,-287.03"/>
</g>
<!-- &#45;main&#45;8123&#45;138274005621958 -->
<g id="node5" class="node">
<title>&#45;main&#45;8123&#45;138274005621958</title>
<polygon fill="#98f5ff" stroke="none" points="269,-248.5 269,-273.5 413,-273.5 413,-248.5 269,-248.5"/>
<polygon fill="none" stroke="black" points="269,-248.5 269,-273.5 413,-273.5 413,-248.5 269,-248.5"/>
<text text-anchor="start" x="328" y="-258.3" font-family="Times,serif" font-weight="bold" font-size="14.00">sync</text>
<polygon fill="none" stroke="black" points="269,-223.5 269,-248.5 360,-248.5 360,-223.5 269,-223.5"/>
<text text-anchor="start" x="324" y="-232.3" font-family="Times,serif" font-size="14.00">label:</text>
<polygon fill="none" stroke="black" points="360,-223.5 360,-248.5 413,-248.5 413,-223.5 360,-223.5"/>
<text text-anchor="start" x="365" y="-232.3" font-family="Times,serif" font-size="14.00">succeed</text>
<polygon fill="none" stroke="black" points="269,-198.5 269,-223.5 360,-223.5 360,-198.5 269,-198.5"/>
<text text-anchor="start" x="323" y="-207.3" font-family="Times,serif" font-size="14.00">stack:</text>
<polygon fill="none" stroke="black" points="360,-198.5 360,-223.5 413,-223.5 413,-198.5 360,-198.5"/>
<text text-anchor="start" x="365" y="-207.3" font-family="Times,serif" font-size="14.00">0</text>
<polygon fill="none" stroke="black" points="269,-173.5 269,-198.5 360,-198.5 360,-173.5 269,-173.5"/>
<text text-anchor="start" x="274" y="-182.3" font-family="Times,serif" font-size="14.00">isInterruptible:</text>
<polygon fill="none" stroke="black" points="360,-173.5 360,-198.5 413,-198.5 413,-173.5 360,-173.5"/>
<text text-anchor="start" x="365" y="-182.3" font-family="Times,serif" font-size="14.00">✅</text>
<polygon fill="none" stroke="black" points="269,-148.5 269,-173.5 360,-173.5 360,-148.5 269,-148.5"/>
<text text-anchor="start" x="291" y="-157.3" font-family="Times,serif" font-size="14.00">interrupted:</text>
<polygon fill="none" stroke="black" points="360,-148.5 360,-173.5 413,-173.5 413,-148.5 360,-148.5"/>
<text text-anchor="start" x="365" y="-157.3" font-family="Times,serif" font-size="14.00">❌</text>
<polygon fill="none" stroke="black" points="269,-123.5 269,-148.5 360,-148.5 360,-123.5 269,-123.5"/>
<text text-anchor="start" x="277" y="-132.3" font-family="Times,serif" font-size="14.00">isInterrupting:</text>
<polygon fill="none" stroke="black" points="360,-123.5 360,-148.5 413,-148.5 413,-123.5 360,-123.5"/>
<text text-anchor="start" x="365" y="-132.3" font-family="Times,serif" font-size="14.00">❌</text>
<polygon fill="none" stroke="black" points="269,-98.5 269,-123.5 360,-123.5 360,-98.5 269,-98.5"/>
<text text-anchor="start" x="347" y="-107.3" font-family="Times,serif" font-size="14.00">t:</text>
<polygon fill="none" stroke="black" points="360,-98.5 360,-123.5 413,-123.5 413,-98.5 360,-98.5"/>
<text text-anchor="start" x="365" y="-107.3" font-family="Times,serif" font-size="14.00">0 ms</text>
</g>
<!-- &#45;main&#45;8123&#45;138274005531541&#45;&gt;&#45;main&#45;8123&#45;138274005621958 -->
<g id="edge4" class="edge">
<title>&#45;main&#45;8123&#45;138274005531541&#45;&gt;&#45;main&#45;8123&#45;138274005621958</title>
<path fill="none" stroke="black" d="M258.17,-328.81C266.25,-315.02 274.62,-300.73 282.81,-286.77"/>
<polygon fill="black" stroke="black" points="285.83,-288.53 287.87,-278.13 279.79,-284.99 285.83,-288.53"/>
<text text-anchor="middle" x="280.5" y="-299.8" font-family="Times,serif" font-size="14.00">λ</text>
</g>
<!-- &#45;main&#45;8123&#45;138274005655500 -->
<g id="node6" class="node">
<title>&#45;main&#45;8123&#45;138274005655500</title>
<polygon fill="pink" stroke="none" points="303,-29 303,-54 379,-54 379,-29 303,-29"/>
<polygon fill="none" stroke="black" points="303,-29 303,-54 379,-54 379,-29 303,-29"/>
<text text-anchor="start" x="332.5" y="-38.8" font-family="Times,serif" font-weight="bold" font-size="14.00">IO</text>
<polygon fill="none" stroke="black" points="303,-4 303,-29 341,-29 341,-4 303,-4"/>
<text text-anchor="start" x="308" y="-12.8" font-family="Times,serif" font-size="14.00">took:</text>
<polygon fill="none" stroke="black" points="341,-4 341,-29 379,-29 379,-4 341,-4"/>
<text text-anchor="start" x="346" y="-12.8" font-family="Times,serif" font-size="14.00">0 ms</text>
</g>
<!-- &#45;main&#45;8123&#45;138274005621958&#45;&gt;&#45;main&#45;8123&#45;138274005655500 -->
<g id="edge5" class="edge">
<title>&#45;main&#45;8123&#45;138274005621958&#45;&gt;&#45;main&#45;8123&#45;138274005655500</title>
<path fill="none" stroke="black" d="M341,-94.6C341,-85.45 341,-76.55 341,-68.42"/>
<polygon fill="black" stroke="black" points="344.5,-68.24 341,-58.24 337.5,-68.24 344.5,-68.24"/>
</g>
</g>
</svg>
