<?xml version="1.0" encoding="UTF-8" standalone="no"?>
<!DOCTYPE svg PUBLIC "-//W3C//DTD SVG 1.1//EN"
 "http://www.w3.org/Graphics/SVG/1.1/DTD/svg11.dtd">
<!-- Generated by graphviz version 6.0.1 (20220911.1526)
 -->
<!-- Title: D Pages: 1 -->
<svg width="318pt" height="457pt"
 viewBox="0.00 0.00 317.50 457.00" xmlns="http://www.w3.org/2000/svg" xmlns:xlink="http://www.w3.org/1999/xlink">
<g id="graph0" class="graph" transform="scale(1 1) rotate(0) translate(4 453)">
<title>D</title>
<polygon fill="white" stroke="none" points="-4,4 -4,-453 313.5,-453 313.5,4 -4,4"/>
<!-- &#45;main&#45;72875&#45;138274111903583 -->
<g id="node1" class="node">
<title>&#45;main&#45;72875&#45;138274111903583</title>
<polygon fill="lightpink" stroke="none" points="68,-420 68,-445 200,-445 200,-420 68,-420"/>
<polygon fill="none" stroke="black" points="68,-420 68,-445 200,-445 200,-420 68,-420"/>
<text text-anchor="start" x="73" y="-429.8" font-family="Times,serif" font-weight="bold" font-size="14.00">provideEnvironment</text>
<polygon fill="none" stroke="black" points="68,-395 68,-420 160,-420 160,-395 68,-395"/>
<text text-anchor="start" x="123" y="-403.8" font-family="Times,serif" font-size="14.00">stack:</text>
<polygon fill="none" stroke="black" points="160,-395 160,-420 200,-420 200,-395 160,-395"/>
<text text-anchor="start" x="165" y="-403.8" font-family="Times,serif" font-size="14.00">0</text>
<polygon fill="none" stroke="black" points="68,-370 68,-395 160,-395 160,-370 68,-370"/>
<text text-anchor="start" x="74" y="-378.8" font-family="Times,serif" font-size="14.00">isInterruptible:</text>
<polygon fill="none" stroke="black" points="160,-370 160,-395 200,-395 200,-370 160,-370"/>
<text text-anchor="start" x="165" y="-378.8" font-family="Times,serif" font-size="14.00">✅</text>
<polygon fill="none" stroke="black" points="68,-345 68,-370 160,-370 160,-345 68,-345"/>
<text text-anchor="start" x="91" y="-353.8" font-family="Times,serif" font-size="14.00">interrupted:</text>
<polygon fill="none" stroke="black" points="160,-345 160,-370 200,-370 200,-345 160,-345"/>
<text text-anchor="start" x="165" y="-353.8" font-family="Times,serif" font-size="14.00">❌</text>
<polygon fill="none" stroke="black" points="68,-320 68,-345 160,-345 160,-320 68,-320"/>
<text text-anchor="start" x="77" y="-328.8" font-family="Times,serif" font-size="14.00">isInterrupting:</text>
<polygon fill="none" stroke="black" points="160,-320 160,-345 200,-345 200,-320 160,-320"/>
<text text-anchor="start" x="165" y="-328.8" font-family="Times,serif" font-size="14.00">❌</text>
<polygon fill="none" stroke="black" points="68,-295 68,-320 160,-320 160,-295 68,-295"/>
<text text-anchor="start" x="147" y="-303.8" font-family="Times,serif" font-size="14.00">t:</text>
<polygon fill="none" stroke="black" points="160,-295 160,-320 200,-320 200,-295 160,-295"/>
<text text-anchor="start" x="165" y="-303.8" font-family="Times,serif" font-size="14.00">0 ms</text>
</g>
<!-- &#45;main&#45;72875&#45;138274111974958 -->
<g id="node2" class="node">
<title>&#45;main&#45;72875&#45;138274111974958</title>
<polygon fill="lightpink" stroke="none" points="8,-150.5 8,-175.5 96,-175.5 96,-150.5 8,-150.5"/>
<polygon fill="none" stroke="black" points="8,-150.5 8,-175.5 96,-175.5 96,-150.5 8,-150.5"/>
<text text-anchor="start" x="13" y="-160.3" font-family="Times,serif" font-weight="bold" font-size="14.00">Environment</text>
</g>
<!-- &#45;main&#45;72875&#45;138274111903583&#45;&gt;&#45;main&#45;72875&#45;138274111974958 -->
<g id="edge1" class="edge">
<title>&#45;main&#45;72875&#45;138274111903583&#45;&gt;&#45;main&#45;72875&#45;138274111974958</title>
<path fill="none" stroke="black" d="M102.65,-290.81C88.58,-255.73 72.91,-216.64 62.77,-191.37"/>
<polygon fill="black" stroke="black" points="65.89,-189.74 58.92,-181.76 59.39,-192.34 65.89,-189.74"/>
</g>
<!-- &#45;main&#45;72875&#45;138274111967666 -->
<g id="node3" class="node">
<title>&#45;main&#45;72875&#45;138274111967666</title>
<polygon fill="lightpink" stroke="none" points="131,-225.5 131,-250.5 302,-250.5 302,-225.5 131,-225.5"/>
<polygon fill="none" stroke="black" points="131,-225.5 131,-250.5 302,-250.5 302,-225.5 131,-225.5"/>
<text text-anchor="start" x="202.5" y="-235.3" font-family="Times,serif" font-weight="bold" font-size="14.00">done</text>
<polygon fill="none" stroke="black" points="131,-200.5 131,-225.5 222,-225.5 222,-200.5 131,-200.5"/>
<text text-anchor="start" x="186" y="-209.3" font-family="Times,serif" font-size="14.00">label:</text>
<polygon fill="none" stroke="black" points="222,-200.5 222,-225.5 302,-225.5 302,-200.5 222,-200.5"/>
<text text-anchor="start" x="227" y="-209.3" font-family="Times,serif" font-size="14.00">succeedNow</text>
<polygon fill="none" stroke="black" points="131,-175.5 131,-200.5 222,-200.5 222,-175.5 131,-175.5"/>
<text text-anchor="start" x="185" y="-184.3" font-family="Times,serif" font-size="14.00">stack:</text>
<polygon fill="none" stroke="black" points="222,-175.5 222,-200.5 302,-200.5 302,-175.5 222,-175.5"/>
<text text-anchor="start" x="227" y="-184.3" font-family="Times,serif" font-size="14.00">0</text>
<polygon fill="none" stroke="black" points="131,-150.5 131,-175.5 222,-175.5 222,-150.5 131,-150.5"/>
<text text-anchor="start" x="136" y="-159.3" font-family="Times,serif" font-size="14.00">isInterruptible:</text>
<polygon fill="none" stroke="black" points="222,-150.5 222,-175.5 302,-175.5 302,-150.5 222,-150.5"/>
<text text-anchor="start" x="227" y="-159.3" font-family="Times,serif" font-size="14.00">✅</text>
<polygon fill="none" stroke="black" points="131,-125.5 131,-150.5 222,-150.5 222,-125.5 131,-125.5"/>
<text text-anchor="start" x="153" y="-134.3" font-family="Times,serif" font-size="14.00">interrupted:</text>
<polygon fill="none" stroke="black" points="222,-125.5 222,-150.5 302,-150.5 302,-125.5 222,-125.5"/>
<text text-anchor="start" x="227" y="-134.3" font-family="Times,serif" font-size="14.00">❌</text>
<polygon fill="none" stroke="black" points="131,-100.5 131,-125.5 222,-125.5 222,-100.5 131,-100.5"/>
<text text-anchor="start" x="139" y="-109.3" font-family="Times,serif" font-size="14.00">isInterrupting:</text>
<polygon fill="none" stroke="black" points="222,-100.5 222,-125.5 302,-125.5 302,-100.5 222,-100.5"/>
<text text-anchor="start" x="227" y="-109.3" font-family="Times,serif" font-size="14.00">❌</text>
<polygon fill="none" stroke="black" points="131,-75.5 131,-100.5 222,-100.5 222,-75.5 131,-75.5"/>
<text text-anchor="start" x="209" y="-84.3" font-family="Times,serif" font-size="14.00">t:</text>
<polygon fill="none" stroke="black" points="222,-75.5 222,-100.5 302,-100.5 302,-75.5 222,-75.5"/>
<text text-anchor="start" x="227" y="-84.3" font-family="Times,serif" font-size="14.00">0 ms</text>
</g>
<!-- &#45;main&#45;72875&#45;138274111903583&#45;&gt;&#45;main&#45;72875&#45;138274111967666 -->
<g id="edge2" class="edge">
<title>&#45;main&#45;72875&#45;138274111903583&#45;&gt;&#45;main&#45;72875&#45;138274111967666</title>
<path fill="none" stroke="black" d="M165.35,-290.81C168.77,-282.28 172.29,-273.52 175.79,-264.77"/>
<polygon fill="black" stroke="black" points="179.12,-265.88 179.59,-255.3 172.62,-263.28 179.12,-265.88"/>
</g>
<!-- &#45;main&#45;72875&#45;138274112012208 -->
<g id="node4" class="node">
<title>&#45;main&#45;72875&#45;138274112012208</title>
<polygon fill="lightpink" stroke="none" points="176,-5 176,-30 256,-30 256,-5 176,-5"/>
<polygon fill="none" stroke="black" points="176,-5 176,-30 256,-30 256,-5 176,-5"/>
<text text-anchor="start" x="181" y="-14.8" font-family="Times,serif" font-weight="bold" font-size="14.00">Exit.success</text>
</g>
<!-- &#45;main&#45;72875&#45;138274111967666&#45;&gt;&#45;main&#45;72875&#45;138274112012208 -->
<g id="edge3" class="edge">
<title>&#45;main&#45;72875&#45;138274111967666&#45;&gt;&#45;main&#45;72875&#45;138274112012208</title>
<path fill="none" stroke="black" d="M216,-71.62C216,-62.5 216,-53.83 216,-46.25"/>
<polygon fill="black" stroke="black" points="219.5,-46 216,-36 212.5,-46 219.5,-46"/>
</g>
</g>
</svg>
