<?xml version="1.0" encoding="UTF-8" standalone="no"?>
<!DOCTYPE svg PUBLIC "-//W3C//DTD SVG 1.1//EN"
 "http://www.w3.org/Graphics/SVG/1.1/DTD/svg11.dtd">
<!-- Generated by graphviz version 6.0.1 (20220911.1526)
 -->
<!-- Title: D Pages: 1 -->
<svg width="316pt" height="888pt"
 viewBox="0.00 0.00 316.00 888.00" xmlns="http://www.w3.org/2000/svg" xmlns:xlink="http://www.w3.org/1999/xlink">
<g id="graph0" class="graph" transform="scale(1 1) rotate(0) translate(4 884)">
<title>D</title>
<polygon fill="white" stroke="none" points="-4,4 -4,-884 312,-884 312,4 -4,4"/>
<!-- &#45;main&#45;18811&#45;138274324640000 -->
<g id="node1" class="node">
<title>&#45;main&#45;18811&#45;138274324640000</title>
<polygon fill="thistle" stroke="none" points="86.5,-850.5 86.5,-875.5 221.5,-875.5 221.5,-850.5 86.5,-850.5"/>
<polygon fill="none" stroke="black" points="86.5,-850.5 86.5,-875.5 221.5,-875.5 221.5,-850.5 86.5,-850.5"/>
<text text-anchor="start" x="91.5" y="-860.3" font-family="Times,serif" font-weight="bold" font-size="14.00">onSuccessAndFailure</text>
<polygon fill="none" stroke="black" points="86.5,-825.5 86.5,-850.5 178.5,-850.5 178.5,-825.5 86.5,-825.5"/>
<text text-anchor="start" x="142.5" y="-834.3" font-family="Times,serif" font-size="14.00">label:</text>
<polygon fill="none" stroke="black" points="178.5,-825.5 178.5,-850.5 221.5,-850.5 221.5,-825.5 178.5,-825.5"/>
<text text-anchor="start" x="183.5" y="-834.3" font-family="Times,serif" font-size="14.00">foldZ</text>
<polygon fill="none" stroke="black" points="86.5,-800.5 86.5,-825.5 178.5,-825.5 178.5,-800.5 86.5,-800.5"/>
<text text-anchor="start" x="141.5" y="-809.3" font-family="Times,serif" font-size="14.00">stack:</text>
<polygon fill="none" stroke="black" points="178.5,-800.5 178.5,-825.5 221.5,-825.5 221.5,-800.5 178.5,-800.5"/>
<text text-anchor="start" x="183.5" y="-809.3" font-family="Times,serif" font-size="14.00">0</text>
<polygon fill="none" stroke="black" points="86.5,-775.5 86.5,-800.5 178.5,-800.5 178.5,-775.5 86.5,-775.5"/>
<text text-anchor="start" x="92.5" y="-784.3" font-family="Times,serif" font-size="14.00">isInterruptible:</text>
<polygon fill="none" stroke="black" points="178.5,-775.5 178.5,-800.5 221.5,-800.5 221.5,-775.5 178.5,-775.5"/>
<text text-anchor="start" x="183.5" y="-784.3" font-family="Times,serif" font-size="14.00">✅</text>
<polygon fill="none" stroke="black" points="86.5,-750.5 86.5,-775.5 178.5,-775.5 178.5,-750.5 86.5,-750.5"/>
<text text-anchor="start" x="109.5" y="-759.3" font-family="Times,serif" font-size="14.00">interrupted:</text>
<polygon fill="none" stroke="black" points="178.5,-750.5 178.5,-775.5 221.5,-775.5 221.5,-750.5 178.5,-750.5"/>
<text text-anchor="start" x="183.5" y="-759.3" font-family="Times,serif" font-size="14.00">❌</text>
<polygon fill="none" stroke="black" points="86.5,-725.5 86.5,-750.5 178.5,-750.5 178.5,-725.5 86.5,-725.5"/>
<text text-anchor="start" x="95.5" y="-734.3" font-family="Times,serif" font-size="14.00">isInterrupting:</text>
<polygon fill="none" stroke="black" points="178.5,-725.5 178.5,-750.5 221.5,-750.5 221.5,-725.5 178.5,-725.5"/>
<text text-anchor="start" x="183.5" y="-734.3" font-family="Times,serif" font-size="14.00">❌</text>
<polygon fill="none" stroke="black" points="86.5,-700.5 86.5,-725.5 178.5,-725.5 178.5,-700.5 86.5,-700.5"/>
<text text-anchor="start" x="165.5" y="-709.3" font-family="Times,serif" font-size="14.00">t:</text>
<polygon fill="none" stroke="black" points="178.5,-700.5 178.5,-725.5 221.5,-725.5 221.5,-700.5 178.5,-700.5"/>
<text text-anchor="start" x="183.5" y="-709.3" font-family="Times,serif" font-size="14.00">0 ms</text>
</g>
<!-- &#45;main&#45;18811&#45;138274324709916 -->
<g id="node2" class="node">
<title>&#45;main&#45;18811&#45;138274324709916</title>
<polygon fill="thistle" stroke="none" points="8.5,-616.5 8.5,-641.5 137.5,-641.5 137.5,-616.5 8.5,-616.5"/>
<polygon fill="none" stroke="black" points="8.5,-616.5 8.5,-641.5 137.5,-641.5 137.5,-616.5 8.5,-616.5"/>
<text text-anchor="start" x="44" y="-626.3" font-family="Times,serif" font-weight="bold" font-size="14.00">onSuccess</text>
<polygon fill="none" stroke="black" points="8.5,-591.5 8.5,-616.5 99.5,-616.5 99.5,-591.5 8.5,-591.5"/>
<text text-anchor="start" x="63.5" y="-600.3" font-family="Times,serif" font-size="14.00">label:</text>
<polygon fill="none" stroke="black" points="99.5,-591.5 99.5,-616.5 137.5,-616.5 137.5,-591.5 99.5,-591.5"/>
<text text-anchor="start" x="104.5" y="-600.3" font-family="Times,serif" font-size="14.00">map</text>
<polygon fill="none" stroke="black" points="8.5,-566.5 8.5,-591.5 99.5,-591.5 99.5,-566.5 8.5,-566.5"/>
<text text-anchor="start" x="62.5" y="-575.3" font-family="Times,serif" font-size="14.00">stack:</text>
<polygon fill="none" stroke="black" points="99.5,-566.5 99.5,-591.5 137.5,-591.5 137.5,-566.5 99.5,-566.5"/>
<text text-anchor="start" x="104.5" y="-575.3" font-family="Times,serif" font-size="14.00">1</text>
<polygon fill="none" stroke="black" points="8.5,-541.5 8.5,-566.5 99.5,-566.5 99.5,-541.5 8.5,-541.5"/>
<text text-anchor="start" x="13.5" y="-550.3" font-family="Times,serif" font-size="14.00">isInterruptible:</text>
<polygon fill="none" stroke="black" points="99.5,-541.5 99.5,-566.5 137.5,-566.5 137.5,-541.5 99.5,-541.5"/>
<text text-anchor="start" x="104.5" y="-550.3" font-family="Times,serif" font-size="14.00">✅</text>
<polygon fill="none" stroke="black" points="8.5,-516.5 8.5,-541.5 99.5,-541.5 99.5,-516.5 8.5,-516.5"/>
<text text-anchor="start" x="30.5" y="-525.3" font-family="Times,serif" font-size="14.00">interrupted:</text>
<polygon fill="none" stroke="black" points="99.5,-516.5 99.5,-541.5 137.5,-541.5 137.5,-516.5 99.5,-516.5"/>
<text text-anchor="start" x="104.5" y="-525.3" font-family="Times,serif" font-size="14.00">❌</text>
<polygon fill="none" stroke="black" points="8.5,-491.5 8.5,-516.5 99.5,-516.5 99.5,-491.5 8.5,-491.5"/>
<text text-anchor="start" x="16.5" y="-500.3" font-family="Times,serif" font-size="14.00">isInterrupting:</text>
<polygon fill="none" stroke="black" points="99.5,-491.5 99.5,-516.5 137.5,-516.5 137.5,-491.5 99.5,-491.5"/>
<text text-anchor="start" x="104.5" y="-500.3" font-family="Times,serif" font-size="14.00">❌</text>
<polygon fill="none" stroke="black" points="8.5,-466.5 8.5,-491.5 99.5,-491.5 99.5,-466.5 8.5,-466.5"/>
<text text-anchor="start" x="86.5" y="-475.3" font-family="Times,serif" font-size="14.00">t:</text>
<polygon fill="none" stroke="black" points="99.5,-466.5 99.5,-491.5 137.5,-491.5 137.5,-466.5 99.5,-466.5"/>
<text text-anchor="start" x="104.5" y="-475.3" font-family="Times,serif" font-size="14.00">0 ms</text>
</g>
<!-- &#45;main&#45;18811&#45;138274324640000&#45;&gt;&#45;main&#45;18811&#45;138274324709916 -->
<g id="edge1" class="edge">
<title>&#45;main&#45;18811&#45;138274324640000&#45;&gt;&#45;main&#45;18811&#45;138274324709916</title>
<path fill="none" stroke="black" d="M121.84,-696.81C117.16,-683.41 112.32,-669.54 107.57,-655.96"/>
<polygon fill="black" stroke="black" points="110.74,-654.42 104.14,-646.13 104.13,-656.73 110.74,-654.42"/>
</g>
<!-- &#45;main&#45;18811&#45;138274324792916 -->
<g id="node6" class="node">
<title>&#45;main&#45;18811&#45;138274324792916</title>
<polygon fill="thistle" stroke="none" points="171.5,-604.5 171.5,-629.5 300.5,-629.5 300.5,-604.5 171.5,-604.5"/>
<polygon fill="none" stroke="black" points="171.5,-604.5 171.5,-629.5 300.5,-629.5 300.5,-604.5 171.5,-604.5"/>
<text text-anchor="start" x="222" y="-614.3" font-family="Times,serif" font-weight="bold" font-size="14.00">done</text>
<polygon fill="none" stroke="black" points="171.5,-579.5 171.5,-604.5 262.5,-604.5 262.5,-579.5 171.5,-579.5"/>
<text text-anchor="start" x="225.5" y="-588.3" font-family="Times,serif" font-size="14.00">stack:</text>
<polygon fill="none" stroke="black" points="262.5,-579.5 262.5,-604.5 300.5,-604.5 300.5,-579.5 262.5,-579.5"/>
<text text-anchor="start" x="267.5" y="-588.3" font-family="Times,serif" font-size="14.00">0</text>
<polygon fill="none" stroke="black" points="171.5,-554.5 171.5,-579.5 262.5,-579.5 262.5,-554.5 171.5,-554.5"/>
<text text-anchor="start" x="176.5" y="-563.3" font-family="Times,serif" font-size="14.00">isInterruptible:</text>
<polygon fill="none" stroke="black" points="262.5,-554.5 262.5,-579.5 300.5,-579.5 300.5,-554.5 262.5,-554.5"/>
<text text-anchor="start" x="267.5" y="-563.3" font-family="Times,serif" font-size="14.00">✅</text>
<polygon fill="none" stroke="black" points="171.5,-529.5 171.5,-554.5 262.5,-554.5 262.5,-529.5 171.5,-529.5"/>
<text text-anchor="start" x="193.5" y="-538.3" font-family="Times,serif" font-size="14.00">interrupted:</text>
<polygon fill="none" stroke="black" points="262.5,-529.5 262.5,-554.5 300.5,-554.5 300.5,-529.5 262.5,-529.5"/>
<text text-anchor="start" x="267.5" y="-538.3" font-family="Times,serif" font-size="14.00">❌</text>
<polygon fill="none" stroke="black" points="171.5,-504.5 171.5,-529.5 262.5,-529.5 262.5,-504.5 171.5,-504.5"/>
<text text-anchor="start" x="179.5" y="-513.3" font-family="Times,serif" font-size="14.00">isInterrupting:</text>
<polygon fill="none" stroke="black" points="262.5,-504.5 262.5,-529.5 300.5,-529.5 300.5,-504.5 262.5,-504.5"/>
<text text-anchor="start" x="267.5" y="-513.3" font-family="Times,serif" font-size="14.00">❌</text>
<polygon fill="none" stroke="black" points="171.5,-479.5 171.5,-504.5 262.5,-504.5 262.5,-479.5 171.5,-479.5"/>
<text text-anchor="start" x="249.5" y="-488.3" font-family="Times,serif" font-size="14.00">t:</text>
<polygon fill="none" stroke="black" points="262.5,-479.5 262.5,-504.5 300.5,-504.5 300.5,-479.5 262.5,-479.5"/>
<text text-anchor="start" x="267.5" y="-488.3" font-family="Times,serif" font-size="14.00">0 ms</text>
</g>
<!-- &#45;main&#45;18811&#45;138274324640000&#45;&gt;&#45;main&#45;18811&#45;138274324792916 -->
<g id="edge5" class="edge">
<title>&#45;main&#45;18811&#45;138274324640000&#45;&gt;&#45;main&#45;18811&#45;138274324792916</title>
<path fill="none" stroke="black" d="M185.56,-696.81C191.77,-679.22 198.28,-660.82 204.46,-643.33"/>
<polygon fill="black" stroke="black" points="207.82,-644.31 207.86,-633.71 201.22,-641.98 207.82,-644.31"/>
<text text-anchor="middle" x="228" y="-667.8" font-family="Times,serif" font-size="14.00">λ (recover)</text>
</g>
<!-- &#45;main&#45;18811&#45;138274324737375 -->
<g id="node3" class="node">
<title>&#45;main&#45;18811&#45;138274324737375</title>
<polygon fill="thistle" stroke="none" points="8.5,-397 8.5,-422 137.5,-422 137.5,-397 8.5,-397"/>
<polygon fill="none" stroke="black" points="8.5,-397 8.5,-422 137.5,-422 137.5,-397 8.5,-397"/>
<text text-anchor="start" x="44" y="-406.8" font-family="Times,serif" font-weight="bold" font-size="14.00">widenEnv</text>
<polygon fill="none" stroke="black" points="8.5,-372 8.5,-397 99.5,-397 99.5,-372 8.5,-372"/>
<text text-anchor="start" x="62.5" y="-380.8" font-family="Times,serif" font-size="14.00">stack:</text>
<polygon fill="none" stroke="black" points="99.5,-372 99.5,-397 137.5,-397 137.5,-372 99.5,-372"/>
<text text-anchor="start" x="104.5" y="-380.8" font-family="Times,serif" font-size="14.00">2</text>
<polygon fill="none" stroke="black" points="8.5,-347 8.5,-372 99.5,-372 99.5,-347 8.5,-347"/>
<text text-anchor="start" x="13.5" y="-355.8" font-family="Times,serif" font-size="14.00">isInterruptible:</text>
<polygon fill="none" stroke="black" points="99.5,-347 99.5,-372 137.5,-372 137.5,-347 99.5,-347"/>
<text text-anchor="start" x="104.5" y="-355.8" font-family="Times,serif" font-size="14.00">✅</text>
<polygon fill="none" stroke="black" points="8.5,-322 8.5,-347 99.5,-347 99.5,-322 8.5,-322"/>
<text text-anchor="start" x="30.5" y="-330.8" font-family="Times,serif" font-size="14.00">interrupted:</text>
<polygon fill="none" stroke="black" points="99.5,-322 99.5,-347 137.5,-347 137.5,-322 99.5,-322"/>
<text text-anchor="start" x="104.5" y="-330.8" font-family="Times,serif" font-size="14.00">❌</text>
<polygon fill="none" stroke="black" points="8.5,-297 8.5,-322 99.5,-322 99.5,-297 8.5,-297"/>
<text text-anchor="start" x="16.5" y="-305.8" font-family="Times,serif" font-size="14.00">isInterrupting:</text>
<polygon fill="none" stroke="black" points="99.5,-297 99.5,-322 137.5,-322 137.5,-297 99.5,-297"/>
<text text-anchor="start" x="104.5" y="-305.8" font-family="Times,serif" font-size="14.00">❌</text>
<polygon fill="none" stroke="black" points="8.5,-272 8.5,-297 99.5,-297 99.5,-272 8.5,-272"/>
<text text-anchor="start" x="86.5" y="-280.8" font-family="Times,serif" font-size="14.00">t:</text>
<polygon fill="none" stroke="black" points="99.5,-272 99.5,-297 137.5,-297 137.5,-272 99.5,-272"/>
<text text-anchor="start" x="104.5" y="-280.8" font-family="Times,serif" font-size="14.00">0 ms</text>
</g>
<!-- &#45;main&#45;18811&#45;138274324709916&#45;&gt;&#45;main&#45;18811&#45;138274324737375 -->
<g id="edge2" class="edge">
<title>&#45;main&#45;18811&#45;138274324709916&#45;&gt;&#45;main&#45;18811&#45;138274324737375</title>
<path fill="none" stroke="black" d="M72.5,-462.77C72.5,-453.96 72.5,-445.03 72.5,-436.24"/>
<polygon fill="black" stroke="black" points="76,-436.01 72.5,-426.01 69,-436.01 76,-436.01"/>
</g>
<!-- &#45;main&#45;18811&#45;138274324757625 -->
<g id="node4" class="node">
<title>&#45;main&#45;18811&#45;138274324757625</title>
<polygon fill="thistle" stroke="none" points="8.5,-202 8.5,-227 137.5,-227 137.5,-202 8.5,-202"/>
<polygon fill="none" stroke="black" points="8.5,-202 8.5,-227 137.5,-227 137.5,-202 8.5,-202"/>
<text text-anchor="start" x="59" y="-211.8" font-family="Times,serif" font-weight="bold" font-size="14.00">done</text>
<polygon fill="none" stroke="black" points="8.5,-177 8.5,-202 99.5,-202 99.5,-177 8.5,-177"/>
<text text-anchor="start" x="62.5" y="-185.8" font-family="Times,serif" font-size="14.00">stack:</text>
<polygon fill="none" stroke="black" points="99.5,-177 99.5,-202 137.5,-202 137.5,-177 99.5,-177"/>
<text text-anchor="start" x="104.5" y="-185.8" font-family="Times,serif" font-size="14.00">2</text>
<polygon fill="none" stroke="black" points="8.5,-152 8.5,-177 99.5,-177 99.5,-152 8.5,-152"/>
<text text-anchor="start" x="13.5" y="-160.8" font-family="Times,serif" font-size="14.00">isInterruptible:</text>
<polygon fill="none" stroke="black" points="99.5,-152 99.5,-177 137.5,-177 137.5,-152 99.5,-152"/>
<text text-anchor="start" x="104.5" y="-160.8" font-family="Times,serif" font-size="14.00">✅</text>
<polygon fill="none" stroke="black" points="8.5,-127 8.5,-152 99.5,-152 99.5,-127 8.5,-127"/>
<text text-anchor="start" x="30.5" y="-135.8" font-family="Times,serif" font-size="14.00">interrupted:</text>
<polygon fill="none" stroke="black" points="99.5,-127 99.5,-152 137.5,-152 137.5,-127 99.5,-127"/>
<text text-anchor="start" x="104.5" y="-135.8" font-family="Times,serif" font-size="14.00">❌</text>
<polygon fill="none" stroke="black" points="8.5,-102 8.5,-127 99.5,-127 99.5,-102 8.5,-102"/>
<text text-anchor="start" x="16.5" y="-110.8" font-family="Times,serif" font-size="14.00">isInterrupting:</text>
<polygon fill="none" stroke="black" points="99.5,-102 99.5,-127 137.5,-127 137.5,-102 99.5,-102"/>
<text text-anchor="start" x="104.5" y="-110.8" font-family="Times,serif" font-size="14.00">❌</text>
<polygon fill="none" stroke="black" points="8.5,-77 8.5,-102 99.5,-102 99.5,-77 8.5,-77"/>
<text text-anchor="start" x="86.5" y="-85.8" font-family="Times,serif" font-size="14.00">t:</text>
<polygon fill="none" stroke="black" points="99.5,-77 99.5,-102 137.5,-102 137.5,-77 99.5,-77"/>
<text text-anchor="start" x="104.5" y="-85.8" font-family="Times,serif" font-size="14.00">0 ms</text>
</g>
<!-- &#45;main&#45;18811&#45;138274324737375&#45;&gt;&#45;main&#45;18811&#45;138274324757625 -->
<g id="edge3" class="edge">
<title>&#45;main&#45;18811&#45;138274324737375&#45;&gt;&#45;main&#45;18811&#45;138274324757625</title>
<path fill="none" stroke="black" d="M72.5,-267.78C72.5,-258.97 72.5,-249.95 72.5,-241.03"/>
<polygon fill="black" stroke="black" points="76,-241.02 72.5,-231.02 69,-241.02 76,-241.02"/>
</g>
<!-- &#45;main&#45;18811&#45;138274324774041 -->
<g id="node5" class="node">
<title>&#45;main&#45;18811&#45;138274324774041</title>
<polygon fill="thistle" stroke="none" points="33.5,-5 33.5,-30 111.5,-30 111.5,-5 33.5,-5"/>
<polygon fill="none" stroke="black" points="33.5,-5 33.5,-30 111.5,-30 111.5,-5 33.5,-5"/>
<text text-anchor="start" x="39" y="-14.8" font-family="Times,serif" font-weight="bold" font-size="14.00">Exit.failure</text>
</g>
<!-- &#45;main&#45;18811&#45;138274324757625&#45;&gt;&#45;main&#45;18811&#45;138274324774041 -->
<g id="edge4" class="edge">
<title>&#45;main&#45;18811&#45;138274324757625&#45;&gt;&#45;main&#45;18811&#45;138274324774041</title>
<path fill="none" stroke="black" d="M72.5,-72.69C72.5,-63.22 72.5,-54.11 72.5,-46.16"/>
<polygon fill="black" stroke="black" points="76,-46.12 72.5,-36.12 69,-46.12 76,-46.12"/>
</g>
<!-- &#45;main&#45;18811&#45;138274324805708 -->
<g id="node7" class="node">
<title>&#45;main&#45;18811&#45;138274324805708</title>
<polygon fill="thistle" stroke="none" points="196.5,-334 196.5,-359 274.5,-359 274.5,-334 196.5,-334"/>
<polygon fill="none" stroke="black" points="196.5,-334 196.5,-359 274.5,-359 274.5,-334 196.5,-334"/>
<text text-anchor="start" x="202" y="-343.8" font-family="Times,serif" font-weight="bold" font-size="14.00">Exit.failure</text>
</g>
<!-- &#45;main&#45;18811&#45;138274324792916&#45;&gt;&#45;main&#45;18811&#45;138274324805708 -->
<g id="edge6" class="edge">
<title>&#45;main&#45;18811&#45;138274324792916&#45;&gt;&#45;main&#45;18811&#45;138274324805708</title>
<path fill="none" stroke="black" d="M235.5,-475.22C235.5,-440.09 235.5,-400.9 235.5,-375.43"/>
<polygon fill="black" stroke="black" points="239,-375.4 235.5,-365.4 232,-375.4 239,-375.4"/>
</g>
</g>
</svg>
