<?xml version="1.0" encoding="UTF-8" standalone="no"?>
<!DOCTYPE svg PUBLIC "-//W3C//DTD SVG 1.1//EN"
 "http://www.w3.org/Graphics/SVG/1.1/DTD/svg11.dtd">
<!-- Generated by graphviz version 6.0.1 (20220911.1526)
 -->
<!-- Title: D Pages: 1 -->
<svg width="708pt" height="1200pt"
 viewBox="0.00 0.00 708.00 1200.00" xmlns="http://www.w3.org/2000/svg" xmlns:xlink="http://www.w3.org/1999/xlink">
<g id="graph0" class="graph" transform="scale(1 1) rotate(0) translate(4 1196)">
<title>D</title>
<polygon fill="white" stroke="none" points="-4,4 -4,-1196 704,-1196 704,4 -4,4"/>
<!-- &#45;main&#45;16983&#45;138267672412166 -->
<g id="node1" class="node">
<title>&#45;main&#45;16983&#45;138267672412166</title>
<polygon fill="#c6e2ff" stroke="none" points="449.5,-1162.5 449.5,-1187.5 578.5,-1187.5 578.5,-1162.5 449.5,-1162.5"/>
<polygon fill="none" stroke="black" points="449.5,-1162.5 449.5,-1187.5 578.5,-1187.5 578.5,-1162.5 449.5,-1162.5"/>
<text text-anchor="start" x="485" y="-1172.3" font-family="Times,serif" font-weight="bold" font-size="14.00">onSuccess</text>
<polygon fill="none" stroke="black" points="449.5,-1137.5 449.5,-1162.5 540.5,-1162.5 540.5,-1137.5 449.5,-1137.5"/>
<text text-anchor="start" x="504.5" y="-1146.3" font-family="Times,serif" font-size="14.00">label:</text>
<polygon fill="none" stroke="black" points="540.5,-1137.5 540.5,-1162.5 578.5,-1162.5 578.5,-1137.5 540.5,-1137.5"/>
<text text-anchor="start" x="545.5" y="-1146.3" font-family="Times,serif" font-size="14.00">map</text>
<polygon fill="none" stroke="black" points="449.5,-1112.5 449.5,-1137.5 540.5,-1137.5 540.5,-1112.5 449.5,-1112.5"/>
<text text-anchor="start" x="503.5" y="-1121.3" font-family="Times,serif" font-size="14.00">stack:</text>
<polygon fill="none" stroke="black" points="540.5,-1112.5 540.5,-1137.5 578.5,-1137.5 578.5,-1112.5 540.5,-1112.5"/>
<text text-anchor="start" x="545.5" y="-1121.3" font-family="Times,serif" font-size="14.00">0</text>
<polygon fill="none" stroke="black" points="449.5,-1087.5 449.5,-1112.5 540.5,-1112.5 540.5,-1087.5 449.5,-1087.5"/>
<text text-anchor="start" x="454.5" y="-1096.3" font-family="Times,serif" font-size="14.00">isInterruptible:</text>
<polygon fill="none" stroke="black" points="540.5,-1087.5 540.5,-1112.5 578.5,-1112.5 578.5,-1087.5 540.5,-1087.5"/>
<text text-anchor="start" x="545.5" y="-1096.3" font-family="Times,serif" font-size="14.00">✅</text>
<polygon fill="none" stroke="black" points="449.5,-1062.5 449.5,-1087.5 540.5,-1087.5 540.5,-1062.5 449.5,-1062.5"/>
<text text-anchor="start" x="471.5" y="-1071.3" font-family="Times,serif" font-size="14.00">interrupted:</text>
<polygon fill="none" stroke="black" points="540.5,-1062.5 540.5,-1087.5 578.5,-1087.5 578.5,-1062.5 540.5,-1062.5"/>
<text text-anchor="start" x="545.5" y="-1071.3" font-family="Times,serif" font-size="14.00">❌</text>
<polygon fill="none" stroke="black" points="449.5,-1037.5 449.5,-1062.5 540.5,-1062.5 540.5,-1037.5 449.5,-1037.5"/>
<text text-anchor="start" x="457.5" y="-1046.3" font-family="Times,serif" font-size="14.00">isInterrupting:</text>
<polygon fill="none" stroke="black" points="540.5,-1037.5 540.5,-1062.5 578.5,-1062.5 578.5,-1037.5 540.5,-1037.5"/>
<text text-anchor="start" x="545.5" y="-1046.3" font-family="Times,serif" font-size="14.00">❌</text>
<polygon fill="none" stroke="black" points="449.5,-1012.5 449.5,-1037.5 540.5,-1037.5 540.5,-1012.5 449.5,-1012.5"/>
<text text-anchor="start" x="527.5" y="-1021.3" font-family="Times,serif" font-size="14.00">t:</text>
<polygon fill="none" stroke="black" points="540.5,-1012.5 540.5,-1037.5 578.5,-1037.5 578.5,-1012.5 540.5,-1012.5"/>
<text text-anchor="start" x="545.5" y="-1021.3" font-family="Times,serif" font-size="14.00">0 ms</text>
</g>
<!-- &#45;main&#45;16983&#45;138267672439375 -->
<g id="node2" class="node">
<title>&#45;main&#45;16983&#45;138267672439375</title>
<polygon fill="#c6e2ff" stroke="none" points="358.5,-928.5 358.5,-953.5 487.5,-953.5 487.5,-928.5 358.5,-928.5"/>
<polygon fill="none" stroke="black" points="358.5,-928.5 358.5,-953.5 487.5,-953.5 487.5,-928.5 358.5,-928.5"/>
<text text-anchor="start" x="394" y="-938.3" font-family="Times,serif" font-weight="bold" font-size="14.00">onSuccess</text>
<polygon fill="none" stroke="black" points="358.5,-903.5 358.5,-928.5 449.5,-928.5 449.5,-903.5 358.5,-903.5"/>
<text text-anchor="start" x="413.5" y="-912.3" font-family="Times,serif" font-size="14.00">label:</text>
<polygon fill="none" stroke="black" points="449.5,-903.5 449.5,-928.5 487.5,-928.5 487.5,-903.5 449.5,-903.5"/>
<text text-anchor="start" x="454.5" y="-912.3" font-family="Times,serif" font-size="14.00">map</text>
<polygon fill="none" stroke="black" points="358.5,-878.5 358.5,-903.5 449.5,-903.5 449.5,-878.5 358.5,-878.5"/>
<text text-anchor="start" x="412.5" y="-887.3" font-family="Times,serif" font-size="14.00">stack:</text>
<polygon fill="none" stroke="black" points="449.5,-878.5 449.5,-903.5 487.5,-903.5 487.5,-878.5 449.5,-878.5"/>
<text text-anchor="start" x="454.5" y="-887.3" font-family="Times,serif" font-size="14.00">1</text>
<polygon fill="none" stroke="black" points="358.5,-853.5 358.5,-878.5 449.5,-878.5 449.5,-853.5 358.5,-853.5"/>
<text text-anchor="start" x="363.5" y="-862.3" font-family="Times,serif" font-size="14.00">isInterruptible:</text>
<polygon fill="none" stroke="black" points="449.5,-853.5 449.5,-878.5 487.5,-878.5 487.5,-853.5 449.5,-853.5"/>
<text text-anchor="start" x="454.5" y="-862.3" font-family="Times,serif" font-size="14.00">✅</text>
<polygon fill="none" stroke="black" points="358.5,-828.5 358.5,-853.5 449.5,-853.5 449.5,-828.5 358.5,-828.5"/>
<text text-anchor="start" x="380.5" y="-837.3" font-family="Times,serif" font-size="14.00">interrupted:</text>
<polygon fill="none" stroke="black" points="449.5,-828.5 449.5,-853.5 487.5,-853.5 487.5,-828.5 449.5,-828.5"/>
<text text-anchor="start" x="454.5" y="-837.3" font-family="Times,serif" font-size="14.00">❌</text>
<polygon fill="none" stroke="black" points="358.5,-803.5 358.5,-828.5 449.5,-828.5 449.5,-803.5 358.5,-803.5"/>
<text text-anchor="start" x="366.5" y="-812.3" font-family="Times,serif" font-size="14.00">isInterrupting:</text>
<polygon fill="none" stroke="black" points="449.5,-803.5 449.5,-828.5 487.5,-828.5 487.5,-803.5 449.5,-803.5"/>
<text text-anchor="start" x="454.5" y="-812.3" font-family="Times,serif" font-size="14.00">❌</text>
<polygon fill="none" stroke="black" points="358.5,-778.5 358.5,-803.5 449.5,-803.5 449.5,-778.5 358.5,-778.5"/>
<text text-anchor="start" x="436.5" y="-787.3" font-family="Times,serif" font-size="14.00">t:</text>
<polygon fill="none" stroke="black" points="449.5,-778.5 449.5,-803.5 487.5,-803.5 487.5,-778.5 449.5,-778.5"/>
<text text-anchor="start" x="454.5" y="-787.3" font-family="Times,serif" font-size="14.00">0 ms</text>
</g>
<!-- &#45;main&#45;16983&#45;138267672412166&#45;&gt;&#45;main&#45;16983&#45;138267672439375 -->
<g id="edge1" class="edge">
<title>&#45;main&#45;16983&#45;138267672412166&#45;&gt;&#45;main&#45;16983&#45;138267672439375</title>
<path fill="none" stroke="black" d="M477.93,-1008.81C472.62,-995.28 467.13,-981.27 461.75,-967.56"/>
<polygon fill="black" stroke="black" points="464.96,-966.16 458.05,-958.13 458.44,-968.72 464.96,-966.16"/>
</g>
<!-- &#45;main&#45;16983&#45;138267672591916 -->
<g id="node13" class="node">
<title>&#45;main&#45;16983&#45;138267672591916</title>
<polygon fill="#c6e2ff" stroke="none" points="521.5,-928.5 521.5,-953.5 692.5,-953.5 692.5,-928.5 521.5,-928.5"/>
<polygon fill="none" stroke="black" points="521.5,-928.5 521.5,-953.5 692.5,-953.5 692.5,-928.5 521.5,-928.5"/>
<text text-anchor="start" x="593" y="-938.3" font-family="Times,serif" font-weight="bold" font-size="14.00">done</text>
<polygon fill="none" stroke="black" points="521.5,-903.5 521.5,-928.5 612.5,-928.5 612.5,-903.5 521.5,-903.5"/>
<text text-anchor="start" x="576.5" y="-912.3" font-family="Times,serif" font-size="14.00">label:</text>
<polygon fill="none" stroke="black" points="612.5,-903.5 612.5,-928.5 692.5,-928.5 692.5,-903.5 612.5,-903.5"/>
<text text-anchor="start" x="617.5" y="-912.3" font-family="Times,serif" font-size="14.00">succeedNow</text>
<polygon fill="none" stroke="black" points="521.5,-878.5 521.5,-903.5 612.5,-903.5 612.5,-878.5 521.5,-878.5"/>
<text text-anchor="start" x="575.5" y="-887.3" font-family="Times,serif" font-size="14.00">stack:</text>
<polygon fill="none" stroke="black" points="612.5,-878.5 612.5,-903.5 692.5,-903.5 692.5,-878.5 612.5,-878.5"/>
<text text-anchor="start" x="617.5" y="-887.3" font-family="Times,serif" font-size="14.00">0</text>
<polygon fill="none" stroke="black" points="521.5,-853.5 521.5,-878.5 612.5,-878.5 612.5,-853.5 521.5,-853.5"/>
<text text-anchor="start" x="526.5" y="-862.3" font-family="Times,serif" font-size="14.00">isInterruptible:</text>
<polygon fill="none" stroke="black" points="612.5,-853.5 612.5,-878.5 692.5,-878.5 692.5,-853.5 612.5,-853.5"/>
<text text-anchor="start" x="617.5" y="-862.3" font-family="Times,serif" font-size="14.00">✅</text>
<polygon fill="none" stroke="black" points="521.5,-828.5 521.5,-853.5 612.5,-853.5 612.5,-828.5 521.5,-828.5"/>
<text text-anchor="start" x="543.5" y="-837.3" font-family="Times,serif" font-size="14.00">interrupted:</text>
<polygon fill="none" stroke="black" points="612.5,-828.5 612.5,-853.5 692.5,-853.5 692.5,-828.5 612.5,-828.5"/>
<text text-anchor="start" x="617.5" y="-837.3" font-family="Times,serif" font-size="14.00">❌</text>
<polygon fill="none" stroke="black" points="521.5,-803.5 521.5,-828.5 612.5,-828.5 612.5,-803.5 521.5,-803.5"/>
<text text-anchor="start" x="529.5" y="-812.3" font-family="Times,serif" font-size="14.00">isInterrupting:</text>
<polygon fill="none" stroke="black" points="612.5,-803.5 612.5,-828.5 692.5,-828.5 692.5,-803.5 612.5,-803.5"/>
<text text-anchor="start" x="617.5" y="-812.3" font-family="Times,serif" font-size="14.00">❌</text>
<polygon fill="none" stroke="black" points="521.5,-778.5 521.5,-803.5 612.5,-803.5 612.5,-778.5 521.5,-778.5"/>
<text text-anchor="start" x="599.5" y="-787.3" font-family="Times,serif" font-size="14.00">t:</text>
<polygon fill="none" stroke="black" points="612.5,-778.5 612.5,-803.5 692.5,-803.5 692.5,-778.5 612.5,-778.5"/>
<text text-anchor="start" x="617.5" y="-787.3" font-family="Times,serif" font-size="14.00">0 ms</text>
</g>
<!-- &#45;main&#45;16983&#45;138267672412166&#45;&gt;&#45;main&#45;16983&#45;138267672591916 -->
<g id="edge12" class="edge">
<title>&#45;main&#45;16983&#45;138267672412166&#45;&gt;&#45;main&#45;16983&#45;138267672591916</title>
<path fill="none" stroke="black" d="M549.86,-1008.81C555.28,-995.28 560.89,-981.27 566.39,-967.56"/>
<polygon fill="black" stroke="black" points="569.7,-968.72 570.17,-958.13 563.2,-966.11 569.7,-968.72"/>
<text text-anchor="middle" x="567" y="-979.8" font-family="Times,serif" font-size="14.00">λ</text>
</g>
<!-- &#45;main&#45;16983&#45;138267672454208 -->
<g id="node3" class="node">
<title>&#45;main&#45;16983&#45;138267672454208</title>
<polygon fill="#c6e2ff" stroke="none" points="154.5,-694.5 154.5,-719.5 321.5,-719.5 321.5,-694.5 154.5,-694.5"/>
<polygon fill="none" stroke="black" points="154.5,-694.5 154.5,-719.5 321.5,-719.5 321.5,-694.5 154.5,-694.5"/>
<text text-anchor="start" x="209" y="-704.3" font-family="Times,serif" font-weight="bold" font-size="14.00">onSuccess</text>
<polygon fill="none" stroke="black" points="154.5,-669.5 154.5,-694.5 245.5,-694.5 245.5,-669.5 154.5,-669.5"/>
<text text-anchor="start" x="209.5" y="-678.3" font-family="Times,serif" font-size="14.00">label:</text>
<polygon fill="none" stroke="black" points="245.5,-669.5 245.5,-694.5 321.5,-694.5 321.5,-669.5 245.5,-669.5"/>
<text text-anchor="start" x="250.5" y="-678.3" font-family="Times,serif" font-size="14.00">zipExample</text>
<polygon fill="none" stroke="black" points="154.5,-644.5 154.5,-669.5 245.5,-669.5 245.5,-644.5 154.5,-644.5"/>
<text text-anchor="start" x="208.5" y="-653.3" font-family="Times,serif" font-size="14.00">stack:</text>
<polygon fill="none" stroke="black" points="245.5,-644.5 245.5,-669.5 321.5,-669.5 321.5,-644.5 245.5,-644.5"/>
<text text-anchor="start" x="250.5" y="-653.3" font-family="Times,serif" font-size="14.00">2</text>
<polygon fill="none" stroke="black" points="154.5,-619.5 154.5,-644.5 245.5,-644.5 245.5,-619.5 154.5,-619.5"/>
<text text-anchor="start" x="159.5" y="-628.3" font-family="Times,serif" font-size="14.00">isInterruptible:</text>
<polygon fill="none" stroke="black" points="245.5,-619.5 245.5,-644.5 321.5,-644.5 321.5,-619.5 245.5,-619.5"/>
<text text-anchor="start" x="250.5" y="-628.3" font-family="Times,serif" font-size="14.00">✅</text>
<polygon fill="none" stroke="black" points="154.5,-594.5 154.5,-619.5 245.5,-619.5 245.5,-594.5 154.5,-594.5"/>
<text text-anchor="start" x="176.5" y="-603.3" font-family="Times,serif" font-size="14.00">interrupted:</text>
<polygon fill="none" stroke="black" points="245.5,-594.5 245.5,-619.5 321.5,-619.5 321.5,-594.5 245.5,-594.5"/>
<text text-anchor="start" x="250.5" y="-603.3" font-family="Times,serif" font-size="14.00">❌</text>
<polygon fill="none" stroke="black" points="154.5,-569.5 154.5,-594.5 245.5,-594.5 245.5,-569.5 154.5,-569.5"/>
<text text-anchor="start" x="162.5" y="-578.3" font-family="Times,serif" font-size="14.00">isInterrupting:</text>
<polygon fill="none" stroke="black" points="245.5,-569.5 245.5,-594.5 321.5,-594.5 321.5,-569.5 245.5,-569.5"/>
<text text-anchor="start" x="250.5" y="-578.3" font-family="Times,serif" font-size="14.00">❌</text>
<polygon fill="none" stroke="black" points="154.5,-544.5 154.5,-569.5 245.5,-569.5 245.5,-544.5 154.5,-544.5"/>
<text text-anchor="start" x="232.5" y="-553.3" font-family="Times,serif" font-size="14.00">t:</text>
<polygon fill="none" stroke="black" points="245.5,-544.5 245.5,-569.5 321.5,-569.5 321.5,-544.5 245.5,-544.5"/>
<text text-anchor="start" x="250.5" y="-553.3" font-family="Times,serif" font-size="14.00">0 ms</text>
</g>
<!-- &#45;main&#45;16983&#45;138267672439375&#45;&gt;&#45;main&#45;16983&#45;138267672454208 -->
<g id="edge2" class="edge">
<title>&#45;main&#45;16983&#45;138267672439375&#45;&gt;&#45;main&#45;16983&#45;138267672454208</title>
<path fill="none" stroke="black" d="M350.18,-774.81C338.98,-760.76 327.36,-746.19 316.03,-731.98"/>
<polygon fill="black" stroke="black" points="318.74,-729.77 309.77,-724.13 313.27,-734.13 318.74,-729.77"/>
</g>
<!-- &#45;main&#45;16983&#45;138267672578916 -->
<g id="node11" class="node">
<title>&#45;main&#45;16983&#45;138267672578916</title>
<polygon fill="#c6e2ff" stroke="none" points="355.5,-694.5 355.5,-719.5 526.5,-719.5 526.5,-694.5 355.5,-694.5"/>
<polygon fill="none" stroke="black" points="355.5,-694.5 355.5,-719.5 526.5,-719.5 526.5,-694.5 355.5,-694.5"/>
<text text-anchor="start" x="427" y="-704.3" font-family="Times,serif" font-weight="bold" font-size="14.00">done</text>
<polygon fill="none" stroke="black" points="355.5,-669.5 355.5,-694.5 446.5,-694.5 446.5,-669.5 355.5,-669.5"/>
<text text-anchor="start" x="410.5" y="-678.3" font-family="Times,serif" font-size="14.00">label:</text>
<polygon fill="none" stroke="black" points="446.5,-669.5 446.5,-694.5 526.5,-694.5 526.5,-669.5 446.5,-669.5"/>
<text text-anchor="start" x="451.5" y="-678.3" font-family="Times,serif" font-size="14.00">succeedNow</text>
<polygon fill="none" stroke="black" points="355.5,-644.5 355.5,-669.5 446.5,-669.5 446.5,-644.5 355.5,-644.5"/>
<text text-anchor="start" x="409.5" y="-653.3" font-family="Times,serif" font-size="14.00">stack:</text>
<polygon fill="none" stroke="black" points="446.5,-644.5 446.5,-669.5 526.5,-669.5 526.5,-644.5 446.5,-644.5"/>
<text text-anchor="start" x="451.5" y="-653.3" font-family="Times,serif" font-size="14.00">1</text>
<polygon fill="none" stroke="black" points="355.5,-619.5 355.5,-644.5 446.5,-644.5 446.5,-619.5 355.5,-619.5"/>
<text text-anchor="start" x="360.5" y="-628.3" font-family="Times,serif" font-size="14.00">isInterruptible:</text>
<polygon fill="none" stroke="black" points="446.5,-619.5 446.5,-644.5 526.5,-644.5 526.5,-619.5 446.5,-619.5"/>
<text text-anchor="start" x="451.5" y="-628.3" font-family="Times,serif" font-size="14.00">✅</text>
<polygon fill="none" stroke="black" points="355.5,-594.5 355.5,-619.5 446.5,-619.5 446.5,-594.5 355.5,-594.5"/>
<text text-anchor="start" x="377.5" y="-603.3" font-family="Times,serif" font-size="14.00">interrupted:</text>
<polygon fill="none" stroke="black" points="446.5,-594.5 446.5,-619.5 526.5,-619.5 526.5,-594.5 446.5,-594.5"/>
<text text-anchor="start" x="451.5" y="-603.3" font-family="Times,serif" font-size="14.00">❌</text>
<polygon fill="none" stroke="black" points="355.5,-569.5 355.5,-594.5 446.5,-594.5 446.5,-569.5 355.5,-569.5"/>
<text text-anchor="start" x="363.5" y="-578.3" font-family="Times,serif" font-size="14.00">isInterrupting:</text>
<polygon fill="none" stroke="black" points="446.5,-569.5 446.5,-594.5 526.5,-594.5 526.5,-569.5 446.5,-569.5"/>
<text text-anchor="start" x="451.5" y="-578.3" font-family="Times,serif" font-size="14.00">❌</text>
<polygon fill="none" stroke="black" points="355.5,-544.5 355.5,-569.5 446.5,-569.5 446.5,-544.5 355.5,-544.5"/>
<text text-anchor="start" x="433.5" y="-553.3" font-family="Times,serif" font-size="14.00">t:</text>
<polygon fill="none" stroke="black" points="446.5,-544.5 446.5,-569.5 526.5,-569.5 526.5,-544.5 446.5,-544.5"/>
<text text-anchor="start" x="451.5" y="-553.3" font-family="Times,serif" font-size="14.00">0 ms</text>
</g>
<!-- &#45;main&#45;16983&#45;138267672439375&#45;&gt;&#45;main&#45;16983&#45;138267672578916 -->
<g id="edge10" class="edge">
<title>&#45;main&#45;16983&#45;138267672439375&#45;&gt;&#45;main&#45;16983&#45;138267672578916</title>
<path fill="none" stroke="black" d="M429.54,-774.81C430.57,-761.54 431.63,-747.81 432.68,-734.35"/>
<polygon fill="black" stroke="black" points="436.18,-734.37 433.47,-724.13 429.21,-733.83 436.18,-734.37"/>
<text text-anchor="middle" x="436" y="-745.8" font-family="Times,serif" font-size="14.00">λ</text>
</g>
<!-- &#45;main&#45;16983&#45;138267672468541 -->
<g id="node4" class="node">
<title>&#45;main&#45;16983&#45;138267672468541</title>
<polygon fill="#c6e2ff" stroke="none" points="8.5,-460.5 8.5,-485.5 179.5,-485.5 179.5,-460.5 8.5,-460.5"/>
<polygon fill="none" stroke="black" points="8.5,-460.5 8.5,-485.5 179.5,-485.5 179.5,-460.5 8.5,-460.5"/>
<text text-anchor="start" x="80" y="-470.3" font-family="Times,serif" font-weight="bold" font-size="14.00">done</text>
<polygon fill="none" stroke="black" points="8.5,-435.5 8.5,-460.5 99.5,-460.5 99.5,-435.5 8.5,-435.5"/>
<text text-anchor="start" x="63.5" y="-444.3" font-family="Times,serif" font-size="14.00">label:</text>
<polygon fill="none" stroke="black" points="99.5,-435.5 99.5,-460.5 179.5,-460.5 179.5,-435.5 99.5,-435.5"/>
<text text-anchor="start" x="104.5" y="-444.3" font-family="Times,serif" font-size="14.00">succeedNow</text>
<polygon fill="none" stroke="black" points="8.5,-410.5 8.5,-435.5 99.5,-435.5 99.5,-410.5 8.5,-410.5"/>
<text text-anchor="start" x="62.5" y="-419.3" font-family="Times,serif" font-size="14.00">stack:</text>
<polygon fill="none" stroke="black" points="99.5,-410.5 99.5,-435.5 179.5,-435.5 179.5,-410.5 99.5,-410.5"/>
<text text-anchor="start" x="104.5" y="-419.3" font-family="Times,serif" font-size="14.00">3</text>
<polygon fill="none" stroke="black" points="8.5,-385.5 8.5,-410.5 99.5,-410.5 99.5,-385.5 8.5,-385.5"/>
<text text-anchor="start" x="13.5" y="-394.3" font-family="Times,serif" font-size="14.00">isInterruptible:</text>
<polygon fill="none" stroke="black" points="99.5,-385.5 99.5,-410.5 179.5,-410.5 179.5,-385.5 99.5,-385.5"/>
<text text-anchor="start" x="104.5" y="-394.3" font-family="Times,serif" font-size="14.00">✅</text>
<polygon fill="none" stroke="black" points="8.5,-360.5 8.5,-385.5 99.5,-385.5 99.5,-360.5 8.5,-360.5"/>
<text text-anchor="start" x="30.5" y="-369.3" font-family="Times,serif" font-size="14.00">interrupted:</text>
<polygon fill="none" stroke="black" points="99.5,-360.5 99.5,-385.5 179.5,-385.5 179.5,-360.5 99.5,-360.5"/>
<text text-anchor="start" x="104.5" y="-369.3" font-family="Times,serif" font-size="14.00">❌</text>
<polygon fill="none" stroke="black" points="8.5,-335.5 8.5,-360.5 99.5,-360.5 99.5,-335.5 8.5,-335.5"/>
<text text-anchor="start" x="16.5" y="-344.3" font-family="Times,serif" font-size="14.00">isInterrupting:</text>
<polygon fill="none" stroke="black" points="99.5,-335.5 99.5,-360.5 179.5,-360.5 179.5,-335.5 99.5,-335.5"/>
<text text-anchor="start" x="104.5" y="-344.3" font-family="Times,serif" font-size="14.00">❌</text>
<polygon fill="none" stroke="black" points="8.5,-310.5 8.5,-335.5 99.5,-335.5 99.5,-310.5 8.5,-310.5"/>
<text text-anchor="start" x="86.5" y="-319.3" font-family="Times,serif" font-size="14.00">t:</text>
<polygon fill="none" stroke="black" points="99.5,-310.5 99.5,-335.5 179.5,-335.5 179.5,-310.5 99.5,-310.5"/>
<text text-anchor="start" x="104.5" y="-319.3" font-family="Times,serif" font-size="14.00">0 ms</text>
</g>
<!-- &#45;main&#45;16983&#45;138267672454208&#45;&gt;&#45;main&#45;16983&#45;138267672468541 -->
<g id="edge3" class="edge">
<title>&#45;main&#45;16983&#45;138267672454208&#45;&gt;&#45;main&#45;16983&#45;138267672468541</title>
<path fill="none" stroke="black" d="M181.21,-540.81C172.65,-527.02 163.78,-512.73 155.12,-498.77"/>
<polygon fill="black" stroke="black" points="158,-496.78 149.75,-490.13 152.05,-500.47 158,-496.78"/>
</g>
<!-- &#45;main&#45;16983&#45;138267672488250 -->
<g id="node6" class="node">
<title>&#45;main&#45;16983&#45;138267672488250</title>
<polygon fill="#c6e2ff" stroke="none" points="213.5,-460.5 213.5,-485.5 342.5,-485.5 342.5,-460.5 213.5,-460.5"/>
<polygon fill="none" stroke="black" points="213.5,-460.5 213.5,-485.5 342.5,-485.5 342.5,-460.5 213.5,-460.5"/>
<text text-anchor="start" x="249" y="-470.3" font-family="Times,serif" font-weight="bold" font-size="14.00">onSuccess</text>
<polygon fill="none" stroke="black" points="213.5,-435.5 213.5,-460.5 304.5,-460.5 304.5,-435.5 213.5,-435.5"/>
<text text-anchor="start" x="268.5" y="-444.3" font-family="Times,serif" font-size="14.00">label:</text>
<polygon fill="none" stroke="black" points="304.5,-435.5 304.5,-460.5 342.5,-460.5 342.5,-435.5 304.5,-435.5"/>
<text text-anchor="start" x="309.5" y="-444.3" font-family="Times,serif" font-size="14.00">do</text>
<polygon fill="none" stroke="black" points="213.5,-410.5 213.5,-435.5 304.5,-435.5 304.5,-410.5 213.5,-410.5"/>
<text text-anchor="start" x="267.5" y="-419.3" font-family="Times,serif" font-size="14.00">stack:</text>
<polygon fill="none" stroke="black" points="304.5,-410.5 304.5,-435.5 342.5,-435.5 342.5,-410.5 304.5,-410.5"/>
<text text-anchor="start" x="309.5" y="-419.3" font-family="Times,serif" font-size="14.00">2</text>
<polygon fill="none" stroke="black" points="213.5,-385.5 213.5,-410.5 304.5,-410.5 304.5,-385.5 213.5,-385.5"/>
<text text-anchor="start" x="218.5" y="-394.3" font-family="Times,serif" font-size="14.00">isInterruptible:</text>
<polygon fill="none" stroke="black" points="304.5,-385.5 304.5,-410.5 342.5,-410.5 342.5,-385.5 304.5,-385.5"/>
<text text-anchor="start" x="309.5" y="-394.3" font-family="Times,serif" font-size="14.00">✅</text>
<polygon fill="none" stroke="black" points="213.5,-360.5 213.5,-385.5 304.5,-385.5 304.5,-360.5 213.5,-360.5"/>
<text text-anchor="start" x="235.5" y="-369.3" font-family="Times,serif" font-size="14.00">interrupted:</text>
<polygon fill="none" stroke="black" points="304.5,-360.5 304.5,-385.5 342.5,-385.5 342.5,-360.5 304.5,-360.5"/>
<text text-anchor="start" x="309.5" y="-369.3" font-family="Times,serif" font-size="14.00">❌</text>
<polygon fill="none" stroke="black" points="213.5,-335.5 213.5,-360.5 304.5,-360.5 304.5,-335.5 213.5,-335.5"/>
<text text-anchor="start" x="221.5" y="-344.3" font-family="Times,serif" font-size="14.00">isInterrupting:</text>
<polygon fill="none" stroke="black" points="304.5,-335.5 304.5,-360.5 342.5,-360.5 342.5,-335.5 304.5,-335.5"/>
<text text-anchor="start" x="309.5" y="-344.3" font-family="Times,serif" font-size="14.00">❌</text>
<polygon fill="none" stroke="black" points="213.5,-310.5 213.5,-335.5 304.5,-335.5 304.5,-310.5 213.5,-310.5"/>
<text text-anchor="start" x="291.5" y="-319.3" font-family="Times,serif" font-size="14.00">t:</text>
<polygon fill="none" stroke="black" points="304.5,-310.5 304.5,-335.5 342.5,-335.5 342.5,-310.5 304.5,-310.5"/>
<text text-anchor="start" x="309.5" y="-319.3" font-family="Times,serif" font-size="14.00">0 ms</text>
</g>
<!-- &#45;main&#45;16983&#45;138267672454208&#45;&gt;&#45;main&#45;16983&#45;138267672488250 -->
<g id="edge5" class="edge">
<title>&#45;main&#45;16983&#45;138267672454208&#45;&gt;&#45;main&#45;16983&#45;138267672488250</title>
<path fill="none" stroke="black" d="M253.14,-540.81C255.42,-527.54 257.79,-513.81 260.11,-500.35"/>
<polygon fill="black" stroke="black" points="263.62,-500.58 261.87,-490.13 256.73,-499.39 263.62,-500.58"/>
<text text-anchor="middle" x="263" y="-511.8" font-family="Times,serif" font-size="14.00">λ</text>
</g>
<!-- &#45;main&#45;16983&#45;138267672479375 -->
<g id="node5" class="node">
<title>&#45;main&#45;16983&#45;138267672479375</title>
<polygon fill="#c6e2ff" stroke="none" points="53.5,-151.5 53.5,-176.5 133.5,-176.5 133.5,-151.5 53.5,-151.5"/>
<polygon fill="none" stroke="black" points="53.5,-151.5 53.5,-176.5 133.5,-176.5 133.5,-151.5 53.5,-151.5"/>
<text text-anchor="start" x="58.5" y="-161.3" font-family="Times,serif" font-weight="bold" font-size="14.00">Exit.success</text>
</g>
<!-- &#45;main&#45;16983&#45;138267672468541&#45;&gt;&#45;main&#45;16983&#45;138267672479375 -->
<g id="edge4" class="edge">
<title>&#45;main&#45;16983&#45;138267672468541&#45;&gt;&#45;main&#45;16983&#45;138267672479375</title>
<path fill="none" stroke="black" d="M93.5,-306.81C93.5,-266.19 93.5,-221.23 93.5,-193.16"/>
<polygon fill="black" stroke="black" points="97,-192.93 93.5,-182.93 90,-192.93 97,-192.93"/>
</g>
<!-- &#45;main&#45;16983&#45;138267672500041 -->
<g id="node7" class="node">
<title>&#45;main&#45;16983&#45;138267672500041</title>
<polygon fill="#c6e2ff" stroke="none" points="180.5,-226.5 180.5,-251.5 351.5,-251.5 351.5,-226.5 180.5,-226.5"/>
<polygon fill="none" stroke="black" points="180.5,-226.5 180.5,-251.5 351.5,-251.5 351.5,-226.5 180.5,-226.5"/>
<text text-anchor="start" x="252" y="-236.3" font-family="Times,serif" font-weight="bold" font-size="14.00">done</text>
<polygon fill="none" stroke="black" points="180.5,-201.5 180.5,-226.5 271.5,-226.5 271.5,-201.5 180.5,-201.5"/>
<text text-anchor="start" x="235.5" y="-210.3" font-family="Times,serif" font-size="14.00">label:</text>
<polygon fill="none" stroke="black" points="271.5,-201.5 271.5,-226.5 351.5,-226.5 351.5,-201.5 271.5,-201.5"/>
<text text-anchor="start" x="276.5" y="-210.3" font-family="Times,serif" font-size="14.00">succeedNow</text>
<polygon fill="none" stroke="black" points="180.5,-176.5 180.5,-201.5 271.5,-201.5 271.5,-176.5 180.5,-176.5"/>
<text text-anchor="start" x="234.5" y="-185.3" font-family="Times,serif" font-size="14.00">stack:</text>
<polygon fill="none" stroke="black" points="271.5,-176.5 271.5,-201.5 351.5,-201.5 351.5,-176.5 271.5,-176.5"/>
<text text-anchor="start" x="276.5" y="-185.3" font-family="Times,serif" font-size="14.00">3</text>
<polygon fill="none" stroke="black" points="180.5,-151.5 180.5,-176.5 271.5,-176.5 271.5,-151.5 180.5,-151.5"/>
<text text-anchor="start" x="185.5" y="-160.3" font-family="Times,serif" font-size="14.00">isInterruptible:</text>
<polygon fill="none" stroke="black" points="271.5,-151.5 271.5,-176.5 351.5,-176.5 351.5,-151.5 271.5,-151.5"/>
<text text-anchor="start" x="276.5" y="-160.3" font-family="Times,serif" font-size="14.00">✅</text>
<polygon fill="none" stroke="black" points="180.5,-126.5 180.5,-151.5 271.5,-151.5 271.5,-126.5 180.5,-126.5"/>
<text text-anchor="start" x="202.5" y="-135.3" font-family="Times,serif" font-size="14.00">interrupted:</text>
<polygon fill="none" stroke="black" points="271.5,-126.5 271.5,-151.5 351.5,-151.5 351.5,-126.5 271.5,-126.5"/>
<text text-anchor="start" x="276.5" y="-135.3" font-family="Times,serif" font-size="14.00">❌</text>
<polygon fill="none" stroke="black" points="180.5,-101.5 180.5,-126.5 271.5,-126.5 271.5,-101.5 180.5,-101.5"/>
<text text-anchor="start" x="188.5" y="-110.3" font-family="Times,serif" font-size="14.00">isInterrupting:</text>
<polygon fill="none" stroke="black" points="271.5,-101.5 271.5,-126.5 351.5,-126.5 351.5,-101.5 271.5,-101.5"/>
<text text-anchor="start" x="276.5" y="-110.3" font-family="Times,serif" font-size="14.00">❌</text>
<polygon fill="none" stroke="black" points="180.5,-76.5 180.5,-101.5 271.5,-101.5 271.5,-76.5 180.5,-76.5"/>
<text text-anchor="start" x="258.5" y="-85.3" font-family="Times,serif" font-size="14.00">t:</text>
<polygon fill="none" stroke="black" points="271.5,-76.5 271.5,-101.5 351.5,-101.5 351.5,-76.5 271.5,-76.5"/>
<text text-anchor="start" x="276.5" y="-85.3" font-family="Times,serif" font-size="14.00">0 ms</text>
</g>
<!-- &#45;main&#45;16983&#45;138267672488250&#45;&gt;&#45;main&#45;16983&#45;138267672500041 -->
<g id="edge6" class="edge">
<title>&#45;main&#45;16983&#45;138267672488250&#45;&gt;&#45;main&#45;16983&#45;138267672500041</title>
<path fill="none" stroke="black" d="M272.81,-306.81C272.12,-293.54 271.41,-279.81 270.72,-266.35"/>
<polygon fill="black" stroke="black" points="274.2,-265.94 270.19,-256.13 267.21,-266.3 274.2,-265.94"/>
</g>
<!-- &#45;main&#45;16983&#45;138267672563041 -->
<g id="node9" class="node">
<title>&#45;main&#45;16983&#45;138267672563041</title>
<polygon fill="#c6e2ff" stroke="none" points="385.5,-226.5 385.5,-251.5 514.5,-251.5 514.5,-226.5 385.5,-226.5"/>
<polygon fill="none" stroke="black" points="385.5,-226.5 385.5,-251.5 514.5,-251.5 514.5,-226.5 385.5,-226.5"/>
<text text-anchor="start" x="436" y="-236.3" font-family="Times,serif" font-weight="bold" font-size="14.00">done</text>
<polygon fill="none" stroke="black" points="385.5,-201.5 385.5,-226.5 476.5,-226.5 476.5,-201.5 385.5,-201.5"/>
<text text-anchor="start" x="440.5" y="-210.3" font-family="Times,serif" font-size="14.00">label:</text>
<polygon fill="none" stroke="black" points="476.5,-201.5 476.5,-226.5 514.5,-226.5 514.5,-201.5 476.5,-201.5"/>
<text text-anchor="start" x="481.5" y="-210.3" font-family="Times,serif" font-size="14.00">pure</text>
<polygon fill="none" stroke="black" points="385.5,-176.5 385.5,-201.5 476.5,-201.5 476.5,-176.5 385.5,-176.5"/>
<text text-anchor="start" x="439.5" y="-185.3" font-family="Times,serif" font-size="14.00">stack:</text>
<polygon fill="none" stroke="black" points="476.5,-176.5 476.5,-201.5 514.5,-201.5 514.5,-176.5 476.5,-176.5"/>
<text text-anchor="start" x="481.5" y="-185.3" font-family="Times,serif" font-size="14.00">2</text>
<polygon fill="none" stroke="black" points="385.5,-151.5 385.5,-176.5 476.5,-176.5 476.5,-151.5 385.5,-151.5"/>
<text text-anchor="start" x="390.5" y="-160.3" font-family="Times,serif" font-size="14.00">isInterruptible:</text>
<polygon fill="none" stroke="black" points="476.5,-151.5 476.5,-176.5 514.5,-176.5 514.5,-151.5 476.5,-151.5"/>
<text text-anchor="start" x="481.5" y="-160.3" font-family="Times,serif" font-size="14.00">✅</text>
<polygon fill="none" stroke="black" points="385.5,-126.5 385.5,-151.5 476.5,-151.5 476.5,-126.5 385.5,-126.5"/>
<text text-anchor="start" x="407.5" y="-135.3" font-family="Times,serif" font-size="14.00">interrupted:</text>
<polygon fill="none" stroke="black" points="476.5,-126.5 476.5,-151.5 514.5,-151.5 514.5,-126.5 476.5,-126.5"/>
<text text-anchor="start" x="481.5" y="-135.3" font-family="Times,serif" font-size="14.00">❌</text>
<polygon fill="none" stroke="black" points="385.5,-101.5 385.5,-126.5 476.5,-126.5 476.5,-101.5 385.5,-101.5"/>
<text text-anchor="start" x="393.5" y="-110.3" font-family="Times,serif" font-size="14.00">isInterrupting:</text>
<polygon fill="none" stroke="black" points="476.5,-101.5 476.5,-126.5 514.5,-126.5 514.5,-101.5 476.5,-101.5"/>
<text text-anchor="start" x="481.5" y="-110.3" font-family="Times,serif" font-size="14.00">❌</text>
<polygon fill="none" stroke="black" points="385.5,-76.5 385.5,-101.5 476.5,-101.5 476.5,-76.5 385.5,-76.5"/>
<text text-anchor="start" x="463.5" y="-85.3" font-family="Times,serif" font-size="14.00">t:</text>
<polygon fill="none" stroke="black" points="476.5,-76.5 476.5,-101.5 514.5,-101.5 514.5,-76.5 476.5,-76.5"/>
<text text-anchor="start" x="481.5" y="-85.3" font-family="Times,serif" font-size="14.00">0 ms</text>
</g>
<!-- &#45;main&#45;16983&#45;138267672488250&#45;&gt;&#45;main&#45;16983&#45;138267672563041 -->
<g id="edge8" class="edge">
<title>&#45;main&#45;16983&#45;138267672488250&#45;&gt;&#45;main&#45;16983&#45;138267672563041</title>
<path fill="none" stroke="black" d="M344.74,-306.81C355.06,-292.89 365.75,-278.46 376.19,-264.38"/>
<polygon fill="black" stroke="black" points="379.16,-266.25 382.31,-256.13 373.54,-262.08 379.16,-266.25"/>
<text text-anchor="middle" x="373" y="-277.8" font-family="Times,serif" font-size="14.00">λ</text>
</g>
<!-- &#45;main&#45;16983&#45;138267672555875 -->
<g id="node8" class="node">
<title>&#45;main&#45;16983&#45;138267672555875</title>
<polygon fill="#c6e2ff" stroke="none" points="225.5,-5 225.5,-30 305.5,-30 305.5,-5 225.5,-5"/>
<polygon fill="none" stroke="black" points="225.5,-5 225.5,-30 305.5,-30 305.5,-5 225.5,-5"/>
<text text-anchor="start" x="230.5" y="-14.8" font-family="Times,serif" font-weight="bold" font-size="14.00">Exit.success</text>
</g>
<!-- &#45;main&#45;16983&#45;138267672500041&#45;&gt;&#45;main&#45;16983&#45;138267672555875 -->
<g id="edge7" class="edge">
<title>&#45;main&#45;16983&#45;138267672500041&#45;&gt;&#45;main&#45;16983&#45;138267672555875</title>
<path fill="none" stroke="black" d="M265.5,-72.81C265.5,-63.4 265.5,-54.45 265.5,-46.63"/>
<polygon fill="black" stroke="black" points="269,-46.42 265.5,-36.42 262,-46.42 269,-46.42"/>
</g>
<!-- &#45;main&#45;16983&#45;138267672574583 -->
<g id="node10" class="node">
<title>&#45;main&#45;16983&#45;138267672574583</title>
<polygon fill="#c6e2ff" stroke="none" points="409.5,-5 409.5,-30 489.5,-30 489.5,-5 409.5,-5"/>
<polygon fill="none" stroke="black" points="409.5,-5 409.5,-30 489.5,-30 489.5,-5 409.5,-5"/>
<text text-anchor="start" x="414.5" y="-14.8" font-family="Times,serif" font-weight="bold" font-size="14.00">Exit.success</text>
</g>
<!-- &#45;main&#45;16983&#45;138267672563041&#45;&gt;&#45;main&#45;16983&#45;138267672574583 -->
<g id="edge9" class="edge">
<title>&#45;main&#45;16983&#45;138267672563041&#45;&gt;&#45;main&#45;16983&#45;138267672574583</title>
<path fill="none" stroke="black" d="M449.5,-72.81C449.5,-63.4 449.5,-54.45 449.5,-46.63"/>
<polygon fill="black" stroke="black" points="453,-46.42 449.5,-36.42 446,-46.42 453,-46.42"/>
</g>
<!-- &#45;main&#45;16983&#45;138267672587875 -->
<g id="node12" class="node">
<title>&#45;main&#45;16983&#45;138267672587875</title>
<polygon fill="#c6e2ff" stroke="none" points="400.5,-385.5 400.5,-410.5 480.5,-410.5 480.5,-385.5 400.5,-385.5"/>
<polygon fill="none" stroke="black" points="400.5,-385.5 400.5,-410.5 480.5,-410.5 480.5,-385.5 400.5,-385.5"/>
<text text-anchor="start" x="405.5" y="-395.3" font-family="Times,serif" font-weight="bold" font-size="14.00">Exit.success</text>
</g>
<!-- &#45;main&#45;16983&#45;138267672578916&#45;&gt;&#45;main&#45;16983&#45;138267672587875 -->
<g id="edge11" class="edge">
<title>&#45;main&#45;16983&#45;138267672578916&#45;&gt;&#45;main&#45;16983&#45;138267672587875</title>
<path fill="none" stroke="black" d="M440.5,-540.81C440.5,-500.19 440.5,-455.23 440.5,-427.16"/>
<polygon fill="black" stroke="black" points="444,-426.93 440.5,-416.93 437,-426.93 444,-426.93"/>
</g>
<!-- &#45;main&#45;16983&#45;138267672600916 -->
<g id="node14" class="node">
<title>&#45;main&#45;16983&#45;138267672600916</title>
<polygon fill="#c6e2ff" stroke="none" points="566.5,-619.5 566.5,-644.5 646.5,-644.5 646.5,-619.5 566.5,-619.5"/>
<polygon fill="none" stroke="black" points="566.5,-619.5 566.5,-644.5 646.5,-644.5 646.5,-619.5 566.5,-619.5"/>
<text text-anchor="start" x="571.5" y="-629.3" font-family="Times,serif" font-weight="bold" font-size="14.00">Exit.success</text>
</g>
<!-- &#45;main&#45;16983&#45;138267672591916&#45;&gt;&#45;main&#45;16983&#45;138267672600916 -->
<g id="edge13" class="edge">
<title>&#45;main&#45;16983&#45;138267672591916&#45;&gt;&#45;main&#45;16983&#45;138267672600916</title>
<path fill="none" stroke="black" d="M606.5,-774.81C606.5,-734.19 606.5,-689.23 606.5,-661.16"/>
<polygon fill="black" stroke="black" points="610,-660.93 606.5,-650.93 603,-660.93 610,-660.93"/>
</g>
</g>
</svg>
