<?xml version="1.0" encoding="UTF-8" standalone="no"?>
<!DOCTYPE svg PUBLIC "-//W3C//DTD SVG 1.1//EN"
 "http://www.w3.org/Graphics/SVG/1.1/DTD/svg11.dtd">
<!-- Generated by graphviz version 6.0.1 (20220911.1526)
 -->
<!-- Title: D Pages: 1 -->
<svg width="195pt" height="263pt"
 viewBox="0.00 0.00 195.00 263.00" xmlns="http://www.w3.org/2000/svg" xmlns:xlink="http://www.w3.org/1999/xlink">
<g id="graph0" class="graph" transform="scale(1 1) rotate(0) translate(4 259)">
<title>D</title>
<polygon fill="white" stroke="none" points="-4,4 -4,-259 191,-259 191,4 -4,4"/>
<!-- &#45;main&#45;21773&#45;138267353731375 -->
<g id="node1" class="node">
<title>&#45;main&#45;21773&#45;138267353731375</title>
<polygon fill="#00bfff" stroke="none" points="8.5,-225.5 8.5,-250.5 179.5,-250.5 179.5,-225.5 8.5,-225.5"/>
<polygon fill="none" stroke="black" points="8.5,-225.5 8.5,-250.5 179.5,-250.5 179.5,-225.5 8.5,-225.5"/>
<text text-anchor="start" x="80" y="-235.3" font-family="Times,serif" font-weight="bold" font-size="14.00">done</text>
<polygon fill="none" stroke="black" points="8.5,-200.5 8.5,-225.5 99.5,-225.5 99.5,-200.5 8.5,-200.5"/>
<text text-anchor="start" x="63.5" y="-209.3" font-family="Times,serif" font-size="14.00">label:</text>
<polygon fill="none" stroke="black" points="99.5,-200.5 99.5,-225.5 179.5,-225.5 179.5,-200.5 99.5,-200.5"/>
<text text-anchor="start" x="104.5" y="-209.3" font-family="Times,serif" font-size="14.00">succeedNow</text>
<polygon fill="none" stroke="black" points="8.5,-175.5 8.5,-200.5 99.5,-200.5 99.5,-175.5 8.5,-175.5"/>
<text text-anchor="start" x="62.5" y="-184.3" font-family="Times,serif" font-size="14.00">stack:</text>
<polygon fill="none" stroke="black" points="99.5,-175.5 99.5,-200.5 179.5,-200.5 179.5,-175.5 99.5,-175.5"/>
<text text-anchor="start" x="104.5" y="-184.3" font-family="Times,serif" font-size="14.00">0</text>
<polygon fill="none" stroke="black" points="8.5,-150.5 8.5,-175.5 99.5,-175.5 99.5,-150.5 8.5,-150.5"/>
<text text-anchor="start" x="13.5" y="-159.3" font-family="Times,serif" font-size="14.00">isInterruptible:</text>
<polygon fill="none" stroke="black" points="99.5,-150.5 99.5,-175.5 179.5,-175.5 179.5,-150.5 99.5,-150.5"/>
<text text-anchor="start" x="104.5" y="-159.3" font-family="Times,serif" font-size="14.00">✅</text>
<polygon fill="none" stroke="black" points="8.5,-125.5 8.5,-150.5 99.5,-150.5 99.5,-125.5 8.5,-125.5"/>
<text text-anchor="start" x="30.5" y="-134.3" font-family="Times,serif" font-size="14.00">interrupted:</text>
<polygon fill="none" stroke="black" points="99.5,-125.5 99.5,-150.5 179.5,-150.5 179.5,-125.5 99.5,-125.5"/>
<text text-anchor="start" x="104.5" y="-134.3" font-family="Times,serif" font-size="14.00">❌</text>
<polygon fill="none" stroke="black" points="8.5,-100.5 8.5,-125.5 99.5,-125.5 99.5,-100.5 8.5,-100.5"/>
<text text-anchor="start" x="16.5" y="-109.3" font-family="Times,serif" font-size="14.00">isInterrupting:</text>
<polygon fill="none" stroke="black" points="99.5,-100.5 99.5,-125.5 179.5,-125.5 179.5,-100.5 99.5,-100.5"/>
<text text-anchor="start" x="104.5" y="-109.3" font-family="Times,serif" font-size="14.00">❌</text>
<polygon fill="none" stroke="black" points="8.5,-75.5 8.5,-100.5 99.5,-100.5 99.5,-75.5 8.5,-75.5"/>
<text text-anchor="start" x="86.5" y="-84.3" font-family="Times,serif" font-size="14.00">t:</text>
<polygon fill="none" stroke="black" points="99.5,-75.5 99.5,-100.5 179.5,-100.5 179.5,-75.5 99.5,-75.5"/>
<text text-anchor="start" x="104.5" y="-84.3" font-family="Times,serif" font-size="14.00">1 ms</text>
</g>
<!-- &#45;main&#45;21773&#45;138267353836125 -->
<g id="node2" class="node">
<title>&#45;main&#45;21773&#45;138267353836125</title>
<polygon fill="#00bfff" stroke="none" points="53.5,-5 53.5,-30 133.5,-30 133.5,-5 53.5,-5"/>
<polygon fill="none" stroke="black" points="53.5,-5 53.5,-30 133.5,-30 133.5,-5 53.5,-5"/>
<text text-anchor="start" x="58.5" y="-14.8" font-family="Times,serif" font-weight="bold" font-size="14.00">Exit.success</text>
</g>
<!-- &#45;main&#45;21773&#45;138267353731375&#45;&gt;&#45;main&#45;21773&#45;138267353836125 -->
<g id="edge1" class="edge">
<title>&#45;main&#45;21773&#45;138267353731375&#45;&gt;&#45;main&#45;21773&#45;138267353836125</title>
<path fill="none" stroke="black" d="M93.5,-71.62C93.5,-62.5 93.5,-53.83 93.5,-46.25"/>
<polygon fill="black" stroke="black" points="97,-46 93.5,-36 90,-46 97,-46"/>
</g>
</g>
</svg>
