<?xml version="1.0" encoding="UTF-8" standalone="no"?>
<!DOCTYPE svg PUBLIC "-//W3C//DTD SVG 1.1//EN"
 "http://www.w3.org/Graphics/SVG/1.1/DTD/svg11.dtd">
<!-- Generated by graphviz version 6.0.1 (20220911.1526)
 -->
<!-- Title: D Pages: 1 -->
<svg width="471pt" height="707pt"
 viewBox="0.00 0.00 471.00 707.00" xmlns="http://www.w3.org/2000/svg" xmlns:xlink="http://www.w3.org/1999/xlink">
<g id="graph0" class="graph" transform="scale(1 1) rotate(0) translate(4 703)">
<title>D</title>
<polygon fill="white" stroke="none" points="-4,4 -4,-703 467,-703 467,4 -4,4"/>
<!-- &#45;main&#45;41842&#45;138267566454541 -->
<g id="node1" class="node">
<title>&#45;main&#45;41842&#45;138267566454541</title>
<polygon fill="#eee9bf" stroke="none" points="85.5,-669.5 85.5,-694.5 230.5,-694.5 230.5,-669.5 85.5,-669.5"/>
<polygon fill="none" stroke="black" points="85.5,-669.5 85.5,-694.5 230.5,-694.5 230.5,-669.5 85.5,-669.5"/>
<text text-anchor="start" x="129" y="-679.3" font-family="Times,serif" font-weight="bold" font-size="14.00">onSuccess</text>
<polygon fill="none" stroke="black" points="85.5,-644.5 85.5,-669.5 176.5,-669.5 176.5,-644.5 85.5,-644.5"/>
<text text-anchor="start" x="140.5" y="-653.3" font-family="Times,serif" font-size="14.00">label:</text>
<polygon fill="none" stroke="black" points="176.5,-644.5 176.5,-669.5 230.5,-669.5 230.5,-644.5 176.5,-644.5"/>
<text text-anchor="start" x="181.5" y="-653.3" font-family="Times,serif" font-size="14.00">flatMap</text>
<polygon fill="none" stroke="black" points="85.5,-619.5 85.5,-644.5 176.5,-644.5 176.5,-619.5 85.5,-619.5"/>
<text text-anchor="start" x="139.5" y="-628.3" font-family="Times,serif" font-size="14.00">stack:</text>
<polygon fill="none" stroke="black" points="176.5,-619.5 176.5,-644.5 230.5,-644.5 230.5,-619.5 176.5,-619.5"/>
<text text-anchor="start" x="181.5" y="-628.3" font-family="Times,serif" font-size="14.00">0</text>
<polygon fill="none" stroke="black" points="85.5,-594.5 85.5,-619.5 176.5,-619.5 176.5,-594.5 85.5,-594.5"/>
<text text-anchor="start" x="90.5" y="-603.3" font-family="Times,serif" font-size="14.00">isInterruptible:</text>
<polygon fill="none" stroke="black" points="176.5,-594.5 176.5,-619.5 230.5,-619.5 230.5,-594.5 176.5,-594.5"/>
<text text-anchor="start" x="181.5" y="-603.3" font-family="Times,serif" font-size="14.00">✅</text>
<polygon fill="none" stroke="black" points="85.5,-569.5 85.5,-594.5 176.5,-594.5 176.5,-569.5 85.5,-569.5"/>
<text text-anchor="start" x="107.5" y="-578.3" font-family="Times,serif" font-size="14.00">interrupted:</text>
<polygon fill="none" stroke="black" points="176.5,-569.5 176.5,-594.5 230.5,-594.5 230.5,-569.5 176.5,-569.5"/>
<text text-anchor="start" x="181.5" y="-578.3" font-family="Times,serif" font-size="14.00">❌</text>
<polygon fill="none" stroke="black" points="85.5,-544.5 85.5,-569.5 176.5,-569.5 176.5,-544.5 85.5,-544.5"/>
<text text-anchor="start" x="93.5" y="-553.3" font-family="Times,serif" font-size="14.00">isInterrupting:</text>
<polygon fill="none" stroke="black" points="176.5,-544.5 176.5,-569.5 230.5,-569.5 230.5,-544.5 176.5,-544.5"/>
<text text-anchor="start" x="181.5" y="-553.3" font-family="Times,serif" font-size="14.00">❌</text>
<polygon fill="none" stroke="black" points="85.5,-519.5 85.5,-544.5 176.5,-544.5 176.5,-519.5 85.5,-519.5"/>
<text text-anchor="start" x="163.5" y="-528.3" font-family="Times,serif" font-size="14.00">t:</text>
<polygon fill="none" stroke="black" points="176.5,-519.5 176.5,-544.5 230.5,-544.5 230.5,-519.5 176.5,-519.5"/>
<text text-anchor="start" x="181.5" y="-528.3" font-family="Times,serif" font-size="14.00">0 ms</text>
</g>
<!-- &#45;main&#45;41842&#45;138267566510708 -->
<g id="node2" class="node">
<title>&#45;main&#45;41842&#45;138267566510708</title>
<polygon fill="#eee9bf" stroke="none" points="8.5,-423.5 8.5,-448.5 137.5,-448.5 137.5,-423.5 8.5,-423.5"/>
<polygon fill="none" stroke="black" points="8.5,-423.5 8.5,-448.5 137.5,-448.5 137.5,-423.5 8.5,-423.5"/>
<text text-anchor="start" x="59" y="-433.3" font-family="Times,serif" font-weight="bold" font-size="14.00">done</text>
<polygon fill="none" stroke="black" points="8.5,-398.5 8.5,-423.5 99.5,-423.5 99.5,-398.5 8.5,-398.5"/>
<text text-anchor="start" x="62.5" y="-407.3" font-family="Times,serif" font-size="14.00">stack:</text>
<polygon fill="none" stroke="black" points="99.5,-398.5 99.5,-423.5 137.5,-423.5 137.5,-398.5 99.5,-398.5"/>
<text text-anchor="start" x="104.5" y="-407.3" font-family="Times,serif" font-size="14.00">1</text>
<polygon fill="none" stroke="black" points="8.5,-373.5 8.5,-398.5 99.5,-398.5 99.5,-373.5 8.5,-373.5"/>
<text text-anchor="start" x="13.5" y="-382.3" font-family="Times,serif" font-size="14.00">isInterruptible:</text>
<polygon fill="none" stroke="black" points="99.5,-373.5 99.5,-398.5 137.5,-398.5 137.5,-373.5 99.5,-373.5"/>
<text text-anchor="start" x="104.5" y="-382.3" font-family="Times,serif" font-size="14.00">✅</text>
<polygon fill="none" stroke="black" points="8.5,-348.5 8.5,-373.5 99.5,-373.5 99.5,-348.5 8.5,-348.5"/>
<text text-anchor="start" x="30.5" y="-357.3" font-family="Times,serif" font-size="14.00">interrupted:</text>
<polygon fill="none" stroke="black" points="99.5,-348.5 99.5,-373.5 137.5,-373.5 137.5,-348.5 99.5,-348.5"/>
<text text-anchor="start" x="104.5" y="-357.3" font-family="Times,serif" font-size="14.00">❌</text>
<polygon fill="none" stroke="black" points="8.5,-323.5 8.5,-348.5 99.5,-348.5 99.5,-323.5 8.5,-323.5"/>
<text text-anchor="start" x="16.5" y="-332.3" font-family="Times,serif" font-size="14.00">isInterrupting:</text>
<polygon fill="none" stroke="black" points="99.5,-323.5 99.5,-348.5 137.5,-348.5 137.5,-323.5 99.5,-323.5"/>
<text text-anchor="start" x="104.5" y="-332.3" font-family="Times,serif" font-size="14.00">❌</text>
<polygon fill="none" stroke="black" points="8.5,-298.5 8.5,-323.5 99.5,-323.5 99.5,-298.5 8.5,-298.5"/>
<text text-anchor="start" x="86.5" y="-307.3" font-family="Times,serif" font-size="14.00">t:</text>
<polygon fill="none" stroke="black" points="99.5,-298.5 99.5,-323.5 137.5,-323.5 137.5,-298.5 99.5,-298.5"/>
<text text-anchor="start" x="104.5" y="-307.3" font-family="Times,serif" font-size="14.00">0 ms</text>
</g>
<!-- &#45;main&#45;41842&#45;138267566454541&#45;&gt;&#45;main&#45;41842&#45;138267566510708 -->
<g id="edge1" class="edge">
<title>&#45;main&#45;41842&#45;138267566454541&#45;&gt;&#45;main&#45;41842&#45;138267566510708</title>
<path fill="none" stroke="black" d="M124.27,-515.81C117.83,-498.22 111.09,-479.82 104.68,-462.33"/>
<polygon fill="black" stroke="black" points="107.88,-460.9 101.16,-452.71 101.31,-463.31 107.88,-460.9"/>
</g>
<!-- &#45;main&#45;41842&#45;138267566558916 -->
<g id="node4" class="node">
<title>&#45;main&#45;41842&#45;138267566558916</title>
<polygon fill="#eee9bf" stroke="none" points="171.5,-435.5 171.5,-460.5 316.5,-460.5 316.5,-435.5 171.5,-435.5"/>
<polygon fill="none" stroke="black" points="171.5,-435.5 171.5,-460.5 316.5,-460.5 316.5,-435.5 171.5,-435.5"/>
<text text-anchor="start" x="215" y="-445.3" font-family="Times,serif" font-weight="bold" font-size="14.00">onSuccess</text>
<polygon fill="none" stroke="black" points="171.5,-410.5 171.5,-435.5 262.5,-435.5 262.5,-410.5 171.5,-410.5"/>
<text text-anchor="start" x="226.5" y="-419.3" font-family="Times,serif" font-size="14.00">label:</text>
<polygon fill="none" stroke="black" points="262.5,-410.5 262.5,-435.5 316.5,-435.5 316.5,-410.5 262.5,-410.5"/>
<text text-anchor="start" x="267.5" y="-419.3" font-family="Times,serif" font-size="14.00">flatMap</text>
<polygon fill="none" stroke="black" points="171.5,-385.5 171.5,-410.5 262.5,-410.5 262.5,-385.5 171.5,-385.5"/>
<text text-anchor="start" x="225.5" y="-394.3" font-family="Times,serif" font-size="14.00">stack:</text>
<polygon fill="none" stroke="black" points="262.5,-385.5 262.5,-410.5 316.5,-410.5 316.5,-385.5 262.5,-385.5"/>
<text text-anchor="start" x="267.5" y="-394.3" font-family="Times,serif" font-size="14.00">0</text>
<polygon fill="none" stroke="black" points="171.5,-360.5 171.5,-385.5 262.5,-385.5 262.5,-360.5 171.5,-360.5"/>
<text text-anchor="start" x="176.5" y="-369.3" font-family="Times,serif" font-size="14.00">isInterruptible:</text>
<polygon fill="none" stroke="black" points="262.5,-360.5 262.5,-385.5 316.5,-385.5 316.5,-360.5 262.5,-360.5"/>
<text text-anchor="start" x="267.5" y="-369.3" font-family="Times,serif" font-size="14.00">✅</text>
<polygon fill="none" stroke="black" points="171.5,-335.5 171.5,-360.5 262.5,-360.5 262.5,-335.5 171.5,-335.5"/>
<text text-anchor="start" x="193.5" y="-344.3" font-family="Times,serif" font-size="14.00">interrupted:</text>
<polygon fill="none" stroke="black" points="262.5,-335.5 262.5,-360.5 316.5,-360.5 316.5,-335.5 262.5,-335.5"/>
<text text-anchor="start" x="267.5" y="-344.3" font-family="Times,serif" font-size="14.00">❌</text>
<polygon fill="none" stroke="black" points="171.5,-310.5 171.5,-335.5 262.5,-335.5 262.5,-310.5 171.5,-310.5"/>
<text text-anchor="start" x="179.5" y="-319.3" font-family="Times,serif" font-size="14.00">isInterrupting:</text>
<polygon fill="none" stroke="black" points="262.5,-310.5 262.5,-335.5 316.5,-335.5 316.5,-310.5 262.5,-310.5"/>
<text text-anchor="start" x="267.5" y="-319.3" font-family="Times,serif" font-size="14.00">❌</text>
<polygon fill="none" stroke="black" points="171.5,-285.5 171.5,-310.5 262.5,-310.5 262.5,-285.5 171.5,-285.5"/>
<text text-anchor="start" x="249.5" y="-294.3" font-family="Times,serif" font-size="14.00">t:</text>
<polygon fill="none" stroke="black" points="262.5,-285.5 262.5,-310.5 316.5,-310.5 316.5,-285.5 262.5,-285.5"/>
<text text-anchor="start" x="267.5" y="-294.3" font-family="Times,serif" font-size="14.00">0 ms</text>
</g>
<!-- &#45;main&#45;41842&#45;138267566454541&#45;&gt;&#45;main&#45;41842&#45;138267566558916 -->
<g id="edge3" class="edge">
<title>&#45;main&#45;41842&#45;138267566454541&#45;&gt;&#45;main&#45;41842&#45;138267566558916</title>
<path fill="none" stroke="black" d="M191.12,-515.81C196.13,-502.28 201.33,-488.27 206.41,-474.56"/>
<polygon fill="black" stroke="black" points="209.71,-475.72 209.9,-465.13 203.15,-473.29 209.71,-475.72"/>
<text text-anchor="middle" x="207" y="-486.8" font-family="Times,serif" font-size="14.00">λ</text>
</g>
<!-- &#45;main&#45;41842&#45;138267566541625 -->
<g id="node3" class="node">
<title>&#45;main&#45;41842&#45;138267566541625</title>
<polygon fill="#eee9bf" stroke="none" points="32.5,-139 32.5,-164 112.5,-164 112.5,-139 32.5,-139"/>
<polygon fill="none" stroke="black" points="32.5,-139 32.5,-164 112.5,-164 112.5,-139 32.5,-139"/>
<text text-anchor="start" x="37.5" y="-148.8" font-family="Times,serif" font-weight="bold" font-size="14.00">Exit.success</text>
</g>
<!-- &#45;main&#45;41842&#45;138267566510708&#45;&gt;&#45;main&#45;41842&#45;138267566541625 -->
<g id="edge2" class="edge">
<title>&#45;main&#45;41842&#45;138267566510708&#45;&gt;&#45;main&#45;41842&#45;138267566541625</title>
<path fill="none" stroke="black" d="M72.5,-294.49C72.5,-254.72 72.5,-208.86 72.5,-180.4"/>
<polygon fill="black" stroke="black" points="76,-180.39 72.5,-170.39 69,-180.39 76,-180.39"/>
</g>
<!-- &#45;main&#45;41842&#45;138267566584250 -->
<g id="node5" class="node">
<title>&#45;main&#45;41842&#45;138267566584250</title>
<polygon fill="#eee9bf" stroke="none" points="163.5,-202 163.5,-227 292.5,-227 292.5,-202 163.5,-202"/>
<polygon fill="none" stroke="black" points="163.5,-202 163.5,-227 292.5,-227 292.5,-202 163.5,-202"/>
<text text-anchor="start" x="214" y="-211.8" font-family="Times,serif" font-weight="bold" font-size="14.00">done</text>
<polygon fill="none" stroke="black" points="163.5,-177 163.5,-202 254.5,-202 254.5,-177 163.5,-177"/>
<text text-anchor="start" x="217.5" y="-185.8" font-family="Times,serif" font-size="14.00">stack:</text>
<polygon fill="none" stroke="black" points="254.5,-177 254.5,-202 292.5,-202 292.5,-177 254.5,-177"/>
<text text-anchor="start" x="259.5" y="-185.8" font-family="Times,serif" font-size="14.00">1</text>
<polygon fill="none" stroke="black" points="163.5,-152 163.5,-177 254.5,-177 254.5,-152 163.5,-152"/>
<text text-anchor="start" x="168.5" y="-160.8" font-family="Times,serif" font-size="14.00">isInterruptible:</text>
<polygon fill="none" stroke="black" points="254.5,-152 254.5,-177 292.5,-177 292.5,-152 254.5,-152"/>
<text text-anchor="start" x="259.5" y="-160.8" font-family="Times,serif" font-size="14.00">✅</text>
<polygon fill="none" stroke="black" points="163.5,-127 163.5,-152 254.5,-152 254.5,-127 163.5,-127"/>
<text text-anchor="start" x="185.5" y="-135.8" font-family="Times,serif" font-size="14.00">interrupted:</text>
<polygon fill="none" stroke="black" points="254.5,-127 254.5,-152 292.5,-152 292.5,-127 254.5,-127"/>
<text text-anchor="start" x="259.5" y="-135.8" font-family="Times,serif" font-size="14.00">❌</text>
<polygon fill="none" stroke="black" points="163.5,-102 163.5,-127 254.5,-127 254.5,-102 163.5,-102"/>
<text text-anchor="start" x="171.5" y="-110.8" font-family="Times,serif" font-size="14.00">isInterrupting:</text>
<polygon fill="none" stroke="black" points="254.5,-102 254.5,-127 292.5,-127 292.5,-102 254.5,-102"/>
<text text-anchor="start" x="259.5" y="-110.8" font-family="Times,serif" font-size="14.00">❌</text>
<polygon fill="none" stroke="black" points="163.5,-77 163.5,-102 254.5,-102 254.5,-77 163.5,-77"/>
<text text-anchor="start" x="241.5" y="-85.8" font-family="Times,serif" font-size="14.00">t:</text>
<polygon fill="none" stroke="black" points="254.5,-77 254.5,-102 292.5,-102 292.5,-77 254.5,-77"/>
<text text-anchor="start" x="259.5" y="-85.8" font-family="Times,serif" font-size="14.00">0 ms</text>
</g>
<!-- &#45;main&#45;41842&#45;138267566558916&#45;&gt;&#45;main&#45;41842&#45;138267566584250 -->
<g id="edge4" class="edge">
<title>&#45;main&#45;41842&#45;138267566558916&#45;&gt;&#45;main&#45;41842&#45;138267566584250</title>
<path fill="none" stroke="black" d="M236.9,-281.95C235.92,-268.5 234.91,-254.64 233.93,-241.23"/>
<polygon fill="black" stroke="black" points="237.41,-240.8 233.19,-231.08 230.43,-241.31 237.41,-240.8"/>
</g>
<!-- &#45;main&#45;41842&#45;138267566611291 -->
<g id="node7" class="node">
<title>&#45;main&#45;41842&#45;138267566611291</title>
<polygon fill="#eee9bf" stroke="none" points="326.5,-202 326.5,-227 455.5,-227 455.5,-202 326.5,-202"/>
<polygon fill="none" stroke="black" points="326.5,-202 326.5,-227 455.5,-227 455.5,-202 326.5,-202"/>
<text text-anchor="start" x="377" y="-211.8" font-family="Times,serif" font-weight="bold" font-size="14.00">done</text>
<polygon fill="none" stroke="black" points="326.5,-177 326.5,-202 417.5,-202 417.5,-177 326.5,-177"/>
<text text-anchor="start" x="380.5" y="-185.8" font-family="Times,serif" font-size="14.00">stack:</text>
<polygon fill="none" stroke="black" points="417.5,-177 417.5,-202 455.5,-202 455.5,-177 417.5,-177"/>
<text text-anchor="start" x="422.5" y="-185.8" font-family="Times,serif" font-size="14.00">0</text>
<polygon fill="none" stroke="black" points="326.5,-152 326.5,-177 417.5,-177 417.5,-152 326.5,-152"/>
<text text-anchor="start" x="331.5" y="-160.8" font-family="Times,serif" font-size="14.00">isInterruptible:</text>
<polygon fill="none" stroke="black" points="417.5,-152 417.5,-177 455.5,-177 455.5,-152 417.5,-152"/>
<text text-anchor="start" x="422.5" y="-160.8" font-family="Times,serif" font-size="14.00">✅</text>
<polygon fill="none" stroke="black" points="326.5,-127 326.5,-152 417.5,-152 417.5,-127 326.5,-127"/>
<text text-anchor="start" x="348.5" y="-135.8" font-family="Times,serif" font-size="14.00">interrupted:</text>
<polygon fill="none" stroke="black" points="417.5,-127 417.5,-152 455.5,-152 455.5,-127 417.5,-127"/>
<text text-anchor="start" x="422.5" y="-135.8" font-family="Times,serif" font-size="14.00">❌</text>
<polygon fill="none" stroke="black" points="326.5,-102 326.5,-127 417.5,-127 417.5,-102 326.5,-102"/>
<text text-anchor="start" x="334.5" y="-110.8" font-family="Times,serif" font-size="14.00">isInterrupting:</text>
<polygon fill="none" stroke="black" points="417.5,-102 417.5,-127 455.5,-127 455.5,-102 417.5,-102"/>
<text text-anchor="start" x="422.5" y="-110.8" font-family="Times,serif" font-size="14.00">❌</text>
<polygon fill="none" stroke="black" points="326.5,-77 326.5,-102 417.5,-102 417.5,-77 326.5,-77"/>
<text text-anchor="start" x="404.5" y="-85.8" font-family="Times,serif" font-size="14.00">t:</text>
<polygon fill="none" stroke="black" points="417.5,-77 417.5,-102 455.5,-102 455.5,-77 417.5,-77"/>
<text text-anchor="start" x="422.5" y="-85.8" font-family="Times,serif" font-size="14.00">0 ms</text>
</g>
<!-- &#45;main&#45;41842&#45;138267566558916&#45;&gt;&#45;main&#45;41842&#45;138267566611291 -->
<g id="edge6" class="edge">
<title>&#45;main&#45;41842&#45;138267566558916&#45;&gt;&#45;main&#45;41842&#45;138267566611291</title>
<path fill="none" stroke="black" d="M304.14,-281.95C313.5,-267.97 323.16,-253.55 332.46,-239.66"/>
<polygon fill="black" stroke="black" points="335.55,-241.34 338.21,-231.08 329.74,-237.44 335.55,-241.34"/>
<text text-anchor="middle" x="330" y="-252.8" font-family="Times,serif" font-size="14.00">λ</text>
</g>
<!-- &#45;main&#45;41842&#45;138267566603000 -->
<g id="node6" class="node">
<title>&#45;main&#45;41842&#45;138267566603000</title>
<polygon fill="#eee9bf" stroke="none" points="187.5,-5 187.5,-30 267.5,-30 267.5,-5 187.5,-5"/>
<polygon fill="none" stroke="black" points="187.5,-5 187.5,-30 267.5,-30 267.5,-5 187.5,-5"/>
<text text-anchor="start" x="192.5" y="-14.8" font-family="Times,serif" font-weight="bold" font-size="14.00">Exit.success</text>
</g>
<!-- &#45;main&#45;41842&#45;138267566584250&#45;&gt;&#45;main&#45;41842&#45;138267566603000 -->
<g id="edge5" class="edge">
<title>&#45;main&#45;41842&#45;138267566584250&#45;&gt;&#45;main&#45;41842&#45;138267566603000</title>
<path fill="none" stroke="black" d="M227.5,-72.69C227.5,-63.22 227.5,-54.11 227.5,-46.16"/>
<polygon fill="black" stroke="black" points="231,-46.12 227.5,-36.12 224,-46.12 231,-46.12"/>
</g>
<!-- &#45;main&#45;41842&#45;138267566627458 -->
<g id="node8" class="node">
<title>&#45;main&#45;41842&#45;138267566627458</title>
<polygon fill="#eee9bf" stroke="none" points="350.5,-5 350.5,-30 430.5,-30 430.5,-5 350.5,-5"/>
<polygon fill="none" stroke="black" points="350.5,-5 350.5,-30 430.5,-30 430.5,-5 350.5,-5"/>
<text text-anchor="start" x="355.5" y="-14.8" font-family="Times,serif" font-weight="bold" font-size="14.00">Exit.success</text>
</g>
<!-- &#45;main&#45;41842&#45;138267566611291&#45;&gt;&#45;main&#45;41842&#45;138267566627458 -->
<g id="edge7" class="edge">
<title>&#45;main&#45;41842&#45;138267566611291&#45;&gt;&#45;main&#45;41842&#45;138267566627458</title>
<path fill="none" stroke="black" d="M390.5,-72.69C390.5,-63.22 390.5,-54.11 390.5,-46.16"/>
<polygon fill="black" stroke="black" points="394,-46.12 390.5,-36.12 387,-46.12 394,-46.12"/>
</g>
</g>
</svg>
