<?xml version="1.0" encoding="UTF-8" standalone="no"?>
<!DOCTYPE svg PUBLIC "-//W3C//DTD SVG 1.1//EN"
 "http://www.w3.org/Graphics/SVG/1.1/DTD/svg11.dtd">
<!-- Generated by graphviz version 6.0.1 (20220911.1526)
 -->
<!-- Title: D Pages: 1 -->
<svg width="530pt" height="732pt"
 viewBox="0.00 0.00 530.00 732.00" xmlns="http://www.w3.org/2000/svg" xmlns:xlink="http://www.w3.org/1999/xlink">
<g id="graph0" class="graph" transform="scale(1 1) rotate(0) translate(4 728)">
<title>D</title>
<polygon fill="white" stroke="none" points="-4,4 -4,-728 526,-728 526,4 -4,4"/>
<!-- &#45;main&#45;95210&#45;138267459999375 -->
<g id="node1" class="node">
<title>&#45;main&#45;95210&#45;138267459999375</title>
<polygon fill="#ffff00" stroke="none" points="120.5,-694.5 120.5,-719.5 249.5,-719.5 249.5,-694.5 120.5,-694.5"/>
<polygon fill="none" stroke="black" points="120.5,-694.5 120.5,-719.5 249.5,-719.5 249.5,-694.5 120.5,-694.5"/>
<text text-anchor="start" x="156" y="-704.3" font-family="Times,serif" font-weight="bold" font-size="14.00">onSuccess</text>
<polygon fill="none" stroke="black" points="120.5,-669.5 120.5,-694.5 211.5,-694.5 211.5,-669.5 120.5,-669.5"/>
<text text-anchor="start" x="175.5" y="-678.3" font-family="Times,serif" font-size="14.00">label:</text>
<polygon fill="none" stroke="black" points="211.5,-669.5 211.5,-694.5 249.5,-694.5 249.5,-669.5 211.5,-669.5"/>
<text text-anchor="start" x="216.5" y="-678.3" font-family="Times,serif" font-size="14.00">zip</text>
<polygon fill="none" stroke="black" points="120.5,-644.5 120.5,-669.5 211.5,-669.5 211.5,-644.5 120.5,-644.5"/>
<text text-anchor="start" x="174.5" y="-653.3" font-family="Times,serif" font-size="14.00">stack:</text>
<polygon fill="none" stroke="black" points="211.5,-644.5 211.5,-669.5 249.5,-669.5 249.5,-644.5 211.5,-644.5"/>
<text text-anchor="start" x="216.5" y="-653.3" font-family="Times,serif" font-size="14.00">0</text>
<polygon fill="none" stroke="black" points="120.5,-619.5 120.5,-644.5 211.5,-644.5 211.5,-619.5 120.5,-619.5"/>
<text text-anchor="start" x="125.5" y="-628.3" font-family="Times,serif" font-size="14.00">isInterruptible:</text>
<polygon fill="none" stroke="black" points="211.5,-619.5 211.5,-644.5 249.5,-644.5 249.5,-619.5 211.5,-619.5"/>
<text text-anchor="start" x="216.5" y="-628.3" font-family="Times,serif" font-size="14.00">✅</text>
<polygon fill="none" stroke="black" points="120.5,-594.5 120.5,-619.5 211.5,-619.5 211.5,-594.5 120.5,-594.5"/>
<text text-anchor="start" x="142.5" y="-603.3" font-family="Times,serif" font-size="14.00">interrupted:</text>
<polygon fill="none" stroke="black" points="211.5,-594.5 211.5,-619.5 249.5,-619.5 249.5,-594.5 211.5,-594.5"/>
<text text-anchor="start" x="216.5" y="-603.3" font-family="Times,serif" font-size="14.00">❌</text>
<polygon fill="none" stroke="black" points="120.5,-569.5 120.5,-594.5 211.5,-594.5 211.5,-569.5 120.5,-569.5"/>
<text text-anchor="start" x="128.5" y="-578.3" font-family="Times,serif" font-size="14.00">isInterrupting:</text>
<polygon fill="none" stroke="black" points="211.5,-569.5 211.5,-594.5 249.5,-594.5 249.5,-569.5 211.5,-569.5"/>
<text text-anchor="start" x="216.5" y="-578.3" font-family="Times,serif" font-size="14.00">❌</text>
<polygon fill="none" stroke="black" points="120.5,-544.5 120.5,-569.5 211.5,-569.5 211.5,-544.5 120.5,-544.5"/>
<text text-anchor="start" x="198.5" y="-553.3" font-family="Times,serif" font-size="14.00">t:</text>
<polygon fill="none" stroke="black" points="211.5,-544.5 211.5,-569.5 249.5,-569.5 249.5,-544.5 211.5,-544.5"/>
<text text-anchor="start" x="216.5" y="-553.3" font-family="Times,serif" font-size="14.00">1 ms</text>
</g>
<!-- &#45;main&#45;95210&#45;138267460041708 -->
<g id="node2" class="node">
<title>&#45;main&#45;95210&#45;138267460041708</title>
<polygon fill="#ffff00" stroke="none" points="8.5,-460.5 8.5,-485.5 179.5,-485.5 179.5,-460.5 8.5,-460.5"/>
<polygon fill="none" stroke="black" points="8.5,-460.5 8.5,-485.5 179.5,-485.5 179.5,-460.5 8.5,-460.5"/>
<text text-anchor="start" x="80" y="-470.3" font-family="Times,serif" font-weight="bold" font-size="14.00">done</text>
<polygon fill="none" stroke="black" points="8.5,-435.5 8.5,-460.5 99.5,-460.5 99.5,-435.5 8.5,-435.5"/>
<text text-anchor="start" x="63.5" y="-444.3" font-family="Times,serif" font-size="14.00">label:</text>
<polygon fill="none" stroke="black" points="99.5,-435.5 99.5,-460.5 179.5,-460.5 179.5,-435.5 99.5,-435.5"/>
<text text-anchor="start" x="104.5" y="-444.3" font-family="Times,serif" font-size="14.00">succeedNow</text>
<polygon fill="none" stroke="black" points="8.5,-410.5 8.5,-435.5 99.5,-435.5 99.5,-410.5 8.5,-410.5"/>
<text text-anchor="start" x="62.5" y="-419.3" font-family="Times,serif" font-size="14.00">stack:</text>
<polygon fill="none" stroke="black" points="99.5,-410.5 99.5,-435.5 179.5,-435.5 179.5,-410.5 99.5,-410.5"/>
<text text-anchor="start" x="104.5" y="-419.3" font-family="Times,serif" font-size="14.00">1</text>
<polygon fill="none" stroke="black" points="8.5,-385.5 8.5,-410.5 99.5,-410.5 99.5,-385.5 8.5,-385.5"/>
<text text-anchor="start" x="13.5" y="-394.3" font-family="Times,serif" font-size="14.00">isInterruptible:</text>
<polygon fill="none" stroke="black" points="99.5,-385.5 99.5,-410.5 179.5,-410.5 179.5,-385.5 99.5,-385.5"/>
<text text-anchor="start" x="104.5" y="-394.3" font-family="Times,serif" font-size="14.00">✅</text>
<polygon fill="none" stroke="black" points="8.5,-360.5 8.5,-385.5 99.5,-385.5 99.5,-360.5 8.5,-360.5"/>
<text text-anchor="start" x="30.5" y="-369.3" font-family="Times,serif" font-size="14.00">interrupted:</text>
<polygon fill="none" stroke="black" points="99.5,-360.5 99.5,-385.5 179.5,-385.5 179.5,-360.5 99.5,-360.5"/>
<text text-anchor="start" x="104.5" y="-369.3" font-family="Times,serif" font-size="14.00">❌</text>
<polygon fill="none" stroke="black" points="8.5,-335.5 8.5,-360.5 99.5,-360.5 99.5,-335.5 8.5,-335.5"/>
<text text-anchor="start" x="16.5" y="-344.3" font-family="Times,serif" font-size="14.00">isInterrupting:</text>
<polygon fill="none" stroke="black" points="99.5,-335.5 99.5,-360.5 179.5,-360.5 179.5,-335.5 99.5,-335.5"/>
<text text-anchor="start" x="104.5" y="-344.3" font-family="Times,serif" font-size="14.00">❌</text>
<polygon fill="none" stroke="black" points="8.5,-310.5 8.5,-335.5 99.5,-335.5 99.5,-310.5 8.5,-310.5"/>
<text text-anchor="start" x="86.5" y="-319.3" font-family="Times,serif" font-size="14.00">t:</text>
<polygon fill="none" stroke="black" points="99.5,-310.5 99.5,-335.5 179.5,-335.5 179.5,-310.5 99.5,-310.5"/>
<text text-anchor="start" x="104.5" y="-319.3" font-family="Times,serif" font-size="14.00">1 ms</text>
</g>
<!-- &#45;main&#45;95210&#45;138267459999375&#45;&gt;&#45;main&#45;95210&#45;138267460041708 -->
<g id="edge1" class="edge">
<title>&#45;main&#45;95210&#45;138267459999375&#45;&gt;&#45;main&#45;95210&#45;138267460041708</title>
<path fill="none" stroke="black" d="M148.93,-540.81C143.62,-527.28 138.13,-513.27 132.75,-499.56"/>
<polygon fill="black" stroke="black" points="135.96,-498.16 129.05,-490.13 129.44,-500.72 135.96,-498.16"/>
</g>
<!-- &#45;main&#45;95210&#45;138267460084958 -->
<g id="node4" class="node">
<title>&#45;main&#45;95210&#45;138267460084958</title>
<polygon fill="#ffff00" stroke="none" points="213.5,-460.5 213.5,-485.5 342.5,-485.5 342.5,-460.5 213.5,-460.5"/>
<polygon fill="none" stroke="black" points="213.5,-460.5 213.5,-485.5 342.5,-485.5 342.5,-460.5 213.5,-460.5"/>
<text text-anchor="start" x="249" y="-470.3" font-family="Times,serif" font-weight="bold" font-size="14.00">onSuccess</text>
<polygon fill="none" stroke="black" points="213.5,-435.5 213.5,-460.5 304.5,-460.5 304.5,-435.5 213.5,-435.5"/>
<text text-anchor="start" x="268.5" y="-444.3" font-family="Times,serif" font-size="14.00">label:</text>
<polygon fill="none" stroke="black" points="304.5,-435.5 304.5,-460.5 342.5,-460.5 342.5,-435.5 304.5,-435.5"/>
<text text-anchor="start" x="309.5" y="-444.3" font-family="Times,serif" font-size="14.00">do</text>
<polygon fill="none" stroke="black" points="213.5,-410.5 213.5,-435.5 304.5,-435.5 304.5,-410.5 213.5,-410.5"/>
<text text-anchor="start" x="267.5" y="-419.3" font-family="Times,serif" font-size="14.00">stack:</text>
<polygon fill="none" stroke="black" points="304.5,-410.5 304.5,-435.5 342.5,-435.5 342.5,-410.5 304.5,-410.5"/>
<text text-anchor="start" x="309.5" y="-419.3" font-family="Times,serif" font-size="14.00">0</text>
<polygon fill="none" stroke="black" points="213.5,-385.5 213.5,-410.5 304.5,-410.5 304.5,-385.5 213.5,-385.5"/>
<text text-anchor="start" x="218.5" y="-394.3" font-family="Times,serif" font-size="14.00">isInterruptible:</text>
<polygon fill="none" stroke="black" points="304.5,-385.5 304.5,-410.5 342.5,-410.5 342.5,-385.5 304.5,-385.5"/>
<text text-anchor="start" x="309.5" y="-394.3" font-family="Times,serif" font-size="14.00">✅</text>
<polygon fill="none" stroke="black" points="213.5,-360.5 213.5,-385.5 304.5,-385.5 304.5,-360.5 213.5,-360.5"/>
<text text-anchor="start" x="235.5" y="-369.3" font-family="Times,serif" font-size="14.00">interrupted:</text>
<polygon fill="none" stroke="black" points="304.5,-360.5 304.5,-385.5 342.5,-385.5 342.5,-360.5 304.5,-360.5"/>
<text text-anchor="start" x="309.5" y="-369.3" font-family="Times,serif" font-size="14.00">❌</text>
<polygon fill="none" stroke="black" points="213.5,-335.5 213.5,-360.5 304.5,-360.5 304.5,-335.5 213.5,-335.5"/>
<text text-anchor="start" x="221.5" y="-344.3" font-family="Times,serif" font-size="14.00">isInterrupting:</text>
<polygon fill="none" stroke="black" points="304.5,-335.5 304.5,-360.5 342.5,-360.5 342.5,-335.5 304.5,-335.5"/>
<text text-anchor="start" x="309.5" y="-344.3" font-family="Times,serif" font-size="14.00">❌</text>
<polygon fill="none" stroke="black" points="213.5,-310.5 213.5,-335.5 304.5,-335.5 304.5,-310.5 213.5,-310.5"/>
<text text-anchor="start" x="291.5" y="-319.3" font-family="Times,serif" font-size="14.00">t:</text>
<polygon fill="none" stroke="black" points="304.5,-310.5 304.5,-335.5 342.5,-335.5 342.5,-310.5 304.5,-310.5"/>
<text text-anchor="start" x="309.5" y="-319.3" font-family="Times,serif" font-size="14.00">1 ms</text>
</g>
<!-- &#45;main&#45;95210&#45;138267459999375&#45;&gt;&#45;main&#45;95210&#45;138267460084958 -->
<g id="edge3" class="edge">
<title>&#45;main&#45;95210&#45;138267459999375&#45;&gt;&#45;main&#45;95210&#45;138267460084958</title>
<path fill="none" stroke="black" d="M220.86,-540.81C226.28,-527.28 231.89,-513.27 237.39,-499.56"/>
<polygon fill="black" stroke="black" points="240.7,-500.72 241.17,-490.13 234.2,-498.11 240.7,-500.72"/>
<text text-anchor="middle" x="238" y="-511.8" font-family="Times,serif" font-size="14.00">λ</text>
</g>
<!-- &#45;main&#45;95210&#45;138267460071250 -->
<g id="node3" class="node">
<title>&#45;main&#45;95210&#45;138267460071250</title>
<polygon fill="#ffff00" stroke="none" points="53.5,-151.5 53.5,-176.5 133.5,-176.5 133.5,-151.5 53.5,-151.5"/>
<polygon fill="none" stroke="black" points="53.5,-151.5 53.5,-176.5 133.5,-176.5 133.5,-151.5 53.5,-151.5"/>
<text text-anchor="start" x="58.5" y="-161.3" font-family="Times,serif" font-weight="bold" font-size="14.00">Exit.success</text>
</g>
<!-- &#45;main&#45;95210&#45;138267460041708&#45;&gt;&#45;main&#45;95210&#45;138267460071250 -->
<g id="edge2" class="edge">
<title>&#45;main&#45;95210&#45;138267460041708&#45;&gt;&#45;main&#45;95210&#45;138267460071250</title>
<path fill="none" stroke="black" d="M93.5,-306.81C93.5,-266.19 93.5,-221.23 93.5,-193.16"/>
<polygon fill="black" stroke="black" points="97,-192.93 93.5,-182.93 90,-192.93 97,-192.93"/>
</g>
<!-- &#45;main&#45;95210&#45;138267460107500 -->
<g id="node5" class="node">
<title>&#45;main&#45;95210&#45;138267460107500</title>
<polygon fill="#ffff00" stroke="none" points="180.5,-226.5 180.5,-251.5 351.5,-251.5 351.5,-226.5 180.5,-226.5"/>
<polygon fill="none" stroke="black" points="180.5,-226.5 180.5,-251.5 351.5,-251.5 351.5,-226.5 180.5,-226.5"/>
<text text-anchor="start" x="252" y="-236.3" font-family="Times,serif" font-weight="bold" font-size="14.00">done</text>
<polygon fill="none" stroke="black" points="180.5,-201.5 180.5,-226.5 271.5,-226.5 271.5,-201.5 180.5,-201.5"/>
<text text-anchor="start" x="235.5" y="-210.3" font-family="Times,serif" font-size="14.00">label:</text>
<polygon fill="none" stroke="black" points="271.5,-201.5 271.5,-226.5 351.5,-226.5 351.5,-201.5 271.5,-201.5"/>
<text text-anchor="start" x="276.5" y="-210.3" font-family="Times,serif" font-size="14.00">succeedNow</text>
<polygon fill="none" stroke="black" points="180.5,-176.5 180.5,-201.5 271.5,-201.5 271.5,-176.5 180.5,-176.5"/>
<text text-anchor="start" x="234.5" y="-185.3" font-family="Times,serif" font-size="14.00">stack:</text>
<polygon fill="none" stroke="black" points="271.5,-176.5 271.5,-201.5 351.5,-201.5 351.5,-176.5 271.5,-176.5"/>
<text text-anchor="start" x="276.5" y="-185.3" font-family="Times,serif" font-size="14.00">1</text>
<polygon fill="none" stroke="black" points="180.5,-151.5 180.5,-176.5 271.5,-176.5 271.5,-151.5 180.5,-151.5"/>
<text text-anchor="start" x="185.5" y="-160.3" font-family="Times,serif" font-size="14.00">isInterruptible:</text>
<polygon fill="none" stroke="black" points="271.5,-151.5 271.5,-176.5 351.5,-176.5 351.5,-151.5 271.5,-151.5"/>
<text text-anchor="start" x="276.5" y="-160.3" font-family="Times,serif" font-size="14.00">✅</text>
<polygon fill="none" stroke="black" points="180.5,-126.5 180.5,-151.5 271.5,-151.5 271.5,-126.5 180.5,-126.5"/>
<text text-anchor="start" x="202.5" y="-135.3" font-family="Times,serif" font-size="14.00">interrupted:</text>
<polygon fill="none" stroke="black" points="271.5,-126.5 271.5,-151.5 351.5,-151.5 351.5,-126.5 271.5,-126.5"/>
<text text-anchor="start" x="276.5" y="-135.3" font-family="Times,serif" font-size="14.00">❌</text>
<polygon fill="none" stroke="black" points="180.5,-101.5 180.5,-126.5 271.5,-126.5 271.5,-101.5 180.5,-101.5"/>
<text text-anchor="start" x="188.5" y="-110.3" font-family="Times,serif" font-size="14.00">isInterrupting:</text>
<polygon fill="none" stroke="black" points="271.5,-101.5 271.5,-126.5 351.5,-126.5 351.5,-101.5 271.5,-101.5"/>
<text text-anchor="start" x="276.5" y="-110.3" font-family="Times,serif" font-size="14.00">❌</text>
<polygon fill="none" stroke="black" points="180.5,-76.5 180.5,-101.5 271.5,-101.5 271.5,-76.5 180.5,-76.5"/>
<text text-anchor="start" x="258.5" y="-85.3" font-family="Times,serif" font-size="14.00">t:</text>
<polygon fill="none" stroke="black" points="271.5,-76.5 271.5,-101.5 351.5,-101.5 351.5,-76.5 271.5,-76.5"/>
<text text-anchor="start" x="276.5" y="-85.3" font-family="Times,serif" font-size="14.00">1 ms</text>
</g>
<!-- &#45;main&#45;95210&#45;138267460084958&#45;&gt;&#45;main&#45;95210&#45;138267460107500 -->
<g id="edge4" class="edge">
<title>&#45;main&#45;95210&#45;138267460084958&#45;&gt;&#45;main&#45;95210&#45;138267460107500</title>
<path fill="none" stroke="black" d="M272.81,-306.81C272.12,-293.54 271.41,-279.81 270.72,-266.35"/>
<polygon fill="black" stroke="black" points="274.2,-265.94 270.19,-256.13 267.21,-266.3 274.2,-265.94"/>
</g>
<!-- &#45;main&#45;95210&#45;138267460236416 -->
<g id="node7" class="node">
<title>&#45;main&#45;95210&#45;138267460236416</title>
<polygon fill="#ffff00" stroke="none" points="385.5,-226.5 385.5,-251.5 514.5,-251.5 514.5,-226.5 385.5,-226.5"/>
<polygon fill="none" stroke="black" points="385.5,-226.5 385.5,-251.5 514.5,-251.5 514.5,-226.5 385.5,-226.5"/>
<text text-anchor="start" x="436" y="-236.3" font-family="Times,serif" font-weight="bold" font-size="14.00">done</text>
<polygon fill="none" stroke="black" points="385.5,-201.5 385.5,-226.5 476.5,-226.5 476.5,-201.5 385.5,-201.5"/>
<text text-anchor="start" x="440.5" y="-210.3" font-family="Times,serif" font-size="14.00">label:</text>
<polygon fill="none" stroke="black" points="476.5,-201.5 476.5,-226.5 514.5,-226.5 514.5,-201.5 476.5,-201.5"/>
<text text-anchor="start" x="481.5" y="-210.3" font-family="Times,serif" font-size="14.00">pure</text>
<polygon fill="none" stroke="black" points="385.5,-176.5 385.5,-201.5 476.5,-201.5 476.5,-176.5 385.5,-176.5"/>
<text text-anchor="start" x="439.5" y="-185.3" font-family="Times,serif" font-size="14.00">stack:</text>
<polygon fill="none" stroke="black" points="476.5,-176.5 476.5,-201.5 514.5,-201.5 514.5,-176.5 476.5,-176.5"/>
<text text-anchor="start" x="481.5" y="-185.3" font-family="Times,serif" font-size="14.00">0</text>
<polygon fill="none" stroke="black" points="385.5,-151.5 385.5,-176.5 476.5,-176.5 476.5,-151.5 385.5,-151.5"/>
<text text-anchor="start" x="390.5" y="-160.3" font-family="Times,serif" font-size="14.00">isInterruptible:</text>
<polygon fill="none" stroke="black" points="476.5,-151.5 476.5,-176.5 514.5,-176.5 514.5,-151.5 476.5,-151.5"/>
<text text-anchor="start" x="481.5" y="-160.3" font-family="Times,serif" font-size="14.00">✅</text>
<polygon fill="none" stroke="black" points="385.5,-126.5 385.5,-151.5 476.5,-151.5 476.5,-126.5 385.5,-126.5"/>
<text text-anchor="start" x="407.5" y="-135.3" font-family="Times,serif" font-size="14.00">interrupted:</text>
<polygon fill="none" stroke="black" points="476.5,-126.5 476.5,-151.5 514.5,-151.5 514.5,-126.5 476.5,-126.5"/>
<text text-anchor="start" x="481.5" y="-135.3" font-family="Times,serif" font-size="14.00">❌</text>
<polygon fill="none" stroke="black" points="385.5,-101.5 385.5,-126.5 476.5,-126.5 476.5,-101.5 385.5,-101.5"/>
<text text-anchor="start" x="393.5" y="-110.3" font-family="Times,serif" font-size="14.00">isInterrupting:</text>
<polygon fill="none" stroke="black" points="476.5,-101.5 476.5,-126.5 514.5,-126.5 514.5,-101.5 476.5,-101.5"/>
<text text-anchor="start" x="481.5" y="-110.3" font-family="Times,serif" font-size="14.00">❌</text>
<polygon fill="none" stroke="black" points="385.5,-76.5 385.5,-101.5 476.5,-101.5 476.5,-76.5 385.5,-76.5"/>
<text text-anchor="start" x="463.5" y="-85.3" font-family="Times,serif" font-size="14.00">t:</text>
<polygon fill="none" stroke="black" points="476.5,-76.5 476.5,-101.5 514.5,-101.5 514.5,-76.5 476.5,-76.5"/>
<text text-anchor="start" x="481.5" y="-85.3" font-family="Times,serif" font-size="14.00">1 ms</text>
</g>
<!-- &#45;main&#45;95210&#45;138267460084958&#45;&gt;&#45;main&#45;95210&#45;138267460236416 -->
<g id="edge6" class="edge">
<title>&#45;main&#45;95210&#45;138267460084958&#45;&gt;&#45;main&#45;95210&#45;138267460236416</title>
<path fill="none" stroke="black" d="M344.74,-306.81C355.06,-292.89 365.75,-278.46 376.19,-264.38"/>
<polygon fill="black" stroke="black" points="379.16,-266.25 382.31,-256.13 373.54,-262.08 379.16,-266.25"/>
<text text-anchor="middle" x="373" y="-277.8" font-family="Times,serif" font-size="14.00">λ</text>
</g>
<!-- &#45;main&#45;95210&#45;138267460220500 -->
<g id="node6" class="node">
<title>&#45;main&#45;95210&#45;138267460220500</title>
<polygon fill="#ffff00" stroke="none" points="225.5,-5 225.5,-30 305.5,-30 305.5,-5 225.5,-5"/>
<polygon fill="none" stroke="black" points="225.5,-5 225.5,-30 305.5,-30 305.5,-5 225.5,-5"/>
<text text-anchor="start" x="230.5" y="-14.8" font-family="Times,serif" font-weight="bold" font-size="14.00">Exit.success</text>
</g>
<!-- &#45;main&#45;95210&#45;138267460107500&#45;&gt;&#45;main&#45;95210&#45;138267460220500 -->
<g id="edge5" class="edge">
<title>&#45;main&#45;95210&#45;138267460107500&#45;&gt;&#45;main&#45;95210&#45;138267460220500</title>
<path fill="none" stroke="black" d="M265.5,-72.81C265.5,-63.4 265.5,-54.45 265.5,-46.63"/>
<polygon fill="black" stroke="black" points="269,-46.42 265.5,-36.42 262,-46.42 269,-46.42"/>
</g>
<!-- &#45;main&#45;95210&#45;138267460265708 -->
<g id="node8" class="node">
<title>&#45;main&#45;95210&#45;138267460265708</title>
<polygon fill="#ffff00" stroke="none" points="409.5,-5 409.5,-30 489.5,-30 489.5,-5 409.5,-5"/>
<polygon fill="none" stroke="black" points="409.5,-5 409.5,-30 489.5,-30 489.5,-5 409.5,-5"/>
<text text-anchor="start" x="414.5" y="-14.8" font-family="Times,serif" font-weight="bold" font-size="14.00">Exit.success</text>
</g>
<!-- &#45;main&#45;95210&#45;138267460236416&#45;&gt;&#45;main&#45;95210&#45;138267460265708 -->
<g id="edge7" class="edge">
<title>&#45;main&#45;95210&#45;138267460236416&#45;&gt;&#45;main&#45;95210&#45;138267460265708</title>
<path fill="none" stroke="black" d="M449.5,-72.81C449.5,-63.4 449.5,-54.45 449.5,-46.63"/>
<polygon fill="black" stroke="black" points="453,-46.42 449.5,-36.42 446,-46.42 453,-46.42"/>
</g>
</g>
</svg>
