<?xml version="1.0" encoding="UTF-8"?><svg xmlns="http://www.w3.org/2000/svg" xmlns:xlink="http://www.w3.org/1999/xlink" fill-opacity="1" color-rendering="auto" color-interpolation="auto" text-rendering="auto" stroke="black" stroke-linecap="square" width="701" stroke-miterlimit="10" shape-rendering="auto" stroke-opacity="1" fill="black" stroke-dasharray="none" font-weight="normal" stroke-width="1" height="821" font-family="'Dialog'" font-style="normal" stroke-linejoin="miter" font-size="12px" stroke-dashoffset="0" image-rendering="auto">
  <!--Generated by ySVG 2.6-->
  <defs id="genericDefs"/>
  <g>
    <defs id="defs1">
      <clipPath clipPathUnits="userSpaceOnUse" id="clipPath1">
        <path d="M0 0 L701 0 L701 821 L0 821 L0 0 Z"/>
      </clipPath>
      <clipPath clipPathUnits="userSpaceOnUse" id="clipPath2">
        <path d="M-15 -15 L686 -15 L686 806 L-15 806 L-15 -15 Z"/>
      </clipPath>
    </defs>
    <g fill="white" text-rendering="geometricPrecision" shape-rendering="geometricPrecision" transform="translate(15,15)" stroke="white">
      <rect x="-15" width="701" height="821" y="-15" clip-path="url(#clipPath2)" stroke="none"/>
    </g>
    <g fill="rgb(245,245,245)" text-rendering="geometricPrecision" shape-rendering="geometricPrecision" transform="matrix(1,0,0,1,15,15)" stroke="rgb(245,245,245)">
      <rect x="0" y="0" clip-path="url(#clipPath2)" width="670.7302" rx="4" ry="4" height="698.166" stroke="none"/>
      <rect x="0" y="0" clip-path="url(#clipPath2)" fill="rgb(235,235,235)" width="670.7302" height="21.666" stroke="none"/>
    </g>
    <g font-size="15px" stroke-linecap="butt" transform="matrix(1,0,0,1,15,15)" text-rendering="geometricPrecision" font-family="sans-serif" shape-rendering="geometricPrecision" stroke-miterlimit="1.45">
      <text x="659.6628" xml:space="preserve" y="16.502" clip-path="url(#clipPath2)" stroke="none">Z</text>
      <rect x="0" y="0" clip-path="url(#clipPath2)" fill="none" width="670.7302" stroke-dasharray="6,2" rx="4" ry="4" height="698.166"/>
    </g>
    <g fill="rgb(255,204,0)" text-rendering="geometricPrecision" shape-rendering="geometricPrecision" transform="matrix(1,0,0,1,15,15)" stroke="rgb(255,204,0)">
      <rect x="368.541" width="41.2695" height="30" y="373.666" clip-path="url(#clipPath2)" stroke="none"/>
    </g>
    <g text-rendering="geometricPrecision" stroke-miterlimit="1.45" shape-rendering="geometricPrecision" transform="matrix(1,0,0,1,15,15)" stroke-linecap="butt">
      <rect fill="none" x="368.541" width="41.2695" height="30" y="373.666" clip-path="url(#clipPath2)"/>
      <text x="375.541" xml:space="preserve" y="393.2012" clip-path="url(#clipPath2)" font-family="sans-serif" stroke="none">Core</text>
    </g>
    <g fill="rgb(255,204,0)" text-rendering="geometricPrecision" shape-rendering="geometricPrecision" transform="matrix(1,0,0,1,15,15)" stroke="rgb(255,204,0)">
      <rect x="165.225" width="43.0508" height="30" y="265.666" clip-path="url(#clipPath2)" stroke="none"/>
    </g>
    <g text-rendering="geometricPrecision" stroke-miterlimit="1.45" shape-rendering="geometricPrecision" transform="matrix(1,0,0,1,15,15)" stroke-linecap="butt">
      <rect fill="none" x="165.225" width="43.0508" height="30" y="265.666" clip-path="url(#clipPath2)"/>
      <text x="172.225" xml:space="preserve" y="285.2012" clip-path="url(#clipPath2)" font-family="sans-serif" stroke="none">Fiber</text>
    </g>
    <g fill="rgb(255,204,0)" text-rendering="geometricPrecision" shape-rendering="geometricPrecision" transform="matrix(1,0,0,1,15,15)" stroke="rgb(255,204,0)">
      <rect x="452.892" width="101.0176" height="30" y="265.666" clip-path="url(#clipPath2)" stroke="none"/>
    </g>
    <g text-rendering="geometricPrecision" stroke-miterlimit="1.45" shape-rendering="geometricPrecision" transform="matrix(1,0,0,1,15,15)" stroke-linecap="butt">
      <rect fill="none" x="452.892" width="101.0176" height="30" y="265.666" clip-path="url(#clipPath2)"/>
      <text x="459.892" xml:space="preserve" y="285.2012" clip-path="url(#clipPath2)" font-family="sans-serif" stroke="none">InterruptStatus</text>
    </g>
    <g fill="rgb(255,204,0)" text-rendering="geometricPrecision" shape-rendering="geometricPrecision" transform="matrix(1,0,0,1,15,15)" stroke="rgb(255,204,0)">
      <rect x="238.2761" width="87.1836" height="30" y="265.666" clip-path="url(#clipPath2)" stroke="none"/>
    </g>
    <g text-rendering="geometricPrecision" stroke-miterlimit="1.45" shape-rendering="geometricPrecision" transform="matrix(1,0,0,1,15,15)" stroke-linecap="butt">
      <rect fill="none" x="238.2761" width="87.1836" height="30" y="265.666" clip-path="url(#clipPath2)"/>
      <text x="245.2761" xml:space="preserve" y="285.2012" clip-path="url(#clipPath2)" font-family="sans-serif" stroke="none">Environment</text>
    </g>
    <g fill="rgb(255,204,0)" text-rendering="geometricPrecision" shape-rendering="geometricPrecision" transform="matrix(1,0,0,1,15,15)" stroke="rgb(255,204,0)">
      <rect x="260.7803" width="33.7402" height="30" y="156.666" clip-path="url(#clipPath2)" stroke="none"/>
    </g>
    <g text-rendering="geometricPrecision" stroke-miterlimit="1.45" shape-rendering="geometricPrecision" transform="matrix(1,0,0,1,15,15)" stroke-linecap="butt">
      <rect fill="none" x="260.7803" width="33.7402" height="30" y="156.666" clip-path="url(#clipPath2)"/>
      <text x="267.7803" xml:space="preserve" y="176.2012" clip-path="url(#clipPath2)" font-family="sans-serif" stroke="none">Util</text>
    </g>
    <g fill="rgb(255,204,0)" text-rendering="geometricPrecision" shape-rendering="geometricPrecision" transform="matrix(1,0,0,1,15,15)" stroke="rgb(255,204,0)">
      <rect x="24.1381" width="83.6738" height="30" y="156.666" clip-path="url(#clipPath2)" stroke="none"/>
    </g>
    <g text-rendering="geometricPrecision" stroke-miterlimit="1.45" shape-rendering="geometricPrecision" transform="matrix(1,0,0,1,15,15)" stroke-linecap="butt">
      <rect fill="none" x="24.1381" width="83.6738" height="30" y="156.666" clip-path="url(#clipPath2)"/>
      <text x="31.1381" xml:space="preserve" y="176.2012" clip-path="url(#clipPath2)" font-family="sans-serif" stroke="none">Interruption</text>
    </g>
    <g fill="rgb(255,204,0)" text-rendering="geometricPrecision" shape-rendering="geometricPrecision" transform="matrix(1,0,0,1,15,15)" stroke="rgb(255,204,0)">
      <rect x="259.7402" width="35.8203" height="30" y="96.666" clip-path="url(#clipPath2)" stroke="none"/>
    </g>
    <g text-rendering="geometricPrecision" stroke-miterlimit="1.45" shape-rendering="geometricPrecision" transform="matrix(1,0,0,1,15,15)" stroke-linecap="butt">
      <rect fill="none" x="259.7402" width="35.8203" height="30" y="96.666" clip-path="url(#clipPath2)"/>
      <text x="266.7402" xml:space="preserve" y="116.2012" clip-path="url(#clipPath2)" font-family="sans-serif" stroke="none">Exit</text>
    </g>
    <g fill="rgb(255,204,0)" text-rendering="geometricPrecision" shape-rendering="geometricPrecision" transform="matrix(1,0,0,1,15,15)" stroke="rgb(255,204,0)">
      <rect x="253.0606" width="49.1797" height="30" y="36.666" clip-path="url(#clipPath2)" stroke="none"/>
    </g>
    <g text-rendering="geometricPrecision" stroke-miterlimit="1.45" shape-rendering="geometricPrecision" transform="matrix(1,0,0,1,15,15)" stroke-linecap="butt">
      <rect fill="none" x="253.0606" width="49.1797" height="30" y="36.666" clip-path="url(#clipPath2)"/>
      <text x="260.0605" xml:space="preserve" y="56.2012" clip-path="url(#clipPath2)" font-family="sans-serif" stroke="none">Cause</text>
    </g>
    <g fill="rgb(255,204,0)" text-rendering="geometricPrecision" shape-rendering="geometricPrecision" transform="matrix(1,0,0,1,15,15)" stroke="rgb(255,204,0)">
      <rect x="344.7461" width="88.8594" height="30" y="435.166" clip-path="url(#clipPath2)" stroke="none"/>
    </g>
    <g text-rendering="geometricPrecision" stroke-miterlimit="1.45" shape-rendering="geometricPrecision" transform="matrix(1,0,0,1,15,15)" stroke-linecap="butt">
      <rect fill="none" x="344.7461" width="88.8594" height="30" y="435.166" clip-path="url(#clipPath2)"/>
      <text x="351.7461" xml:space="preserve" y="454.7012" clip-path="url(#clipPath2)" font-family="sans-serif" stroke="none">Combinators</text>
    </g>
    <g fill="rgb(255,204,0)" text-rendering="geometricPrecision" shape-rendering="geometricPrecision" transform="matrix(1,0,0,1,15,15)" stroke="rgb(255,204,0)">
      <rect x="68.2728" width="115.0742" height="30" y="435.166" clip-path="url(#clipPath2)" stroke="none"/>
    </g>
    <g text-rendering="geometricPrecision" stroke-miterlimit="1.45" shape-rendering="geometricPrecision" transform="matrix(1,0,0,1,15,15)" stroke-linecap="butt">
      <rect fill="none" x="68.2728" width="115.0742" height="30" y="435.166" clip-path="url(#clipPath2)"/>
      <text x="75.2728" xml:space="preserve" y="454.7012" clip-path="url(#clipPath2)" font-family="sans-serif" stroke="none">GraphvizDiagram</text>
    </g>
    <g fill="rgb(255,204,0)" text-rendering="geometricPrecision" shape-rendering="geometricPrecision" transform="matrix(1,0,0,1,15,15)" stroke="rgb(255,204,0)">
      <rect x="15.0004" width="120.2246" height="30" y="265.666" clip-path="url(#clipPath2)" stroke="none"/>
    </g>
    <g text-rendering="geometricPrecision" stroke-miterlimit="1.45" shape-rendering="geometricPrecision" transform="matrix(1,0,0,1,15,15)" stroke-linecap="butt">
      <rect fill="none" x="15.0004" width="120.2246" height="30" y="265.666" clip-path="url(#clipPath2)"/>
      <text x="22.0004" xml:space="preserve" y="285.2012" clip-path="url(#clipPath2)" font-family="sans-serif" stroke="none">ExecutionDiagram</text>
    </g>
    <g fill="rgb(255,204,0)" text-rendering="geometricPrecision" shape-rendering="geometricPrecision" transform="matrix(1,0,0,1,15,15)" stroke="rgb(255,204,0)">
      <rect x="138.7793" width="76.2207" height="30" y="653.166" clip-path="url(#clipPath2)" stroke="none"/>
    </g>
    <g text-rendering="geometricPrecision" stroke-miterlimit="1.45" shape-rendering="geometricPrecision" transform="matrix(1,0,0,1,15,15)" stroke-linecap="butt">
      <rect fill="none" x="138.7793" width="76.2207" height="30" y="653.166" clip-path="url(#clipPath2)"/>
      <text x="145.7793" xml:space="preserve" y="672.7012" clip-path="url(#clipPath2)" font-family="sans-serif" stroke="none">Interpreter</text>
    </g>
    <g fill="rgb(255,204,0)" text-rendering="geometricPrecision" shape-rendering="geometricPrecision" transform="matrix(1,0,0,1,15,15)" stroke="rgb(255,204,0)">
      <rect x="15.0001" width="51.541" height="30" y="544.166" clip-path="url(#clipPath2)" stroke="none"/>
    </g>
    <g text-rendering="geometricPrecision" stroke-miterlimit="1.45" shape-rendering="geometricPrecision" transform="matrix(1,0,0,1,15,15)" stroke-linecap="butt">
      <rect fill="none" x="15.0001" width="51.541" height="30" y="544.166" clip-path="url(#clipPath2)"/>
      <text x="22.0001" xml:space="preserve" y="563.7012" clip-path="url(#clipPath2)" font-family="sans-serif" stroke="none">Colors</text>
    </g>
    <g fill="rgb(255,204,0)" text-rendering="geometricPrecision" shape-rendering="geometricPrecision" transform="matrix(1,0,0,1,15,15)" stroke="rgb(255,204,0)">
      <rect x="466.9019" width="44.8906" height="30" y="653.166" clip-path="url(#clipPath2)" stroke="none"/>
    </g>
    <g text-rendering="geometricPrecision" stroke-miterlimit="1.45" shape-rendering="geometricPrecision" transform="matrix(1,0,0,1,15,15)" stroke-linecap="butt">
      <rect fill="none" x="466.9019" width="44.8906" height="30" y="653.166" clip-path="url(#clipPath2)"/>
      <text x="473.9019" xml:space="preserve" y="672.7012" clip-path="url(#clipPath2)" font-family="sans-serif" stroke="none">Layer</text>
    </g>
    <g fill="rgb(255,204,0)" text-rendering="geometricPrecision" shape-rendering="geometricPrecision" transform="matrix(1,0,0,1,15,15)" stroke="rgb(255,204,0)">
      <rect x="322.5358" width="102.8047" height="30" y="653.166" clip-path="url(#clipPath2)" stroke="none"/>
    </g>
    <g text-rendering="geometricPrecision" stroke-miterlimit="1.45" shape-rendering="geometricPrecision" transform="matrix(1,0,0,1,15,15)" stroke-linecap="butt">
      <rect fill="none" x="322.5358" width="102.8047" height="30" y="653.166" clip-path="url(#clipPath2)"/>
      <text x="329.5358" xml:space="preserve" y="672.7012" clip-path="url(#clipPath2)" font-family="sans-serif" stroke="none">DefaultServices</text>
    </g>
    <g fill="rgb(255,204,0)" text-rendering="geometricPrecision" shape-rendering="geometricPrecision" transform="matrix(1,0,0,1,15,15)" stroke="rgb(255,204,0)">
      <rect x="306.294" width="60.7637" height="30" y="544.166" clip-path="url(#clipPath2)" stroke="none"/>
    </g>
    <g text-rendering="geometricPrecision" stroke-miterlimit="1.45" shape-rendering="geometricPrecision" transform="matrix(1,0,0,1,15,15)" stroke-linecap="butt">
      <rect fill="none" x="306.294" width="60.7637" height="30" y="544.166" clip-path="url(#clipPath2)"/>
      <text x="313.2939" xml:space="preserve" y="563.7012" clip-path="url(#clipPath2)" font-family="sans-serif" stroke="none">Console</text>
    </g>
    <g fill="rgb(255,204,0)" text-rendering="geometricPrecision" shape-rendering="geometricPrecision" transform="matrix(1,0,0,1,15,15)" stroke="rgb(255,204,0)">
      <rect x="397.0578" width="61.7891" height="30" y="544.166" clip-path="url(#clipPath2)" stroke="none"/>
    </g>
    <g text-rendering="geometricPrecision" stroke-miterlimit="1.45" shape-rendering="geometricPrecision" transform="matrix(1,0,0,1,15,15)" stroke-linecap="butt">
      <rect fill="none" x="397.0578" width="61.7891" height="30" y="544.166" clip-path="url(#clipPath2)"/>
      <text x="404.0579" xml:space="preserve" y="563.7012" clip-path="url(#clipPath2)" font-family="sans-serif" stroke="none">Random</text>
    </g>
    <g fill="rgb(255,204,0)" text-rendering="geometricPrecision" shape-rendering="geometricPrecision" transform="matrix(1,0,0,1,15,15)" stroke="rgb(255,204,0)">
      <rect x="583.9097" width="71.8203" height="30" y="265.666" clip-path="url(#clipPath2)" stroke="none"/>
    </g>
    <g text-rendering="geometricPrecision" stroke-miterlimit="1.45" shape-rendering="geometricPrecision" transform="matrix(1,0,0,1,15,15)" stroke-linecap="butt">
      <rect fill="none" x="583.9097" width="71.8203" height="30" y="265.666" clip-path="url(#clipPath2)"/>
      <text x="590.9097" xml:space="preserve" y="285.2012" clip-path="url(#clipPath2)" font-family="sans-serif" stroke="none">Coercions</text>
    </g>
    <g fill="rgb(255,204,0)" text-rendering="geometricPrecision" shape-rendering="geometricPrecision" transform="matrix(1,0,0,1,15,15)" stroke="rgb(255,204,0)">
      <rect x="355.46" width="67.4316" height="30" y="265.666" clip-path="url(#clipPath2)" stroke="none"/>
    </g>
    <g text-rendering="geometricPrecision" stroke-miterlimit="1.45" shape-rendering="geometricPrecision" transform="matrix(1,0,0,1,15,15)" stroke-linecap="butt">
      <rect fill="none" x="355.46" width="67.4316" height="30" y="265.666" clip-path="url(#clipPath2)"/>
      <text x="362.46" xml:space="preserve" y="285.2012" clip-path="url(#clipPath2)" font-family="sans-serif" stroke="none">Metadata</text>
    </g>
    <g fill="rgb(255,204,0)" text-rendering="geometricPrecision" shape-rendering="geometricPrecision" transform="matrix(1,0,0,1,15,15)" stroke="rgb(255,204,0)">
      <rect x="127.5415" width="117.752" height="30" y="544.166" clip-path="url(#clipPath2)" stroke="none"/>
    </g>
    <g text-rendering="geometricPrecision" stroke-miterlimit="1.45" shape-rendering="geometricPrecision" transform="matrix(1,0,0,1,15,15)" stroke-linecap="butt">
      <rect fill="none" x="127.5415" width="117.752" height="30" y="544.166" clip-path="url(#clipPath2)"/>
      <text x="134.5415" xml:space="preserve" y="563.7012" clip-path="url(#clipPath2)" font-family="sans-serif" stroke="none">InterpreterModels</text>
    </g>
    <g fill="rgb(255,204,0)" text-rendering="geometricPrecision" shape-rendering="geometricPrecision" transform="matrix(1,0,0,1,15,15)" stroke="rgb(255,204,0)">
      <rect x="363.3111" width="21.2539" height="30" y="760.166" clip-path="url(#clipPath2)" stroke="none"/>
    </g>
    <g text-rendering="geometricPrecision" stroke-miterlimit="1.45" shape-rendering="geometricPrecision" transform="matrix(1,0,0,1,15,15)" stroke-linecap="butt">
      <rect fill="none" x="363.3111" width="21.2539" height="30" y="760.166" clip-path="url(#clipPath2)"/>
      <text x="370.3112" xml:space="preserve" y="779.7012" clip-path="url(#clipPath2)" font-family="sans-serif" stroke="none">Z</text>
      <path fill="none" d="M372.668 373.623 L372.668 368.166 L372.5046 362.9936 L372.4683 362.8442 L370.9976 360.7314 L370.7072 360.4114 L366.7854 357.4373 L366.2044 357.0964 L359.6683 353.9764 L358.7968 353.6239 L349.6462 350.4398 L348.4842 350.0847 L336.7191 346.9181 L335.2666 346.5695 L316.4751 342.792 L313.7517 342.3011 L291.6922 338.7755 L289.5134 338.4828 L269.9049 335.8492 L267.7262 335.5566 L245.6667 332.0309 L242.9433 331.5401 L224.1518 327.7626 L222.6993 327.4139 L210.9342 324.2474 L209.7722 323.8923 L200.6216 320.7081 L199.7501 320.3556 L193.2139 317.2356 L192.6329 316.8948 L188.7112 313.9207 L188.4207 313.6006 L186.9501 311.4878 L186.9138 311.3384 L186.7504 303.916 L186.7504 303.666" clip-path="url(#clipPath2)"/>
      <path d="M186.7504 295.666 L181.7504 307.666 L186.7504 304.666 L191.7504 307.666 Z" clip-path="url(#clipPath2)" stroke="none"/>
      <path fill="none" d="M397.4297 373.623 L397.4297 368.166 L397.5228 362.9936 L397.5435 362.8442 L398.3818 360.7314 L398.5474 360.4114 L400.7827 357.4373 L401.1138 357.0964 L404.8394 353.9764 L405.3362 353.6239 L412.3215 349.6492 L413.3771 349.1184 L427.0685 343.743 L429.0555 343.0793 L449.1734 337.4586 L451.6571 336.8734 L471.775 331.2528 L473.762 330.589 L487.4534 325.2136 L488.509 324.6828 L495.4944 320.7081 L495.9911 320.3556 L499.7166 317.2356 L500.0478 316.8948 L502.2831 313.9207 L502.4487 313.6006 L503.2869 311.4878 L503.3077 311.3384 L503.4008 303.916 L503.4008 303.666" clip-path="url(#clipPath2)"/>
      <path d="M503.4008 295.666 L498.4008 307.666 L503.4008 304.666 L508.4008 307.666 Z" clip-path="url(#clipPath2)" stroke="none"/>
      <path fill="none" d="M380.9219 373.623 L380.9219 368.166 L380.8348 362.9936 L380.8155 362.8442 L380.0319 360.7314 L379.8772 360.4114 L377.7878 357.4373 L377.4782 357.0964 L373.9958 353.9764 L373.5316 353.6239 L367.0021 349.6492 L366.0154 349.1184 L353.2177 343.743 L351.3605 343.0793 L332.5557 337.4586 L330.2341 336.8734 L311.4293 331.2528 L309.572 330.589 L296.7743 325.2136 L295.7877 324.6828 L289.2582 320.7081 L288.7939 320.3556 L285.3115 317.2356 L285.002 316.8948 L282.9126 313.9207 L282.7578 313.6006 L281.9742 311.4878 L281.9549 311.3384 L281.8679 303.916 L281.8679 303.666" clip-path="url(#clipPath2)"/>
      <path d="M281.8679 295.666 L276.8679 307.666 L281.8679 304.666 L286.8679 307.666 Z" clip-path="url(#clipPath2)" stroke="none"/>
      <path fill="none" d="M197.5131 265.623 L197.5131 260.166 L197.5798 254.9928 L197.5947 254.8431 L198.1952 252.7225 L198.3138 252.4008 L199.9153 249.4056 L200.1525 249.0617 L202.8215 245.9065 L203.1774 245.5493 L208.1819 241.5087 L208.9381 240.968 L218.7469 235.4633 L220.1704 234.7808 L234.5833 228.9704 L236.3627 228.3617 L250.7756 222.5512 L252.1991 221.8687 L262.0078 216.3641 L262.7641 215.8234 L267.7686 211.7827 L268.1244 211.4255 L270.7935 208.2704 L271.0307 207.9264 L272.6321 204.9312 L272.7508 204.6096 L273.3513 202.4889 L273.3661 202.3393 L273.4329 194.916 L273.4329 194.666" clip-path="url(#clipPath2)"/>
      <path d="M273.4329 186.666 L268.4329 198.666 L273.4329 195.666 L278.4329 198.666 Z" clip-path="url(#clipPath2)" stroke="none"/>
      <path fill="none" d="M281.8679 265.6274 L281.8679 194.666" clip-path="url(#clipPath2)"/>
      <path d="M281.8679 186.666 L276.8679 198.666 L281.8679 195.666 L286.8679 198.666 Z" clip-path="url(#clipPath2)" stroke="none"/>
      <path fill="none" d="M175.9877 265.623 L175.9877 260.166 L175.9094 254.9928 L175.892 254.8431 L175.1872 252.7225 L175.048 252.4008 L173.1687 249.4056 L172.8903 249.0617 L169.7581 245.9065 L169.3404 245.5493 L163.4675 241.5087 L162.5801 240.968 L151.0692 235.4633 L149.3987 234.7808 L132.4846 228.9704 L130.3965 228.3617 L113.4825 222.5512 L111.812 221.8687 L100.3011 216.3641 L99.4136 215.8234 L93.5407 211.7827 L93.1231 211.4255 L89.9909 208.2704 L89.7124 207.9264 L87.8331 204.9312 L87.6939 204.6096 L86.9892 202.4889 L86.9718 202.3393 L86.8935 194.916 L86.8935 194.666" clip-path="url(#clipPath2)"/>
      <path d="M86.8935 186.666 L81.8935 198.666 L86.8935 195.666 L91.8935 198.666 Z" clip-path="url(#clipPath2)" stroke="none"/>
      <path fill="none" d="M277.6504 156.6367 L277.6504 134.666" clip-path="url(#clipPath2)"/>
      <path d="M277.6504 126.666 L272.6504 138.666 L277.6504 135.666 L282.6504 138.666 Z" clip-path="url(#clipPath2)" stroke="none"/>
      <path fill="none" d="M277.6504 96.6367 L277.6504 74.666" clip-path="url(#clipPath2)"/>
      <path d="M277.6504 66.666 L272.6504 78.666 L277.6504 75.666 L282.6504 78.666 Z" clip-path="url(#clipPath2)" stroke="none"/>
      <path fill="none" d="M389.1758 435.1353 L389.1758 411.666" clip-path="url(#clipPath2)"/>
      <path d="M389.1758 403.666 L384.1758 415.666 L389.1758 412.666 L394.1758 415.666 Z" clip-path="url(#clipPath2)" stroke="none"/>
      <path fill="none" d="M125.8099 435.123 L125.8099 429.666 L125.6317 423.7929 L125.5921 423.4878 L123.988 419.0997 L123.6711 418.4296 L121.8888 415.393 L119.3936 412.3134 L118.7598 411.6241 L115.5517 408.5831 L111.6305 405.6625 L110.68 405.0269 L103.7289 400.9288 L103.1348 400.6537 L99.7595 399.0811 L99.6036 399.0066 L97.565 397.7311 L97.268 397.5222 L94.0932 394.5432 L93.6848 394.0902 L89.708 388.2977 L89.2327 387.4635 L85.3116 378.9613 L84.9155 377.9061 L81.7073 367.6224 L81.3904 366.3923 L78.8952 354.7409 L78.6575 353.3819 L76.8752 340.7769 L76.7168 339.3349 L75.6474 326.1903 L75.5682 324.7113 L75.1672 314.7304 L75.1573 313.9915 L75.1127 303.916 L75.1127 303.666" clip-path="url(#clipPath2)"/>
      <path d="M75.1127 295.666 L70.1127 307.666 L75.1127 304.666 L80.1127 307.666 Z" clip-path="url(#clipPath2)" stroke="none"/>
      <path fill="none" d="M105.1689 265.623 L105.1689 260.166 L105.3093 254.9928 L105.3405 254.8431 L106.6048 252.7225 L106.8546 252.4008 L110.2259 249.4056 L110.7254 249.0617 L116.3444 245.9065 L117.0936 245.5493 L124.9602 242.3159 L125.9591 241.9546 L136.0733 238.7247 L137.3219 238.3683 L153.4765 234.4897 L155.8178 233.9842 L183.2103 228.9704 L186.9563 228.3617 L214.3489 223.3478 L216.6901 222.8423 L232.8447 218.9637 L234.0934 218.6073 L244.2076 215.3774 L245.2065 215.0161 L253.0731 211.7827 L253.8223 211.4255 L259.4413 208.2704 L259.9407 207.9264 L263.3121 204.9312 L263.5618 204.6096 L264.8261 202.4889 L264.8573 202.3393 L264.9978 194.916 L264.9978 194.666" clip-path="url(#clipPath2)"/>
      <path d="M264.9978 186.666 L259.9978 198.666 L264.9978 195.666 L269.9978 198.666 Z" clip-path="url(#clipPath2)" stroke="none"/>
      <path fill="none" d="M45.0565 265.6274 L45.0565 194.666" clip-path="url(#clipPath2)"/>
      <path d="M45.0565 186.666 L40.0565 198.666 L45.0565 195.666 L50.0565 198.666 Z" clip-path="url(#clipPath2)" stroke="none"/>
      <path fill="none" d="M205.4724 653.123 L205.4724 647.666 L205.5342 642.4664 L205.548 642.3109 L206.1042 639.9529 L206.2141 639.5844 L208.3773 634.8676 L208.7481 634.1879 L214.3725 626.2001 L215.2515 625.1046 L225.1404 614.5727 L226.4589 613.3277 L236.1006 604.7735 L236.9247 604.1176 L242.549 599.6727 L242.9748 599.3409 L248.3519 594.8453 L249.121 594.1781 L255.5488 588.1523 L256.2081 587.4805 L261.647 581.4125 L262.1964 580.736 L266.6464 574.6258 L267.0859 573.9445 L270.547 567.7922 L270.8766 567.1063 L273.3489 560.9117 L273.5686 560.2211 L275.052 553.9844 L275.1619 553.2891 L275.7181 548.5878 L275.7318 548.2384 L275.8777 545.12 L275.8964 544.7765 L276.6526 540.3125 L276.802 539.6641 L278.8188 534.0602 L279.1176 533.4633 L282.4789 528.3234 L282.9271 527.7781 L287.6329 523.1023 L288.2305 522.6086 L294.2808 518.3969 L295.0277 517.9547 L302.4226 514.207 L303.319 513.8164 L312.0583 510.5328 L313.1041 510.1938 L320.4149 507.9921 L320.9938 507.8419 L327.9012 506.131 L328.8574 505.901 L337.1934 503.7677 L338.0897 503.5236 L348.577 499.8973 L350.0111 499.3355 L359.8933 494.6863 L360.6552 494.2149 L365.6972 490.6026 L366.0557 490.2713 L368.7448 487.2472 L368.9838 486.9065 L370.5972 483.8142 L370.7167 483.4677 L371.3217 481.1245 L371.3367 480.9502 L371.4039 473.416 L371.4039 473.166" clip-path="url(#clipPath2)"/>
      <path d="M371.4039 465.166 L366.4039 477.166 L371.4039 474.166 L376.4039 477.166 Z" clip-path="url(#clipPath2)" stroke="none"/>
      <path fill="none" d="M167.3621 653.123 L167.3621 647.666 L167.3003 642.4927 L167.2866 642.3431 L166.7303 640.2225 L166.6204 639.9008 L165.1371 636.9056 L164.9174 636.5616 L162.4451 633.4065 L162.1155 633.0493 L157.4801 629.0087 L156.7796 628.4679 L147.6942 622.9633 L146.3757 622.2808 L136.7341 617.8399 L135.91 617.5356 L129.0372 615.131 L128.334 614.901 L124.3909 613.546 L124.2178 613.4749 L121.9557 612.1533 L121.6261 611.9308 L118.1032 608.5542 L117.6499 608.0264 L113.237 600.9412 L112.7096 599.8945 L108.3585 588.8312 L107.919 587.4193 L104.3591 573.2007 L104.0074 571.4528 L101.2386 554.3416 L100.9749 552.2869 L98.9971 532.5455 L98.8213 530.2133 L97.6347 508.1045 L97.5468 505.5237 L97.1018 487.7254 L97.0908 486.351 L97.0414 473.416 L97.0414 473.166" clip-path="url(#clipPath2)"/>
      <path d="M97.0414 465.166 L92.0414 477.166 L97.0414 474.166 L102.0414 477.166 Z" clip-path="url(#clipPath2)" stroke="none"/>
      <path fill="none" d="M148.3069 653.123 L148.3069 647.666 L148.2124 642.4927 L148.1914 642.3431 L147.3408 640.2225 L147.1727 639.9008 L144.9044 636.9056 L144.5684 636.5616 L140.7878 633.4065 L140.2837 633.0493 L133.1951 629.0087 L132.124 628.4679 L118.2304 622.9633 L116.2141 622.2808 L95.799 616.4703 L93.2786 615.8617 L72.8635 610.0512 L70.8472 609.3687 L56.9536 603.8641 L55.8824 603.3234 L48.7939 599.2827 L48.2898 598.9255 L44.5092 595.7704 L44.1732 595.4264 L41.9048 592.4312 L41.7368 592.1096 L40.8862 589.9889 L40.8652 589.8393 L40.7706 582.416 L40.7706 582.166" clip-path="url(#clipPath2)"/>
      <path d="M40.7706 574.166 L35.7706 586.166 L40.7706 583.166 L45.7706 586.166 Z" clip-path="url(#clipPath2)" stroke="none"/>
      <path fill="none" d="M489.3472 653.123 L489.3472 647.666 L489.3018 636.9811 L489.2917 635.6067 L488.8827 617.8083 L488.8019 615.2275 L487.7113 593.1188 L487.5497 590.7865 L485.7321 571.0452 L485.4897 568.9905 L482.9451 551.8792 L482.6219 550.1313 L479.3501 535.9127 L478.9462 534.5009 L474.9474 523.4375 L474.4626 522.3908 L470.407 515.3057 L469.9905 514.7778 L466.7528 511.4012 L466.4498 511.1786 L464.3709 509.8571 L464.2119 509.786 L460.5879 508.431 L459.9416 508.201 L453.6253 505.7964 L452.8679 505.4921 L444.0069 501.0512 L442.7951 500.3687 L437.7965 497.2547 L433.7068 494.0555 L432.899 493.3351 L427.73 487.7466 L427.3892 487.2252 L425.4012 483.4312 L425.3002 483.1096 L424.789 480.9889 L424.7763 480.8393 L424.7195 473.416 L424.7195 473.166" clip-path="url(#clipPath2)"/>
      <path d="M424.7195 465.166 L419.7195 477.166 L424.7195 474.166 L429.7195 477.166 Z" clip-path="url(#clipPath2)" stroke="none"/>
      <path fill="none" d="M348.2369 653.123 L348.2369 647.666 L348.0743 640.2814 L348.0382 639.6404 L347.0221 631.9313 L346.8324 630.8592 L345.0034 622.9633 L344.7867 622.2808 L342.5919 616.4703 L342.3209 615.8617 L340.1261 610.0512 L339.9093 609.3687 L338.0803 601.4728 L337.8906 600.4007 L336.8745 592.6916 L336.8384 592.0506 L336.6758 582.416 L336.6758 582.166" clip-path="url(#clipPath2)"/>
      <path d="M336.6758 574.166 L331.6758 586.166 L336.6758 583.166 L341.6758 586.166 Z" clip-path="url(#clipPath2)" stroke="none"/>
      <path fill="none" d="M336.6758 544.123 L336.6758 538.666 L336.8604 532.7842 L336.9014 532.4771 L338.5625 528.0098 L338.8906 527.3242 L340.7363 524.1996 L343.3203 520.9969 L343.9766 520.2765 L347.2988 517.0773 L351.3594 513.9633 L352.3438 513.2808 L362.3105 507.4703 L363.541 506.8617 L373.5078 501.0512 L374.4922 500.3687 L378.5527 497.2547 L381.875 494.0555 L382.5312 493.3351 L385.1152 490.1324 L386.9609 487.0079 L387.2891 486.3222 L388.9502 481.8549 L388.9912 481.5479 L389.1758 473.416 L389.1758 473.166" clip-path="url(#clipPath2)"/>
      <path d="M389.1758 465.166 L384.1758 477.166 L389.1758 474.166 L394.1758 477.166 Z" clip-path="url(#clipPath2)" stroke="none"/>
      <path fill="none" d="M399.6393 653.123 L399.6393 647.666 L399.7388 641.7842 L399.7609 641.4771 L400.6568 637.0098 L400.8337 636.3242 L403.2227 629.9969 L403.5765 629.2765 L407.5581 622.9633 L408.0889 622.2808 L413.464 616.4703 L414.1276 615.8617 L419.5027 610.0512 L420.0336 609.3687 L424.0151 603.0555 L424.369 602.3351 L426.7579 596.0079 L426.9349 595.3222 L427.8307 590.855 L427.8528 590.5479 L427.9524 582.416 L427.9524 582.166" clip-path="url(#clipPath2)"/>
      <path d="M427.9524 574.166 L422.9524 586.166 L427.9524 583.166 L432.9524 586.166 Z" clip-path="url(#clipPath2)" stroke="none"/>
      <path fill="none" d="M427.9524 544.123 L427.9524 538.666 L427.8785 532.7842 L427.8621 532.4771 L427.1975 528.0098 L427.0662 527.3242 L425.2939 520.9969 L425.0314 520.2765 L422.0776 513.9633 L421.6838 513.2808 L418.8038 508.8399 L418.5577 508.5356 L416.3423 505.7964 L416.0962 505.4921 L413.2162 501.0512 L412.8224 500.3687 L409.8686 494.0555 L409.6061 493.3351 L407.8338 487.0079 L407.7025 486.3222 L407.0379 481.8549 L407.0215 481.5479 L406.9477 473.416 L406.9477 473.166" clip-path="url(#clipPath2)"/>
      <path d="M406.9477 465.166 L401.9477 477.166 L406.9477 474.166 L411.9477 477.166 Z" clip-path="url(#clipPath2)" stroke="none"/>
      <path fill="none" d="M405.6836 373.623 L405.6836 368.166 L405.7632 363.0048 L405.7809 362.8578 L406.467 360.8486 L406.6017 360.5491 L409.0834 357.2076 L409.5001 356.7646 L415.2511 352.4249 L416.1124 351.9035 L420.2321 349.7365 L424.8397 347.9281 L425.9178 347.566 L433.3577 345.5143 L433.9329 345.4204 L451.9066 343.2605 L455.3255 342.8744 L499.5481 337.0437 L505.9564 336.134 L552.827 328.7856 L556.8345 328.0622 L584.2722 322.7188 L586.3621 322.2547 L602.5125 318.2489 L604.0117 317.8228 L613.7822 314.6339 L614.4543 314.3513 L618.4127 312.3328 L618.6202 312.1667 L619.6737 311.0805 L619.7003 311.0052 L619.8198 303.916 L619.8198 303.666" clip-path="url(#clipPath2)"/>
      <path d="M619.8198 295.666 L614.8198 307.666 L619.8198 304.666 L624.8198 307.666 Z" clip-path="url(#clipPath2)" stroke="none"/>
      <path fill="none" d="M389.1758 373.6279 L389.1758 303.666" clip-path="url(#clipPath2)"/>
      <path d="M389.1758 295.666 L384.1758 307.666 L389.1758 304.666 L394.1758 307.666 Z" clip-path="url(#clipPath2)" stroke="none"/>
      <path fill="none" d="M389.1758 265.623 L389.1758 260.166 L389.0889 254.9928 L389.0696 254.8431 L388.2875 252.7225 L388.133 252.4008 L386.0474 249.4056 L385.7384 249.0617 L382.2624 245.9065 L381.799 245.5493 L375.2814 241.5087 L374.2966 240.968 L361.5223 235.4633 L359.6684 234.7808 L346.1121 230.3399 L344.9534 230.0356 L334.5254 227.2965 L333.3667 226.9921 L319.8103 222.5512 L317.9565 221.8687 L305.1822 216.3641 L304.1973 215.8234 L297.6798 211.7827 L297.2164 211.4255 L293.7404 208.2704 L293.4314 207.9264 L291.3458 204.9312 L291.1913 204.6096 L290.4092 202.4889 L290.3899 202.3393 L290.303 194.916 L290.303 194.666" clip-path="url(#clipPath2)"/>
      <path d="M290.303 186.666 L285.303 198.666 L290.303 195.666 L295.303 198.666 Z" clip-path="url(#clipPath2)" stroke="none"/>
      <path fill="none" d="M186.4173 653.1274 L186.4174 582.166" clip-path="url(#clipPath2)"/>
      <path d="M186.4175 574.166 L181.4174 586.166 L186.4174 583.166 L191.4174 586.166 Z" clip-path="url(#clipPath2)" stroke="none"/>
      <path fill="none" d="M215.8555 544.123 L215.8555 538.666 L215.9765 533.4927 L216.0034 533.3431 L217.0933 531.2225 L217.3086 530.9008 L220.2148 527.9056 L220.6453 527.5616 L225.489 524.4065 L226.1349 524.0493 L232.9161 520.8159 L233.7772 520.4546 L242.4958 517.2247 L243.5722 516.8683 L257.4979 512.9897 L259.5161 512.4842 L283.1292 507.4703 L286.3583 506.8617 L309.9714 501.8478 L311.9896 501.3423 L325.9153 497.4637 L326.9916 497.1073 L335.7103 493.8774 L336.5714 493.5161 L343.3526 490.2827 L343.9984 489.9255 L348.8421 486.7704 L349.2727 486.4264 L352.1789 483.4312 L352.3942 483.1096 L353.484 480.9889 L353.511 480.8393 L353.632 473.416 L353.632 473.166" clip-path="url(#clipPath2)"/>
      <path d="M353.632 465.166 L348.632 477.166 L353.632 474.166 L358.632 477.166 Z" clip-path="url(#clipPath2)" stroke="none"/>
      <path fill="none" d="M156.9795 544.123 L156.9795 538.666 L156.8444 528.077 L156.8144 526.7238 L155.869 508.5129 L155.6889 505.8192 L154.7435 487.6082 L154.7135 486.2551 L154.5785 473.416 L154.5785 473.166" clip-path="url(#clipPath2)"/>
      <path d="M154.5785 465.166 L149.5785 477.166 L154.5785 474.166 L159.5785 477.166 Z" clip-path="url(#clipPath2)" stroke="none"/>
      <path fill="none" d="M366.8535 760.123 L366.8535 754.666 L366.6865 749.4945 L366.6494 749.3453 L365.1467 747.2404 L364.8499 746.9219 L360.8429 743.9689 L360.2492 743.6312 L353.5708 740.5464 L352.6804 740.1985 L343.3306 737.0636 L342.1433 736.7147 L330.1222 733.6115 L328.6381 733.2706 L309.4377 729.5942 L306.655 729.118 L274.0977 724.4469 L269.6454 723.8851 L237.0882 719.214 L234.3055 718.7378 L215.105 715.0614 L213.621 714.7206 L201.5998 711.6173 L200.4125 711.2684 L191.0628 708.1335 L190.1723 707.7856 L183.4939 704.7008 L182.9003 704.3632 L178.8932 701.4102 L178.5964 701.0916 L177.0938 698.9868 L177.0566 698.8375 L176.8897 691.416 L176.8897 691.166" clip-path="url(#clipPath2)"/>
      <path d="M176.8897 683.166 L171.8897 695.166 L176.8897 692.166 L181.8897 695.166 Z" clip-path="url(#clipPath2)" stroke="none"/>
      <path fill="none" d="M373.9381 760.1284 L373.9381 691.166" clip-path="url(#clipPath2)"/>
      <path d="M373.9381 683.166 L368.9381 695.166 L373.9381 692.166 L378.9381 695.166 Z" clip-path="url(#clipPath2)" stroke="none"/>
      <path fill="none" d="M381.0227 760.123 L381.0227 754.666 L381.118 749.4945 L381.1391 749.3453 L381.996 747.2404 L382.1652 746.9219 L384.4502 743.9689 L384.7887 743.6312 L388.597 740.5464 L389.1047 740.1985 L394.4363 737.0636 L395.1134 736.7147 L401.9683 733.6115 L402.8146 733.2706 L413.7634 729.5942 L415.3502 729.118 L433.9155 724.4469 L436.4544 723.8851 L455.0198 719.214 L456.6066 718.7378 L467.5554 715.0614 L468.4017 714.7206 L475.2566 711.6173 L475.9336 711.2684 L481.2652 708.1335 L481.7729 707.7856 L485.5812 704.7008 L485.9198 704.3632 L488.2047 701.4102 L488.374 701.0916 L489.2309 698.9868 L489.252 698.8375 L489.3472 691.416 L489.3472 691.166" clip-path="url(#clipPath2)"/>
      <path d="M489.3472 683.166 L484.3472 695.166 L489.3472 692.166 L494.3472 695.166 Z" clip-path="url(#clipPath2)" stroke="none"/>
    </g>
  </g>
</svg>
